<svg xmlns="http://www.w3.org/2000/svg" width="14" height="14" viewBox="0 0 14 14" fill="none">
  <g clip-path="url(#clip0_1401_1751)">
    <path d="M12.3419 1.0497C12.6961 1.24811 12.9571 1.57909 13.0674 1.96986C13.1776 2.36063 13.1282 2.7792 12.9299 3.13352L7.89425 12.1259C7.76672 12.3537 7.58983 12.5501 7.37655 12.7007C7.16327 12.8512 6.919 12.9522 6.66164 12.9961C6.40429 13.04 6.14036 13.0258 5.88922 12.9545C5.63807 12.8832 5.40606 12.7566 5.21019 12.584L1.39388 9.2222C1.08918 8.9537 0.903616 8.57516 0.878017 8.16985C0.852418 7.76454 0.988878 7.36565 1.25738 7.06095C1.52588 6.75625 1.90442 6.57069 2.30973 6.54509C2.71504 6.5195 3.11393 6.65595 3.41863 6.92445L6.01563 9.21258L10.2576 1.6377C10.3559 1.46224 10.4877 1.30784 10.6456 1.18332C10.8035 1.05881 10.9844 0.966618 11.178 0.912016C11.3715 0.857415 11.5739 0.841471 11.7736 0.865095C11.9733 0.88872 12.1664 0.95145 12.3419 1.0497Z" fill="#E42E35"/>
  </g>
  <defs>
    <clipPath id="clip0_1401_1751">
      <rect width="14" height="14" fill="white"/>
    </clipPath>
  </defs>
</svg>