<svg xmlns="http://www.w3.org/2000/svg" width="55" height="55" viewBox="0 0 55 55" fill="none">
  <g clip-path="url(#clip0_798_624)">
    <path d="M25.2083 45.8333C25.2083 46.4411 25.4498 47.024 25.8795 47.4538C26.3093 47.8836 26.8922 48.125 27.5 48.125C28.1078 48.125 28.6907 47.8836 29.1205 47.4538C29.5502 47.024 29.7917 46.4411 29.7917 45.8333V29.7917H45.8333C46.4411 29.7917 47.024 29.5502 47.4538 29.1205C47.8836 28.6907 48.125 28.1078 48.125 27.5C48.125 26.8922 47.8836 26.3093 47.4538 25.8795C47.024 25.4498 46.4411 25.2083 45.8333 25.2083H29.7917V9.16667C29.7917 8.55888 29.5502 7.97598 29.1205 7.54621C28.6907 7.11644 28.1078 6.875 27.5 6.875C26.8922 6.875 26.3093 7.11644 25.8795 7.54621C25.4498 7.97598 25.2083 8.55888 25.2083 9.16667V25.2083H9.16667C8.55888 25.2083 7.97598 25.4498 7.54621 25.8795C7.11644 26.3093 6.875 26.8922 6.875 27.5C6.875 28.1078 7.11644 28.6907 7.54621 29.1205C7.97598 29.5502 8.55888 29.7917 9.16667 29.7917H25.2083V45.8333Z" fill="#353B42"/>
  </g>
  <defs>
    <clipPath id="clip0_798_624">
      <rect width="55" height="55" fill="white"/>
    </clipPath>
  </defs>
</svg>