<svg xmlns="http://www.w3.org/2000/svg" width="46" height="46" viewBox="0 0 46 46" fill="none">
<path d="M30.5326 21.9592L14.5102 6.69292C14.2429 6.43807 13.8877 6.2959 13.5184 6.2959C13.149 6.2959 12.7938 6.43807 12.5265 6.69292L12.5092 6.71017C12.3792 6.83372 12.2756 6.98243 12.2049 7.14727C12.1341 7.3121 12.0976 7.4896 12.0976 7.66898C12.0976 7.84836 12.1341 8.02587 12.2049 8.1907C12.2756 8.35554 12.3792 8.50425 12.5092 8.6278L27.5972 23.0028L12.5092 37.372C12.3792 37.4956 12.2756 37.6443 12.2049 37.8091C12.1341 37.974 12.0976 38.1515 12.0976 38.3309C12.0976 38.5102 12.1341 38.6877 12.2049 38.8526C12.2756 39.0174 12.3792 39.1661 12.5092 39.2897L12.5265 39.3069C12.7938 39.5618 13.149 39.704 13.5184 39.704C13.8877 39.704 14.2429 39.5618 14.5102 39.3069L30.5326 24.0407C30.6735 23.9064 30.7857 23.7449 30.8623 23.5661C30.939 23.3872 30.9785 23.1946 30.9785 22.9999C30.9785 22.8053 30.939 22.6127 30.8623 22.4338C30.7857 22.2549 30.6735 22.0934 30.5326 21.9592Z" fill="#353B42"/>
</svg>