<svg xmlns="http://www.w3.org/2000/svg" width="68" height="25" viewBox="0 0 68 25" fill="none">
  <path d="M16.1425 4.56684C19.3453 5.03782 22.54 5.5088 25.7408 5.97978C25.6824 6.08194 25.5944 6.03801 25.5228 6.03801C24.4873 6.02881 23.4497 6.0421 22.4162 5.99817C21.2394 5.9481 20.0636 5.94913 18.8879 5.97365C17.2138 6.00838 15.5387 6.01145 13.8667 6.11974C12.6562 6.19841 11.4446 6.2689 10.2402 6.41806C9.0266 6.56824 7.81504 6.72149 6.63827 7.08111C4.43823 7.75232 2.66694 9.01405 1.33566 10.8847C0.846532 11.5712 0.437222 12.3037 0.156844 13.1027C0.127169 13.1854 0.0954476 13.2651 0.00232955 13.3652C-0.0621368 10.2431 1.21184 7.86368 3.76901 6.12383C3.76798 5.78771 3.50602 5.51084 3.48863 5.15735C3.96957 5.09401 4.4546 5.11036 4.93554 5.05315C6.02533 4.92442 7.10591 4.73542 8.18649 4.54948C10.4049 4.16738 12.5282 3.45121 14.6536 2.73606C16.2468 2.1997 17.8534 1.70829 19.4886 1.31802C20.7646 1.01357 22.0529 0.768379 23.3545 0.580397C25.6876 0.242233 28.0329 0.148242 30.3864 0.217714C31.6758 0.255515 32.9569 0.396501 34.2299 0.607981C36.1434 0.925712 38.016 1.40384 39.8497 2.03726C42.5951 2.98534 45.2117 4.20314 47.6552 5.77749C47.9223 5.95015 48.1873 6.02881 48.5087 6.03699C49.7601 6.0707 51.0075 6.16776 52.2528 6.29955C53.0141 6.38026 53.7744 6.46097 54.5327 6.56109C55.5437 6.6939 56.5495 6.85941 57.5513 7.05148C58.8785 7.30587 60.1924 7.62053 61.4807 8.02919C63.0668 8.53286 64.5935 9.1673 65.9064 10.2216C66.7424 10.8939 67.4413 11.6785 67.8353 12.695C67.9171 12.9055 67.998 13.1211 68 13.3877C67.782 13.117 67.6623 12.8217 67.4699 12.5724C66.6656 11.5314 65.627 10.7856 64.4799 10.1757C63.2776 9.53611 61.9934 9.13154 60.66 8.86898C59.0197 8.54512 57.3661 8.32751 55.7033 8.14974C54.0395 7.97096 52.3705 7.86368 50.7026 7.74211C49.8491 7.67979 48.9927 7.66651 48.1372 7.62871C47.8691 7.61747 47.601 7.59499 47.3329 7.58784C47.1825 7.58375 47.0669 7.51224 46.9461 7.43868C45.5186 6.57233 44.0635 5.75604 42.5604 5.02863C40.8607 4.2062 39.1201 3.48901 37.3099 2.93835C36.0759 2.5634 34.8244 2.27428 33.5545 2.06689C32.6857 1.9259 31.8068 1.86051 30.9278 1.80126C29.5586 1.70829 28.1925 1.77674 26.8326 1.90751C25.2199 2.0628 23.6267 2.3509 22.0498 2.72585C20.1394 3.17945 18.2637 3.74953 16.4106 4.39317C16.3205 4.42484 16.1977 4.40951 16.1435 4.56582L16.1425 4.56684Z" fill="#353B42"/>
  <path d="M17.6982 19.9639H14.9292V13.1117H17.6614C17.7268 13.6052 17.6399 14.0894 17.7146 14.5798C18.2559 14.6329 18.7778 14.5992 19.2904 14.5032C19.7816 14.4102 20.0036 14.1211 20.0323 13.6195C20.0446 13.4162 20.0323 13.2149 19.9637 13.0157C19.8471 12.6775 19.625 12.4967 19.2669 12.4568C18.9087 12.417 18.5526 12.4364 18.1955 12.4364C16.3792 12.4374 14.5629 12.4364 12.7476 12.4374C12.6094 12.4374 12.4682 12.418 12.3373 12.4589C12.2636 12.5886 12.2973 12.7184 12.2963 12.843C12.2902 13.8647 12.3014 14.8863 12.28 15.9069C12.239 17.8429 11.2086 19.1374 9.46594 19.7136C7.86452 20.2428 6.25798 20.1876 4.73841 19.4265C3.43271 18.7726 2.67446 17.6744 2.62125 16.2052C2.56293 14.5982 2.60181 12.9881 2.59874 11.38C2.59874 11.0746 2.59874 10.7681 2.59874 10.436H5.32577C5.39535 10.5668 5.36056 10.7088 5.36056 10.8447C5.36773 12.3251 5.36363 13.8064 5.37694 15.2868C5.38103 15.7486 5.48643 16.1961 5.69313 16.6139C6.04002 17.3127 6.68673 17.6713 7.51353 17.6376C8.76705 17.5855 9.26026 16.7774 9.43934 15.7772C9.49766 15.4503 9.51097 15.1192 9.5079 14.7862C9.49869 13.4836 9.49664 12.182 9.49255 10.8794C9.49255 10.7395 9.49255 10.5995 9.49255 10.4749C9.58567 10.3625 9.69516 10.4044 9.79032 10.4033C10.5189 10.4003 11.2505 10.3707 11.9771 10.4095C14.5445 10.5474 17.1129 10.4483 19.6813 10.4871C20.4365 10.4984 21.1548 10.6782 21.7626 11.1461C22.6508 11.8306 22.9762 12.7736 22.8473 13.8545C22.7143 14.968 22.1054 15.7567 21.0392 16.1654C20.9328 16.2063 20.8274 16.2461 20.722 16.289C20.7117 16.2931 20.7066 16.3084 20.6851 16.3381C21.4035 17.5262 22.1259 18.7226 22.8698 19.9516H20.2062C19.5585 18.8145 18.8913 17.6437 18.219 16.4637C18.0563 16.4249 17.8947 16.4321 17.6992 16.4607V19.9649L17.6982 19.9639Z" fill="#353B42"/>
  <path d="M53.7805 10.5025H56.5167C56.5914 10.6281 56.5607 10.7456 56.5607 10.857C56.5628 12.4027 56.5648 13.9475 56.5607 15.4932C56.5587 16.0296 56.527 16.5639 56.3847 17.0859C56.047 18.3334 55.2489 19.1905 54.068 19.6574C52.3612 20.3327 50.6411 20.3103 48.9834 19.4991C47.781 18.9106 47.0872 17.9094 46.8938 16.5721C46.8458 16.2421 46.8355 15.9121 46.8355 15.58C46.8365 14.022 46.8355 12.464 46.8376 10.906C46.8376 10.7814 46.811 10.6516 46.8744 10.5066H49.5636C49.627 10.6404 49.5994 10.7691 49.5994 10.8938C49.6014 12.2097 49.5953 13.5245 49.6035 14.8404C49.6076 15.3747 49.6454 15.909 49.8306 16.4198C50.284 17.6662 51.8209 18.1342 52.8964 17.3485C53.2515 17.089 53.449 16.7212 53.583 16.3146C53.7119 15.9223 53.7467 15.5177 53.7457 15.107C53.7426 13.7145 53.7426 12.3231 53.7457 10.9306C53.7457 10.7937 53.7181 10.6516 53.7805 10.5015V10.5025Z" fill="#353B42"/>
  <path d="M43.1356 15.963V10.5084H45.8769V19.975C45.4492 19.975 45.0184 19.975 44.5886 19.975C44.3461 19.975 44.1005 19.9535 43.8601 19.9801C43.5582 20.0128 43.3689 19.8922 43.1867 19.6613C40.8363 16.6894 38.4776 13.7246 36.1221 10.7577C36.0678 10.6893 35.9941 10.631 35.9727 10.4849C36.0658 10.4849 36.1579 10.4849 36.25 10.4849C36.9274 10.4849 37.6058 10.4921 38.2832 10.4778C38.5104 10.4727 38.6495 10.5513 38.7928 10.7281C40.1394 12.3944 41.4973 14.0515 42.8521 15.7106C42.9227 15.7975 42.979 15.9017 43.1346 15.9619L43.1356 15.963Z" fill="#353B42"/>
  <path d="M64.0196 10.3481V12.374C63.9245 12.47 63.816 12.4342 63.7188 12.4342C62.8367 12.4373 61.9546 12.4363 61.0716 12.4363C60.9692 12.4363 60.8669 12.4363 60.7646 12.4414C60.5098 12.4567 60.2652 12.5139 60.1926 12.7969C60.1209 13.0748 60.1967 13.3302 60.4208 13.5233C60.5855 13.6653 60.7758 13.7685 60.9692 13.8686C61.5464 14.168 62.1214 14.4704 62.6904 14.785C63.0496 14.9832 63.3606 15.2458 63.6533 15.5349C64.5814 16.4534 64.5313 18.5774 63.1007 19.4917C62.4694 19.8953 61.7694 20.0874 61.0357 20.1078C59.9245 20.1384 58.8111 20.116 57.6988 20.1139C57.663 20.1139 57.6262 20.0996 57.5668 20.0863V18.039C57.6743 17.9623 57.793 17.995 57.9045 17.995C58.8511 17.992 59.7966 17.994 60.7431 17.991C61.1596 17.9899 61.3366 17.8857 61.4451 17.5925C61.5545 17.2962 61.4502 16.9765 61.1616 16.7486C60.828 16.4851 60.4382 16.3206 60.0514 16.1561C59.5796 15.9558 59.1325 15.7147 58.7129 15.4256C57.6129 14.6676 57.1933 13.3752 57.6497 12.1216C57.9976 11.1664 58.7579 10.7026 59.6983 10.4696C60.2008 10.345 60.7144 10.3624 61.224 10.3521C62.0805 10.3358 62.937 10.347 63.7945 10.347C63.8559 10.347 63.9183 10.347 64.0196 10.347V10.3481Z" fill="#353B42"/>
  <path d="M32.1405 19.9528C31.8949 19.3286 31.6493 18.7033 31.3956 18.0597H28.1426C28.3513 17.4702 28.5642 16.9298 28.8057 16.3812H30.7458C29.9845 14.4033 29.2385 12.4642 28.4813 10.4985H30.9597C32.3001 13.636 33.6427 16.7796 34.9985 19.9528H32.1405Z" fill="#353B42"/>
  <path d="M26.6785 19.9641H23.8164C25.1477 16.8562 26.4698 13.7719 27.8195 10.6201C28.1592 11.5028 28.4334 12.3242 28.7905 13.1088C29.0433 13.6636 29.0044 14.1376 28.7742 14.6903C28.0507 16.4282 27.3795 18.1884 26.6785 19.9651V19.9641Z" fill="#353B42"/>
  <path d="M35.9336 19.9514V11.6362C36.1731 11.7956 36.2918 12.0398 36.4545 12.2421C37.1513 13.1064 37.8369 13.9799 38.5297 14.8483C38.6269 14.9709 38.6934 15.0894 38.6924 15.259C38.6842 16.7914 38.6873 18.3239 38.6863 19.8553C38.6863 19.8799 38.677 19.9034 38.6668 19.9514H35.9326H35.9336Z" fill="#353B42"/>
  <path d="M23.2488 24.7637C23.0554 24.8465 22.9777 24.7545 22.8897 24.6493C22.5285 24.2212 22.1591 23.8003 21.7538 23.3314V24.3612C21.803 24.5134 22.1335 24.4215 22.0158 24.7106H21.1563C21.1082 24.6105 21.0908 24.5185 21.2146 24.494C21.3977 24.4593 21.4264 24.3367 21.4264 24.1855C21.4264 23.8412 21.4233 23.4959 21.4305 23.1516C21.4336 22.9932 21.3957 22.8706 21.2289 22.8318C21.0897 22.8001 21.0816 22.7194 21.1245 22.6101C21.4929 22.5161 21.7764 22.5958 22.0178 22.9197C22.2819 23.2731 22.6042 23.5827 22.9562 23.973C22.946 23.5725 22.9726 23.2486 22.9194 22.9278C22.8672 22.7746 22.5346 22.9064 22.6206 22.606C22.9142 22.56 23.2141 22.5743 23.5047 22.5958C23.5466 22.6959 23.5569 22.793 23.4668 22.8093C23.2284 22.8512 23.2519 23.0239 23.2509 23.1873C23.2488 23.7094 23.2509 24.2314 23.2509 24.7637H23.2488Z" fill="#353B42"/>
  <path d="M18.8922 24.6497C18.8636 24.6967 18.8216 24.7222 18.7674 24.7222C18.2353 24.7222 17.7022 24.7222 17.1711 24.7222C17.1663 24.5894 17.2543 24.4794 17.4351 24.3922C17.4351 23.9601 17.433 23.5167 17.4361 23.0733C17.4361 22.9486 17.4208 22.8506 17.2724 22.8169C17.1475 22.7893 17.1762 22.6963 17.212 22.588C17.7124 22.588 18.2189 22.587 18.7254 22.5911C18.7541 22.5911 18.7817 22.634 18.8104 22.6565C18.881 22.7382 18.9035 22.8342 18.8994 22.9394C18.8861 23.2194 18.7469 23.297 18.5044 23.156C18.4287 23.1121 18.3673 23.0426 18.2762 23.0242C18.1995 23.0089 18.1227 23.0059 18.0624 23.0651C18.0235 23.1039 18.0173 23.156 18.0429 23.2041C18.0869 23.2878 18.1667 23.2776 18.2425 23.2705C18.268 23.2684 18.2926 23.2602 18.3172 23.2541C18.4839 23.2102 18.6763 23.1673 18.7183 23.3931C18.7613 23.6229 18.8728 23.909 18.5116 24.0193C18.3294 24.0428 18.223 23.6852 17.9989 23.9182C17.9938 23.9499 17.9877 23.9805 17.9846 24.0122C17.9825 24.1583 17.9529 24.3176 18.1749 24.3289C18.3397 24.3575 18.4717 24.3084 18.5781 24.1787C18.6733 24.0622 18.7786 23.908 18.9475 24.0316C19.0887 24.1337 19.0478 24.3033 18.9956 24.4484C18.971 24.5189 18.9424 24.5904 18.8922 24.6487V24.6497Z" fill="#353B42"/>
  <path d="M42.4947 24.1108C42.4701 24.3202 42.3985 24.5174 42.2828 24.7013C41.9165 24.7984 41.5573 24.8525 41.1869 24.7371C40.7275 24.5951 40.4113 24.2303 40.3775 23.7808C40.3417 23.2945 40.5842 22.8644 41.014 22.655C41.3885 22.4721 41.6822 22.4588 42.3401 22.5988C42.3985 22.7541 42.4404 22.9236 42.4476 23.1014C42.4507 23.1658 42.4414 23.2301 42.3647 23.2536C42.2767 23.2812 42.2327 23.2414 42.1846 23.1658C41.9441 22.7878 41.8019 22.7214 41.455 22.8031C41.1398 22.8777 40.9331 23.13 40.8963 23.4927C40.8697 23.7532 40.9076 24.0025 41.06 24.2222C41.3343 24.6155 41.8592 24.6206 42.1529 24.2416C42.2307 24.1404 42.2767 23.9177 42.4967 24.1118L42.4947 24.1108Z" fill="#353B42"/>
  <path d="M26.9642 24.3998C27.0624 24.5224 27.3438 24.4223 27.2364 24.7083C26.9038 24.7451 26.5631 24.7226 26.2213 24.7237C26.121 24.457 26.3605 24.5009 26.4751 24.4243V22.9031C26.1701 22.8295 26.1558 22.8357 26.031 23.0737C25.9955 23.1405 25.9194 23.1847 25.8028 23.2065C25.7424 22.9807 25.8059 22.759 25.7956 22.5169C26.4178 22.6007 27.0154 22.6283 27.6406 22.5098C27.7501 22.7182 27.6795 22.947 27.7163 23.183C27.5986 23.2188 27.4932 23.2443 27.4574 23.1136C27.3848 22.85 27.2067 22.8255 26.9652 22.8796V24.3998H26.9642Z" fill="#353B42"/>
  <path fill-rule="evenodd" clip-rule="evenodd" d="M51.0798 24.8019C51.1985 24.8111 51.2363 24.7426 51.2599 24.6149L51.2578 24.616C50.9366 24.4292 50.7766 24.1311 50.6042 23.8102C50.5832 23.7712 50.5621 23.7319 50.5405 23.6924C50.5556 23.6824 50.5706 23.6732 50.5854 23.6643C50.6157 23.6459 50.6447 23.6282 50.6695 23.6056C50.8659 23.4278 50.9539 23.2163 50.8526 22.9558C50.7513 22.6942 50.5262 22.6013 50.2765 22.589C50.0291 22.5769 49.7807 22.5797 49.5344 22.5825C49.4283 22.5837 49.3225 22.5849 49.2174 22.5849C49.2149 22.5958 49.2123 22.6064 49.2097 22.6168C49.1852 22.7165 49.1657 22.7957 49.288 22.8179C49.417 22.8403 49.4456 22.9241 49.4456 23.0385C49.4449 23.3475 49.4452 23.656 49.4454 23.9496C49.4455 24.0909 49.4456 24.2288 49.4456 24.3616C49.414 24.4209 49.3528 24.4475 49.2957 24.4724C49.2014 24.5135 49.1183 24.5496 49.198 24.7202C49.276 24.7209 49.3543 24.7229 49.4325 24.7249C49.6783 24.7311 49.9241 24.7374 50.164 24.7048C50.2326 24.5289 50.1432 24.5022 50.049 24.4741C49.9916 24.457 49.9324 24.4393 49.9061 24.3871C49.8938 24.2185 49.8805 24.0306 49.9173 23.8446C50.032 23.8211 50.0893 23.8732 50.1414 23.959C50.2034 24.0618 50.2695 24.162 50.3357 24.2623C50.3886 24.3426 50.4415 24.4229 50.4924 24.5046C50.6285 24.7232 50.8414 24.7845 51.0798 24.8019ZM49.9094 22.8783V23.572C50.286 23.5383 50.4497 23.3993 50.4231 23.1674C50.3955 22.9335 50.2533 22.8497 49.9094 22.8783Z" fill="#353B42"/>
  <path fill-rule="evenodd" clip-rule="evenodd" d="M14.4453 23.9439C14.4002 23.8659 14.3539 23.7858 14.3029 23.7055L14.3019 23.7045C14.3215 23.69 14.3393 23.6774 14.3558 23.6656C14.3885 23.6424 14.4159 23.623 14.441 23.6013C14.6293 23.4348 14.7122 23.2314 14.6354 22.9852C14.5515 22.7165 14.3264 22.6072 14.0788 22.5909C13.8222 22.5737 13.5646 22.5776 13.3078 22.5814C13.198 22.5831 13.0882 22.5847 12.9788 22.5847C12.9765 22.6014 12.9737 22.6177 12.971 22.6334C12.9552 22.725 12.9426 22.7985 13.0596 22.8177C13.1896 22.8391 13.2131 22.929 13.2131 23.0414V24.3665C13.1791 24.4196 13.1211 24.4456 13.0667 24.4701C12.9704 24.5133 12.8857 24.5514 12.9675 24.7251C13.0874 24.7202 13.2076 24.7229 13.3276 24.7257C13.5323 24.7304 13.7362 24.7351 13.9355 24.7016C13.999 24.5303 13.9108 24.5027 13.8177 24.4736C13.7591 24.4553 13.6986 24.4364 13.6725 24.3808C13.6717 24.3649 13.6707 24.3488 13.6698 24.3325C13.6607 24.1792 13.6507 24.0097 13.6859 23.8444C13.8205 23.8145 13.8707 23.8952 13.9226 23.9784C13.9255 23.9831 13.9285 23.9879 13.9314 23.9926C13.982 24.0731 14.0337 24.153 14.0854 24.2328C14.1445 24.3241 14.2036 24.4153 14.2609 24.5075C14.3981 24.7271 14.6109 24.7884 14.8503 24.8017C14.9916 24.8089 15.0182 24.723 15.0171 24.6056C14.7446 24.4612 14.6022 24.2151 14.4453 23.9439ZM13.6791 22.8708V23.5685C14.0454 23.545 14.2101 23.4132 14.1897 23.1772C14.1692 22.9453 14.0341 22.8605 13.6791 22.8708Z" fill="#353B42"/>
  <path fill-rule="evenodd" clip-rule="evenodd" d="M32.8769 24.7147H33.6628V24.7178C33.7396 24.5613 33.6679 24.5261 33.5895 24.4876C33.5457 24.4661 33.4997 24.4435 33.4766 24.398C33.5139 24.3586 33.5252 24.3057 33.5371 24.2504C33.5528 24.1769 33.5695 24.0991 33.6495 24.0425C33.8183 24.0241 33.9944 24.0139 34.1775 24.0517C34.2451 24.159 34.2901 24.2734 34.3146 24.397C34.3033 24.4368 34.2674 24.4639 34.2316 24.4911C34.167 24.5399 34.1023 24.5889 34.1806 24.7117C34.439 24.7412 34.7115 24.7331 34.9782 24.7251C35.0157 24.724 35.0531 24.7229 35.0903 24.7219C35.1435 24.5983 35.1425 24.5135 35.0238 24.4879C34.8603 24.4527 34.8122 24.3279 34.7618 24.1971L34.7598 24.1917C34.7296 24.1125 34.6976 24.0343 34.6656 23.9561C34.6303 23.8698 34.595 23.7835 34.5623 23.6962C34.4495 23.3953 34.3384 23.0939 34.2308 22.802C34.196 22.7073 34.1615 22.6136 34.1274 22.5213C33.9154 22.491 33.868 22.6128 33.8228 22.7289C33.8176 22.7423 33.8125 22.7556 33.8071 22.7685C33.6219 23.214 33.4408 23.6604 33.2596 24.1069C33.1911 24.2734 33.1235 24.4318 32.923 24.49C32.8073 24.5227 32.8329 24.6177 32.8769 24.7147ZM33.749 23.7002C33.8451 23.7492 33.9424 23.7421 34.0784 23.6981C34.048 23.6444 34.0308 23.5887 34.0143 23.5351C33.9874 23.4481 33.9623 23.3666 33.885 23.3079C33.8267 23.4335 33.7694 23.5592 33.749 23.7002Z" fill="#353B42"/>
  <path fill-rule="evenodd" clip-rule="evenodd" d="M45.4042 24.4773C45.3628 24.4563 45.3196 24.4343 45.2905 24.4001H45.2915C45.3325 24.3574 45.3467 24.3021 45.3615 24.2447C45.3806 24.1704 45.4005 24.0926 45.4808 24.0344C45.5159 24.0331 45.5515 24.0312 45.5871 24.0293C45.7187 24.0222 45.8503 24.0151 45.9566 24.0385C46.1829 24.2126 46.108 24.3743 46.0313 24.54C46.005 24.5969 45.9784 24.6542 45.9638 24.7127C46.0342 24.7151 46.1033 24.7184 46.1713 24.7217C46.4317 24.7343 46.6756 24.746 46.9093 24.6974C46.9482 24.6208 46.9513 24.5432 46.9114 24.5319C46.6606 24.4649 46.5948 24.2674 46.5293 24.0707C46.516 24.0306 46.5026 23.9906 46.4877 23.9516C46.3227 23.5196 46.1593 23.0868 45.9998 22.6642C45.9813 22.6151 45.9628 22.5661 45.9444 22.5172C45.7295 22.4882 45.6806 22.6204 45.6359 22.7411C45.6287 22.7607 45.6215 22.78 45.6138 22.7982C45.5102 23.0453 45.4114 23.2945 45.3126 23.5438C45.2427 23.7202 45.1728 23.8965 45.1012 24.0722C45.0964 24.0839 45.0917 24.0956 45.087 24.1073C45.0209 24.2717 44.9554 24.4347 44.7481 24.49C44.6356 24.5197 44.652 24.6167 44.699 24.7148H45.4829C45.5746 24.5638 45.4939 24.5228 45.4042 24.4773ZM45.6507 23.4438C45.6134 23.5282 45.5769 23.611 45.5722 23.7056C45.6715 23.7465 45.7697 23.7475 45.8863 23.7036C45.8738 23.6682 45.8643 23.6318 45.8547 23.5954C45.8276 23.4922 45.8006 23.389 45.7052 23.3082C45.6898 23.3552 45.6701 23.3997 45.6507 23.4438Z" fill="#353B42"/>
</svg>