<svg xmlns="http://www.w3.org/2000/svg" width="21" height="22" viewBox="0 0 21 22" fill="none">
  <path d="M8.55556 6.93023C8.55556 6.62257 8.64679 6.32182 8.81772 6.06601C8.98864 5.8102 9.23159 5.61082 9.51583 5.49308C9.80007 5.37535 10.1128 5.34454 10.4146 5.40456C10.7163 5.46458 10.9935 5.61274 11.2111 5.83029C11.4286 6.04783 11.5768 6.32501 11.6368 6.62675C11.6968 6.9285 11.666 7.24127 11.5483 7.52551C11.4305 7.80975 11.2311 8.0527 10.9753 8.22363C10.7195 8.39455 10.4188 8.48578 10.1111 8.48578C9.69855 8.48578 9.30289 8.3219 9.01117 8.03017C8.71945 7.73845 8.55556 7.34279 8.55556 6.93023ZM21 11.208C21 13.2847 20.3842 15.3148 19.2304 17.0415C18.0767 18.7682 16.4368 20.114 14.5182 20.9087C12.5996 21.7035 10.4884 21.9114 8.45155 21.5062C6.41475 21.1011 4.54383 20.1011 3.07538 18.6326C1.60693 17.1642 0.606904 15.2933 0.201759 13.2565C-0.203386 11.2197 0.0045495 9.10845 0.799269 7.18983C1.59399 5.27121 2.9398 3.63133 4.66652 2.47758C6.39323 1.32382 8.4233 0.708008 10.5 0.708008C13.2838 0.711096 15.9527 1.81833 17.9212 3.7868C19.8897 5.75526 20.9969 8.42418 21 11.208ZM18.6667 11.208C18.6667 9.59279 18.1877 8.01385 17.2903 6.67085C16.393 5.32785 15.1175 4.28111 13.6252 3.66299C12.133 3.04488 10.4909 2.88315 8.90676 3.19826C7.32259 3.51337 5.86743 4.29117 4.7253 5.4333C3.58317 6.57543 2.80537 8.03059 2.49026 9.61477C2.17515 11.1989 2.33687 12.841 2.95499 14.3333C3.5731 15.8255 4.61985 17.101 5.96285 17.9983C7.30585 18.8957 8.88479 19.3747 10.5 19.3747C12.6652 19.3724 14.7411 18.5112 16.2721 16.9802C17.8032 15.4491 18.6644 13.3732 18.6667 11.208ZM11.6667 14.7741V11.5969C11.6667 11.0812 11.4618 10.5866 11.0972 10.222C10.7325 9.85731 10.2379 9.65245 9.72222 9.65245C9.44671 9.65204 9.17993 9.74915 8.96915 9.92659C8.75837 10.104 8.61719 10.3503 8.57061 10.6219C8.52403 10.8934 8.57506 11.1727 8.71467 11.4102C8.85427 11.6478 9.07343 11.8282 9.33334 11.9197V15.0969C9.33334 15.6126 9.5382 16.1072 9.90285 16.4718C10.2675 16.8365 10.7621 17.0413 11.2778 17.0413C11.5533 17.0417 11.8201 16.9446 12.0309 16.7672C12.2416 16.5898 12.3828 16.3435 12.4294 16.0719C12.476 15.8004 12.4249 15.5211 12.2853 15.2835C12.1457 15.046 11.9266 14.8655 11.6667 14.7741Z" fill="#353B42"/>
  <path d="M8.55556 6.93023C8.55556 6.62257 8.64679 6.32182 8.81772 6.06601C8.98864 5.8102 9.23159 5.61082 9.51583 5.49308C9.80007 5.37535 10.1128 5.34454 10.4146 5.40456C10.7163 5.46458 10.9935 5.61274 11.2111 5.83029C11.4286 6.04783 11.5768 6.32501 11.6368 6.62675C11.6968 6.9285 11.666 7.24127 11.5483 7.52551C11.4305 7.80975 11.2311 8.0527 10.9753 8.22363C10.7195 8.39455 10.4188 8.48578 10.1111 8.48578C9.69855 8.48578 9.30289 8.3219 9.01117 8.03017C8.71945 7.73845 8.55556 7.34279 8.55556 6.93023ZM21 11.208C21 13.2847 20.3842 15.3148 19.2304 17.0415C18.0767 18.7682 16.4368 20.114 14.5182 20.9087C12.5996 21.7035 10.4884 21.9114 8.45155 21.5062C6.41475 21.1011 4.54383 20.1011 3.07538 18.6326C1.60693 17.1642 0.606904 15.2933 0.201759 13.2565C-0.203386 11.2197 0.0045495 9.10845 0.799269 7.18983C1.59399 5.27121 2.9398 3.63133 4.66652 2.47758C6.39323 1.32382 8.4233 0.708008 10.5 0.708008C13.2838 0.711096 15.9527 1.81833 17.9212 3.7868C19.8897 5.75526 20.9969 8.42418 21 11.208ZM18.6667 11.208C18.6667 9.59279 18.1877 8.01385 17.2903 6.67085C16.393 5.32785 15.1175 4.28111 13.6252 3.66299C12.133 3.04488 10.4909 2.88315 8.90676 3.19826C7.32259 3.51337 5.86743 4.29117 4.7253 5.4333C3.58317 6.57543 2.80537 8.03059 2.49026 9.61477C2.17515 11.1989 2.33687 12.841 2.95499 14.3333C3.5731 15.8255 4.61985 17.101 5.96285 17.9983C7.30585 18.8957 8.88479 19.3747 10.5 19.3747C12.6652 19.3724 14.7411 18.5112 16.2721 16.9802C17.8032 15.4491 18.6644 13.3732 18.6667 11.208ZM11.6667 14.7741V11.5969C11.6667 11.0812 11.4618 10.5866 11.0972 10.222C10.7325 9.85731 10.2379 9.65245 9.72222 9.65245C9.44671 9.65204 9.17993 9.74915 8.96915 9.92659C8.75837 10.104 8.61719 10.3503 8.57061 10.6219C8.52403 10.8934 8.57506 11.1727 8.71467 11.4102C8.85427 11.6478 9.07343 11.8282 9.33334 11.9197V15.0969C9.33334 15.6126 9.5382 16.1072 9.90285 16.4718C10.2675 16.8365 10.7621 17.0413 11.2778 17.0413C11.5533 17.0417 11.8201 16.9446 12.0309 16.7672C12.2416 16.5898 12.3828 16.3435 12.4294 16.0719C12.476 15.8004 12.4249 15.5211 12.2853 15.2835C12.1457 15.046 11.9266 14.8655 11.6667 14.7741Z" fill="black" fill-opacity="0.2"/>
  <path d="M8.55556 6.93023C8.55556 6.62257 8.64679 6.32182 8.81772 6.06601C8.98864 5.8102 9.23159 5.61082 9.51583 5.49308C9.80007 5.37535 10.1128 5.34454 10.4146 5.40456C10.7163 5.46458 10.9935 5.61274 11.2111 5.83029C11.4286 6.04783 11.5768 6.32501 11.6368 6.62675C11.6968 6.9285 11.666 7.24127 11.5483 7.52551C11.4305 7.80975 11.2311 8.0527 10.9753 8.22363C10.7195 8.39455 10.4188 8.48578 10.1111 8.48578C9.69855 8.48578 9.30289 8.3219 9.01117 8.03017C8.71945 7.73845 8.55556 7.34279 8.55556 6.93023ZM21 11.208C21 13.2847 20.3842 15.3148 19.2304 17.0415C18.0767 18.7682 16.4368 20.114 14.5182 20.9087C12.5996 21.7035 10.4884 21.9114 8.45155 21.5062C6.41475 21.1011 4.54383 20.1011 3.07538 18.6326C1.60693 17.1642 0.606904 15.2933 0.201759 13.2565C-0.203386 11.2197 0.0045495 9.10845 0.799269 7.18983C1.59399 5.27121 2.9398 3.63133 4.66652 2.47758C6.39323 1.32382 8.4233 0.708008 10.5 0.708008C13.2838 0.711096 15.9527 1.81833 17.9212 3.7868C19.8897 5.75526 20.9969 8.42418 21 11.208ZM18.6667 11.208C18.6667 9.59279 18.1877 8.01385 17.2903 6.67085C16.393 5.32785 15.1175 4.28111 13.6252 3.66299C12.133 3.04488 10.4909 2.88315 8.90676 3.19826C7.32259 3.51337 5.86743 4.29117 4.7253 5.4333C3.58317 6.57543 2.80537 8.03059 2.49026 9.61477C2.17515 11.1989 2.33687 12.841 2.95499 14.3333C3.5731 15.8255 4.61985 17.101 5.96285 17.9983C7.30585 18.8957 8.88479 19.3747 10.5 19.3747C12.6652 19.3724 14.7411 18.5112 16.2721 16.9802C17.8032 15.4491 18.6644 13.3732 18.6667 11.208ZM11.6667 14.7741V11.5969C11.6667 11.0812 11.4618 10.5866 11.0972 10.222C10.7325 9.85731 10.2379 9.65245 9.72222 9.65245C9.44671 9.65204 9.17993 9.74915 8.96915 9.92659C8.75837 10.104 8.61719 10.3503 8.57061 10.6219C8.52403 10.8934 8.57506 11.1727 8.71467 11.4102C8.85427 11.6478 9.07343 11.8282 9.33334 11.9197V15.0969C9.33334 15.6126 9.5382 16.1072 9.90285 16.4718C10.2675 16.8365 10.7621 17.0413 11.2778 17.0413C11.5533 17.0417 11.8201 16.9446 12.0309 16.7672C12.2416 16.5898 12.3828 16.3435 12.4294 16.0719C12.476 15.8004 12.4249 15.5211 12.2853 15.2835C12.1457 15.046 11.9266 14.8655 11.6667 14.7741Z" fill="black" fill-opacity="0.2"/>
</svg>