<svg xmlns="http://www.w3.org/2000/svg" width="68" height="26" viewBox="0 0 68 26" fill="none">
  <path d="M16.1425 5.13227C19.3453 5.60325 22.54 6.07423 25.7408 6.54521C25.6824 6.64737 25.5944 6.60344 25.5228 6.60344C24.4873 6.59424 23.4497 6.60753 22.4162 6.56359C21.2394 6.51353 20.0636 6.51456 18.8879 6.53907C17.2138 6.57381 15.5387 6.57688 13.8667 6.68517C12.6562 6.76384 11.4446 6.83433 10.2402 6.98349C9.0266 7.13367 7.81504 7.28692 6.63827 7.64653C4.43823 8.31775 2.66694 9.57948 1.33566 11.4501C0.846532 12.1367 0.437222 12.8692 0.156844 13.6681C0.127169 13.7508 0.0954476 13.8305 0.00232955 13.9307C-0.0621368 10.8085 1.21184 8.42911 3.76901 6.68926C3.76798 6.35314 3.50602 6.07627 3.48863 5.72278C3.96957 5.65944 4.4546 5.67579 4.93554 5.61858C6.02533 5.48985 7.10591 5.30085 8.18649 5.11491C10.4049 4.73281 12.5282 4.01664 14.6536 3.30149C16.2468 2.76513 17.8534 2.27372 19.4886 1.88345C20.7646 1.579 22.0529 1.33381 23.3545 1.14583C25.6876 0.807663 28.0329 0.713672 30.3864 0.783144C31.6758 0.820944 32.9569 0.961931 34.2299 1.17341C36.1434 1.49114 38.016 1.96927 39.8497 2.60269C42.5951 3.55077 45.2117 4.76857 47.6552 6.34292C47.9223 6.51558 48.1873 6.59424 48.5087 6.60242C49.7601 6.63613 51.0075 6.73319 52.2528 6.86498C53.0141 6.94569 53.7744 7.0264 54.5327 7.12652C55.5437 7.25933 56.5495 7.42484 57.5513 7.61691C58.8785 7.8713 60.1924 8.18596 61.4807 8.59462C63.0668 9.09829 64.5935 9.73273 65.9064 10.7871C66.7424 11.4593 67.4413 12.2439 67.8353 13.2605C67.9171 13.4709 67.998 13.6865 68 13.9531C67.782 13.6824 67.6623 13.3871 67.4699 13.1379C66.6656 12.0968 65.627 11.351 64.4799 10.7411C63.2776 10.1015 61.9934 9.69697 60.66 9.43441C59.0197 9.11055 57.3661 8.89294 55.7033 8.71517C54.0395 8.53639 52.3705 8.42911 50.7026 8.30754C49.8491 8.24522 48.9927 8.23194 48.1372 8.19414C47.8691 8.1829 47.601 8.16042 47.3329 8.15327C47.1825 8.14918 47.0669 8.07767 46.9461 8.00411C45.5186 7.13776 44.0635 6.32147 42.5604 5.59406C40.8607 4.77163 39.1201 4.05444 37.3099 3.50378C36.0759 3.12883 34.8244 2.83971 33.5545 2.63232C32.6857 2.49133 31.8068 2.42594 30.9278 2.36669C29.5586 2.27372 28.1925 2.34217 26.8326 2.47294C25.2199 2.62823 23.6267 2.91633 22.0498 3.29128C20.1394 3.74488 18.2637 4.31496 16.4106 4.95859C16.3205 4.99027 16.1977 4.97494 16.1435 5.13125L16.1425 5.13227Z" fill="#353B42"/>
  <path d="M16.1425 5.13227C19.3453 5.60325 22.54 6.07423 25.7408 6.54521C25.6824 6.64737 25.5944 6.60344 25.5228 6.60344C24.4873 6.59424 23.4497 6.60753 22.4162 6.56359C21.2394 6.51353 20.0636 6.51456 18.8879 6.53907C17.2138 6.57381 15.5387 6.57688 13.8667 6.68517C12.6562 6.76384 11.4446 6.83433 10.2402 6.98349C9.0266 7.13367 7.81504 7.28692 6.63827 7.64653C4.43823 8.31775 2.66694 9.57948 1.33566 11.4501C0.846532 12.1367 0.437222 12.8692 0.156844 13.6681C0.127169 13.7508 0.0954476 13.8305 0.00232955 13.9307C-0.0621368 10.8085 1.21184 8.42911 3.76901 6.68926C3.76798 6.35314 3.50602 6.07627 3.48863 5.72278C3.96957 5.65944 4.4546 5.67579 4.93554 5.61858C6.02533 5.48985 7.10591 5.30085 8.18649 5.11491C10.4049 4.73281 12.5282 4.01664 14.6536 3.30149C16.2468 2.76513 17.8534 2.27372 19.4886 1.88345C20.7646 1.579 22.0529 1.33381 23.3545 1.14583C25.6876 0.807663 28.0329 0.713672 30.3864 0.783144C31.6758 0.820944 32.9569 0.961931 34.2299 1.17341C36.1434 1.49114 38.016 1.96927 39.8497 2.60269C42.5951 3.55077 45.2117 4.76857 47.6552 6.34292C47.9223 6.51558 48.1873 6.59424 48.5087 6.60242C49.7601 6.63613 51.0075 6.73319 52.2528 6.86498C53.0141 6.94569 53.7744 7.0264 54.5327 7.12652C55.5437 7.25933 56.5495 7.42484 57.5513 7.61691C58.8785 7.8713 60.1924 8.18596 61.4807 8.59462C63.0668 9.09829 64.5935 9.73273 65.9064 10.7871C66.7424 11.4593 67.4413 12.2439 67.8353 13.2605C67.9171 13.4709 67.998 13.6865 68 13.9531C67.782 13.6824 67.6623 13.3871 67.4699 13.1379C66.6656 12.0968 65.627 11.351 64.4799 10.7411C63.2776 10.1015 61.9934 9.69697 60.66 9.43441C59.0197 9.11055 57.3661 8.89294 55.7033 8.71517C54.0395 8.53639 52.3705 8.42911 50.7026 8.30754C49.8491 8.24522 48.9927 8.23194 48.1372 8.19414C47.8691 8.1829 47.601 8.16042 47.3329 8.15327C47.1825 8.14918 47.0669 8.07767 46.9461 8.00411C45.5186 7.13776 44.0635 6.32147 42.5604 5.59406C40.8607 4.77163 39.1201 4.05444 37.3099 3.50378C36.0759 3.12883 34.8244 2.83971 33.5545 2.63232C32.6857 2.49133 31.8068 2.42594 30.9278 2.36669C29.5586 2.27372 28.1925 2.34217 26.8326 2.47294C25.2199 2.62823 23.6267 2.91633 22.0498 3.29128C20.1394 3.74488 18.2637 4.31496 16.4106 4.95859C16.3205 4.99027 16.1977 4.97494 16.1435 5.13125L16.1425 5.13227Z" fill="black" fill-opacity="0.2"/>
  <path d="M16.1425 5.13227C19.3453 5.60325 22.54 6.07423 25.7408 6.54521C25.6824 6.64737 25.5944 6.60344 25.5228 6.60344C24.4873 6.59424 23.4497 6.60753 22.4162 6.56359C21.2394 6.51353 20.0636 6.51456 18.8879 6.53907C17.2138 6.57381 15.5387 6.57688 13.8667 6.68517C12.6562 6.76384 11.4446 6.83433 10.2402 6.98349C9.0266 7.13367 7.81504 7.28692 6.63827 7.64653C4.43823 8.31775 2.66694 9.57948 1.33566 11.4501C0.846532 12.1367 0.437222 12.8692 0.156844 13.6681C0.127169 13.7508 0.0954476 13.8305 0.00232955 13.9307C-0.0621368 10.8085 1.21184 8.42911 3.76901 6.68926C3.76798 6.35314 3.50602 6.07627 3.48863 5.72278C3.96957 5.65944 4.4546 5.67579 4.93554 5.61858C6.02533 5.48985 7.10591 5.30085 8.18649 5.11491C10.4049 4.73281 12.5282 4.01664 14.6536 3.30149C16.2468 2.76513 17.8534 2.27372 19.4886 1.88345C20.7646 1.579 22.0529 1.33381 23.3545 1.14583C25.6876 0.807663 28.0329 0.713672 30.3864 0.783144C31.6758 0.820944 32.9569 0.961931 34.2299 1.17341C36.1434 1.49114 38.016 1.96927 39.8497 2.60269C42.5951 3.55077 45.2117 4.76857 47.6552 6.34292C47.9223 6.51558 48.1873 6.59424 48.5087 6.60242C49.7601 6.63613 51.0075 6.73319 52.2528 6.86498C53.0141 6.94569 53.7744 7.0264 54.5327 7.12652C55.5437 7.25933 56.5495 7.42484 57.5513 7.61691C58.8785 7.8713 60.1924 8.18596 61.4807 8.59462C63.0668 9.09829 64.5935 9.73273 65.9064 10.7871C66.7424 11.4593 67.4413 12.2439 67.8353 13.2605C67.9171 13.4709 67.998 13.6865 68 13.9531C67.782 13.6824 67.6623 13.3871 67.4699 13.1379C66.6656 12.0968 65.627 11.351 64.4799 10.7411C63.2776 10.1015 61.9934 9.69697 60.66 9.43441C59.0197 9.11055 57.3661 8.89294 55.7033 8.71517C54.0395 8.53639 52.3705 8.42911 50.7026 8.30754C49.8491 8.24522 48.9927 8.23194 48.1372 8.19414C47.8691 8.1829 47.601 8.16042 47.3329 8.15327C47.1825 8.14918 47.0669 8.07767 46.9461 8.00411C45.5186 7.13776 44.0635 6.32147 42.5604 5.59406C40.8607 4.77163 39.1201 4.05444 37.3099 3.50378C36.0759 3.12883 34.8244 2.83971 33.5545 2.63232C32.6857 2.49133 31.8068 2.42594 30.9278 2.36669C29.5586 2.27372 28.1925 2.34217 26.8326 2.47294C25.2199 2.62823 23.6267 2.91633 22.0498 3.29128C20.1394 3.74488 18.2637 4.31496 16.4106 4.95859C16.3205 4.99027 16.1977 4.97494 16.1435 5.13125L16.1425 5.13227Z" fill="black" fill-opacity="0.2"/>
  <path d="M17.6992 20.5293H14.9302V13.6771H17.6623C17.7278 14.1706 17.6408 14.6549 17.7155 15.1452C18.2569 15.1984 18.7787 15.1647 19.2914 15.0686C19.7826 14.9757 20.0046 14.6865 20.0333 14.1849C20.0455 13.9816 20.0333 13.7803 19.9647 13.5811C19.848 13.2429 19.626 13.0621 19.2679 13.0223C18.9097 12.9824 18.5536 13.0018 18.1965 13.0018C16.3802 13.0029 14.5639 13.0018 12.7486 13.0029C12.6104 13.0029 12.4692 12.9835 12.3382 13.0243C12.2646 13.1541 12.2983 13.2838 12.2973 13.4085C12.2912 14.4301 12.3024 15.4517 12.2809 16.4724C12.24 18.4084 11.2096 19.7028 9.46692 20.279C7.86549 20.8082 6.25895 20.753 4.73939 19.9919C3.43369 19.3381 2.67544 18.2398 2.62223 16.7707C2.5639 15.1636 2.60279 13.5535 2.59972 11.9455C2.59972 11.64 2.59972 11.3335 2.59972 11.0015H5.32675C5.39633 11.1322 5.36154 11.2742 5.36154 11.4101C5.3687 12.8905 5.36461 14.3719 5.37791 15.8522C5.382 16.314 5.4874 16.7615 5.6941 17.1793C6.04099 17.8781 6.6877 18.2367 7.51451 18.203C8.76802 18.1509 9.26124 17.3428 9.44031 16.3426C9.49864 16.0157 9.51194 15.6847 9.50887 15.3516C9.49966 14.049 9.49762 12.7475 9.49352 11.4449C9.49352 11.3049 9.49352 11.1649 9.49352 11.0403C9.58664 10.9279 9.69613 10.9698 9.7913 10.9688C10.5199 10.9657 11.2515 10.9361 11.978 10.9749C14.5454 11.1128 17.1139 11.0137 19.6823 11.0525C20.4375 11.0638 21.1558 11.2436 21.7636 11.7115C22.6518 12.396 22.9772 13.339 22.8483 14.4199C22.7153 15.5335 22.1064 16.3222 21.0402 16.7308C20.9337 16.7717 20.8283 16.8115 20.7229 16.8545C20.7127 16.8585 20.7076 16.8739 20.6861 16.9035C21.4044 18.0917 22.1269 19.288 22.8708 20.517H20.2072C19.5595 19.38 18.8923 18.2092 18.22 17.0292C18.0573 16.9903 17.8956 16.9975 17.7002 17.0261V20.5303L17.6992 20.5293Z" fill="#353B42"/>
  <path d="M17.6992 20.5293H14.9302V13.6771H17.6623C17.7278 14.1706 17.6408 14.6549 17.7155 15.1452C18.2569 15.1984 18.7787 15.1647 19.2914 15.0686C19.7826 14.9757 20.0046 14.6865 20.0333 14.1849C20.0455 13.9816 20.0333 13.7803 19.9647 13.5811C19.848 13.2429 19.626 13.0621 19.2679 13.0223C18.9097 12.9824 18.5536 13.0018 18.1965 13.0018C16.3802 13.0029 14.5639 13.0018 12.7486 13.0029C12.6104 13.0029 12.4692 12.9835 12.3382 13.0243C12.2646 13.1541 12.2983 13.2838 12.2973 13.4085C12.2912 14.4301 12.3024 15.4517 12.2809 16.4724C12.24 18.4084 11.2096 19.7028 9.46692 20.279C7.86549 20.8082 6.25895 20.753 4.73939 19.9919C3.43369 19.3381 2.67544 18.2398 2.62223 16.7707C2.5639 15.1636 2.60279 13.5535 2.59972 11.9455C2.59972 11.64 2.59972 11.3335 2.59972 11.0015H5.32675C5.39633 11.1322 5.36154 11.2742 5.36154 11.4101C5.3687 12.8905 5.36461 14.3719 5.37791 15.8522C5.382 16.314 5.4874 16.7615 5.6941 17.1793C6.04099 17.8781 6.6877 18.2367 7.51451 18.203C8.76802 18.1509 9.26124 17.3428 9.44031 16.3426C9.49864 16.0157 9.51194 15.6847 9.50887 15.3516C9.49966 14.049 9.49762 12.7475 9.49352 11.4449C9.49352 11.3049 9.49352 11.1649 9.49352 11.0403C9.58664 10.9279 9.69613 10.9698 9.7913 10.9688C10.5199 10.9657 11.2515 10.9361 11.978 10.9749C14.5454 11.1128 17.1139 11.0137 19.6823 11.0525C20.4375 11.0638 21.1558 11.2436 21.7636 11.7115C22.6518 12.396 22.9772 13.339 22.8483 14.4199C22.7153 15.5335 22.1064 16.3222 21.0402 16.7308C20.9337 16.7717 20.8283 16.8115 20.7229 16.8545C20.7127 16.8585 20.7076 16.8739 20.6861 16.9035C21.4044 18.0917 22.1269 19.288 22.8708 20.517H20.2072C19.5595 19.38 18.8923 18.2092 18.22 17.0292C18.0573 16.9903 17.8956 16.9975 17.7002 17.0261V20.5303L17.6992 20.5293Z" fill="black" fill-opacity="0.2"/>
  <path d="M17.6992 20.5293H14.9302V13.6771H17.6623C17.7278 14.1706 17.6408 14.6549 17.7155 15.1452C18.2569 15.1984 18.7787 15.1647 19.2914 15.0686C19.7826 14.9757 20.0046 14.6865 20.0333 14.1849C20.0455 13.9816 20.0333 13.7803 19.9647 13.5811C19.848 13.2429 19.626 13.0621 19.2679 13.0223C18.9097 12.9824 18.5536 13.0018 18.1965 13.0018C16.3802 13.0029 14.5639 13.0018 12.7486 13.0029C12.6104 13.0029 12.4692 12.9835 12.3382 13.0243C12.2646 13.1541 12.2983 13.2838 12.2973 13.4085C12.2912 14.4301 12.3024 15.4517 12.2809 16.4724C12.24 18.4084 11.2096 19.7028 9.46692 20.279C7.86549 20.8082 6.25895 20.753 4.73939 19.9919C3.43369 19.3381 2.67544 18.2398 2.62223 16.7707C2.5639 15.1636 2.60279 13.5535 2.59972 11.9455C2.59972 11.64 2.59972 11.3335 2.59972 11.0015H5.32675C5.39633 11.1322 5.36154 11.2742 5.36154 11.4101C5.3687 12.8905 5.36461 14.3719 5.37791 15.8522C5.382 16.314 5.4874 16.7615 5.6941 17.1793C6.04099 17.8781 6.6877 18.2367 7.51451 18.203C8.76802 18.1509 9.26124 17.3428 9.44031 16.3426C9.49864 16.0157 9.51194 15.6847 9.50887 15.3516C9.49966 14.049 9.49762 12.7475 9.49352 11.4449C9.49352 11.3049 9.49352 11.1649 9.49352 11.0403C9.58664 10.9279 9.69613 10.9698 9.7913 10.9688C10.5199 10.9657 11.2515 10.9361 11.978 10.9749C14.5454 11.1128 17.1139 11.0137 19.6823 11.0525C20.4375 11.0638 21.1558 11.2436 21.7636 11.7115C22.6518 12.396 22.9772 13.339 22.8483 14.4199C22.7153 15.5335 22.1064 16.3222 21.0402 16.7308C20.9337 16.7717 20.8283 16.8115 20.7229 16.8545C20.7127 16.8585 20.7076 16.8739 20.6861 16.9035C21.4044 18.0917 22.1269 19.288 22.8708 20.517H20.2072C19.5595 19.38 18.8923 18.2092 18.22 17.0292C18.0573 16.9903 17.8956 16.9975 17.7002 17.0261V20.5303L17.6992 20.5293Z" fill="black" fill-opacity="0.2"/>
  <path d="M53.7805 11.0679H56.5167C56.5914 11.1936 56.5607 11.3111 56.5607 11.4224C56.5628 12.9682 56.5648 14.5129 56.5607 16.0586C56.5587 16.595 56.527 17.1293 56.3847 17.6514C56.047 18.8988 55.2489 19.756 54.068 20.2229C52.3612 20.8982 50.6411 20.8757 48.9834 20.0645C47.781 19.476 47.0872 18.4748 46.8938 17.1375C46.8458 16.8075 46.8355 16.4775 46.8355 16.1455C46.8365 14.5875 46.8355 13.0295 46.8376 11.4715C46.8376 11.3468 46.811 11.2171 46.8744 11.072H49.5636C49.627 11.2058 49.5994 11.3346 49.5994 11.4592C49.6014 12.7751 49.5953 14.0899 49.6035 15.4058C49.6076 15.9401 49.6454 16.4744 49.8306 16.9853C50.284 18.2317 51.8209 18.6996 52.8964 17.9139C53.2515 17.6544 53.449 17.2867 53.583 16.88C53.7119 16.4877 53.7467 16.0832 53.7457 15.6725C53.7426 14.28 53.7426 12.8885 53.7457 11.496C53.7457 11.3591 53.7181 11.2171 53.7805 11.0669V11.0679Z" fill="#353B42"/>
  <path d="M53.7805 11.0679H56.5167C56.5914 11.1936 56.5607 11.3111 56.5607 11.4224C56.5628 12.9682 56.5648 14.5129 56.5607 16.0586C56.5587 16.595 56.527 17.1293 56.3847 17.6514C56.047 18.8988 55.2489 19.756 54.068 20.2229C52.3612 20.8982 50.6411 20.8757 48.9834 20.0645C47.781 19.476 47.0872 18.4748 46.8938 17.1375C46.8458 16.8075 46.8355 16.4775 46.8355 16.1455C46.8365 14.5875 46.8355 13.0295 46.8376 11.4715C46.8376 11.3468 46.811 11.2171 46.8744 11.072H49.5636C49.627 11.2058 49.5994 11.3346 49.5994 11.4592C49.6014 12.7751 49.5953 14.0899 49.6035 15.4058C49.6076 15.9401 49.6454 16.4744 49.8306 16.9853C50.284 18.2317 51.8209 18.6996 52.8964 17.9139C53.2515 17.6544 53.449 17.2867 53.583 16.88C53.7119 16.4877 53.7467 16.0832 53.7457 15.6725C53.7426 14.28 53.7426 12.8885 53.7457 11.496C53.7457 11.3591 53.7181 11.2171 53.7805 11.0669V11.0679Z" fill="black" fill-opacity="0.2"/>
  <path d="M53.7805 11.0679H56.5167C56.5914 11.1936 56.5607 11.3111 56.5607 11.4224C56.5628 12.9682 56.5648 14.5129 56.5607 16.0586C56.5587 16.595 56.527 17.1293 56.3847 17.6514C56.047 18.8988 55.2489 19.756 54.068 20.2229C52.3612 20.8982 50.6411 20.8757 48.9834 20.0645C47.781 19.476 47.0872 18.4748 46.8938 17.1375C46.8458 16.8075 46.8355 16.4775 46.8355 16.1455C46.8365 14.5875 46.8355 13.0295 46.8376 11.4715C46.8376 11.3468 46.811 11.2171 46.8744 11.072H49.5636C49.627 11.2058 49.5994 11.3346 49.5994 11.4592C49.6014 12.7751 49.5953 14.0899 49.6035 15.4058C49.6076 15.9401 49.6454 16.4744 49.8306 16.9853C50.284 18.2317 51.8209 18.6996 52.8964 17.9139C53.2515 17.6544 53.449 17.2867 53.583 16.88C53.7119 16.4877 53.7467 16.0832 53.7457 15.6725C53.7426 14.28 53.7426 12.8885 53.7457 11.496C53.7457 11.3591 53.7181 11.2171 53.7805 11.0669V11.0679Z" fill="black" fill-opacity="0.2"/>
  <path d="M43.1356 16.5284V11.0739H45.8769V20.5404C45.4492 20.5404 45.0184 20.5404 44.5886 20.5404C44.3461 20.5404 44.1005 20.5189 43.8601 20.5455C43.5582 20.5782 43.3689 20.4576 43.1867 20.2267C40.8363 17.2548 38.4776 14.29 36.1221 11.3231C36.0678 11.2547 35.9941 11.1964 35.9727 11.0504C36.0658 11.0504 36.1579 11.0504 36.25 11.0504C36.9274 11.0504 37.6058 11.0575 38.2832 11.0432C38.5104 11.0381 38.6495 11.1168 38.7928 11.2935C40.1394 12.9598 41.4973 14.6169 42.8521 16.2761C42.9227 16.3629 42.979 16.4671 43.1346 16.5274L43.1356 16.5284Z" fill="#353B42"/>
  <path d="M43.1356 16.5284V11.0739H45.8769V20.5404C45.4492 20.5404 45.0184 20.5404 44.5886 20.5404C44.3461 20.5404 44.1005 20.5189 43.8601 20.5455C43.5582 20.5782 43.3689 20.4576 43.1867 20.2267C40.8363 17.2548 38.4776 14.29 36.1221 11.3231C36.0678 11.2547 35.9941 11.1964 35.9727 11.0504C36.0658 11.0504 36.1579 11.0504 36.25 11.0504C36.9274 11.0504 37.6058 11.0575 38.2832 11.0432C38.5104 11.0381 38.6495 11.1168 38.7928 11.2935C40.1394 12.9598 41.4973 14.6169 42.8521 16.2761C42.9227 16.3629 42.979 16.4671 43.1346 16.5274L43.1356 16.5284Z" fill="black" fill-opacity="0.2"/>
  <path d="M43.1356 16.5284V11.0739H45.8769V20.5404C45.4492 20.5404 45.0184 20.5404 44.5886 20.5404C44.3461 20.5404 44.1005 20.5189 43.8601 20.5455C43.5582 20.5782 43.3689 20.4576 43.1867 20.2267C40.8363 17.2548 38.4776 14.29 36.1221 11.3231C36.0678 11.2547 35.9941 11.1964 35.9727 11.0504C36.0658 11.0504 36.1579 11.0504 36.25 11.0504C36.9274 11.0504 37.6058 11.0575 38.2832 11.0432C38.5104 11.0381 38.6495 11.1168 38.7928 11.2935C40.1394 12.9598 41.4973 14.6169 42.8521 16.2761C42.9227 16.3629 42.979 16.4671 43.1346 16.5274L43.1356 16.5284Z" fill="black" fill-opacity="0.2"/>
  <path d="M64.0186 10.9135V12.9394C63.9235 13.0354 63.815 12.9997 63.7178 12.9997C62.8357 13.0027 61.9537 13.0017 61.0706 13.0017C60.9683 13.0017 60.8659 13.0017 60.7636 13.0068C60.5088 13.0221 60.2642 13.0794 60.1916 13.3624C60.12 13.6402 60.1957 13.8957 60.4198 14.0887C60.5845 14.2308 60.7749 14.3339 60.9683 14.4341C61.5454 14.7334 62.1205 15.0358 62.6894 15.3505C63.0486 15.5487 63.3597 15.8112 63.6523 16.1004C64.5804 17.0188 64.5303 19.1428 63.0997 20.0572C62.4684 20.4607 61.7685 20.6528 61.0348 20.6732C59.9235 20.7039 58.8102 20.6814 57.6979 20.6794C57.6621 20.6794 57.6252 20.6651 57.5659 20.6518V18.6044C57.6733 18.5278 57.792 18.5605 57.9035 18.5605C58.8501 18.5574 59.7956 18.5594 60.7421 18.5564C61.1586 18.5554 61.3356 18.4512 61.4441 18.1579C61.5536 17.8617 61.4492 17.5419 61.1606 17.3141C60.827 17.0505 60.4372 16.886 60.0504 16.7215C59.5786 16.5213 59.1315 16.2802 58.7119 15.991C57.6119 15.233 57.1924 13.9406 57.6488 12.6871C57.9967 11.7318 58.757 11.268 59.6973 11.0351C60.1998 10.9104 60.7135 10.9278 61.2231 10.9176C62.0795 10.9012 62.936 10.9125 63.7935 10.9125C63.8549 10.9125 63.9173 10.9125 64.0186 10.9125V10.9135Z" fill="#353B42"/>
  <path d="M64.0186 10.9135V12.9394C63.9235 13.0354 63.815 12.9997 63.7178 12.9997C62.8357 13.0027 61.9537 13.0017 61.0706 13.0017C60.9683 13.0017 60.8659 13.0017 60.7636 13.0068C60.5088 13.0221 60.2642 13.0794 60.1916 13.3624C60.12 13.6402 60.1957 13.8957 60.4198 14.0887C60.5845 14.2308 60.7749 14.3339 60.9683 14.4341C61.5454 14.7334 62.1205 15.0358 62.6894 15.3505C63.0486 15.5487 63.3597 15.8112 63.6523 16.1004C64.5804 17.0188 64.5303 19.1428 63.0997 20.0572C62.4684 20.4607 61.7685 20.6528 61.0348 20.6732C59.9235 20.7039 58.8102 20.6814 57.6979 20.6794C57.6621 20.6794 57.6252 20.6651 57.5659 20.6518V18.6044C57.6733 18.5278 57.792 18.5605 57.9035 18.5605C58.8501 18.5574 59.7956 18.5594 60.7421 18.5564C61.1586 18.5554 61.3356 18.4512 61.4441 18.1579C61.5536 17.8617 61.4492 17.5419 61.1606 17.3141C60.827 17.0505 60.4372 16.886 60.0504 16.7215C59.5786 16.5213 59.1315 16.2802 58.7119 15.991C57.6119 15.233 57.1924 13.9406 57.6488 12.6871C57.9967 11.7318 58.757 11.268 59.6973 11.0351C60.1998 10.9104 60.7135 10.9278 61.2231 10.9176C62.0795 10.9012 62.936 10.9125 63.7935 10.9125C63.8549 10.9125 63.9173 10.9125 64.0186 10.9125V10.9135Z" fill="black" fill-opacity="0.2"/>
  <path d="M64.0186 10.9135V12.9394C63.9235 13.0354 63.815 12.9997 63.7178 12.9997C62.8357 13.0027 61.9537 13.0017 61.0706 13.0017C60.9683 13.0017 60.8659 13.0017 60.7636 13.0068C60.5088 13.0221 60.2642 13.0794 60.1916 13.3624C60.12 13.6402 60.1957 13.8957 60.4198 14.0887C60.5845 14.2308 60.7749 14.3339 60.9683 14.4341C61.5454 14.7334 62.1205 15.0358 62.6894 15.3505C63.0486 15.5487 63.3597 15.8112 63.6523 16.1004C64.5804 17.0188 64.5303 19.1428 63.0997 20.0572C62.4684 20.4607 61.7685 20.6528 61.0348 20.6732C59.9235 20.7039 58.8102 20.6814 57.6979 20.6794C57.6621 20.6794 57.6252 20.6651 57.5659 20.6518V18.6044C57.6733 18.5278 57.792 18.5605 57.9035 18.5605C58.8501 18.5574 59.7956 18.5594 60.7421 18.5564C61.1586 18.5554 61.3356 18.4512 61.4441 18.1579C61.5536 17.8617 61.4492 17.5419 61.1606 17.3141C60.827 17.0505 60.4372 16.886 60.0504 16.7215C59.5786 16.5213 59.1315 16.2802 58.7119 15.991C57.6119 15.233 57.1924 13.9406 57.6488 12.6871C57.9967 11.7318 58.757 11.268 59.6973 11.0351C60.1998 10.9104 60.7135 10.9278 61.2231 10.9176C62.0795 10.9012 62.936 10.9125 63.7935 10.9125C63.8549 10.9125 63.9173 10.9125 64.0186 10.9125V10.9135Z" fill="black" fill-opacity="0.2"/>
  <path d="M32.1405 20.5182C31.8949 19.894 31.6493 19.2688 31.3956 18.6251H28.1426C28.3513 18.0357 28.5642 17.4952 28.8057 16.9466H30.7458C29.9845 14.9687 29.2385 13.0296 28.4813 11.064H30.9597C32.3001 14.2014 33.6427 17.345 34.9985 20.5182H32.1405Z" fill="#353B42"/>
  <path d="M32.1405 20.5182C31.8949 19.894 31.6493 19.2688 31.3956 18.6251H28.1426C28.3513 18.0357 28.5642 17.4952 28.8057 16.9466H30.7458C29.9845 14.9687 29.2385 13.0296 28.4813 11.064H30.9597C32.3001 14.2014 33.6427 17.345 34.9985 20.5182H32.1405Z" fill="black" fill-opacity="0.2"/>
  <path d="M32.1405 20.5182C31.8949 19.894 31.6493 19.2688 31.3956 18.6251H28.1426C28.3513 18.0357 28.5642 17.4952 28.8057 16.9466H30.7458C29.9845 14.9687 29.2385 13.0296 28.4813 11.064H30.9597C32.3001 14.2014 33.6427 17.345 34.9985 20.5182H32.1405Z" fill="black" fill-opacity="0.2"/>
  <path d="M26.6785 20.5295H23.8164C25.1477 17.4217 26.4698 14.3373 27.8195 11.1855C28.1592 12.0682 28.4334 12.8896 28.7905 13.6743C29.0433 14.229 29.0044 14.7031 28.7742 15.2558C28.0507 16.9936 27.3795 18.7539 26.6785 20.5305V20.5295Z" fill="#353B42"/>
  <path d="M26.6785 20.5295H23.8164C25.1477 17.4217 26.4698 14.3373 27.8195 11.1855C28.1592 12.0682 28.4334 12.8896 28.7905 13.6743C29.0433 14.229 29.0044 14.7031 28.7742 15.2558C28.0507 16.9936 27.3795 18.7539 26.6785 20.5305V20.5295Z" fill="black" fill-opacity="0.2"/>
  <path d="M26.6785 20.5295H23.8164C25.1477 17.4217 26.4698 14.3373 27.8195 11.1855C28.1592 12.0682 28.4334 12.8896 28.7905 13.6743C29.0433 14.229 29.0044 14.7031 28.7742 15.2558C28.0507 16.9936 27.3795 18.7539 26.6785 20.5305V20.5295Z" fill="black" fill-opacity="0.2"/>
  <path d="M35.9327 20.5168V12.2017C36.1721 12.361 36.2908 12.6052 36.4535 12.8075C37.1504 13.6718 37.836 14.5453 38.5287 15.4137C38.6259 15.5363 38.6924 15.6548 38.6914 15.8244C38.6832 17.3569 38.6863 18.8893 38.6853 20.4208C38.6853 20.4453 38.6761 20.4688 38.6658 20.5168H35.9316H35.9327Z" fill="#353B42"/>
  <path d="M35.9327 20.5168V12.2017C36.1721 12.361 36.2908 12.6052 36.4535 12.8075C37.1504 13.6718 37.836 14.5453 38.5287 15.4137C38.6259 15.5363 38.6924 15.6548 38.6914 15.8244C38.6832 17.3569 38.6863 18.8893 38.6853 20.4208C38.6853 20.4453 38.6761 20.4688 38.6658 20.5168H35.9316H35.9327Z" fill="black" fill-opacity="0.2"/>
  <path d="M35.9327 20.5168V12.2017C36.1721 12.361 36.2908 12.6052 36.4535 12.8075C37.1504 13.6718 37.836 14.5453 38.5287 15.4137C38.6259 15.5363 38.6924 15.6548 38.6914 15.8244C38.6832 17.3569 38.6863 18.8893 38.6853 20.4208C38.6853 20.4453 38.6761 20.4688 38.6658 20.5168H35.9316H35.9327Z" fill="black" fill-opacity="0.2"/>
  <path d="M23.2488 25.3292C23.0554 25.4119 22.9777 25.32 22.8897 25.2147C22.5285 24.7867 22.1591 24.3657 21.7538 23.8968V24.9266C21.803 25.0788 22.1335 24.9869 22.0158 25.276H21.1563C21.1082 25.1759 21.0908 25.084 21.2146 25.0594C21.3977 25.0247 21.4264 24.9021 21.4264 24.7509C21.4264 24.4066 21.4233 24.0613 21.4305 23.717C21.4336 23.5586 21.3957 23.436 21.2289 23.3972C21.0897 23.3656 21.0816 23.2848 21.1245 23.1755C21.4929 23.0815 21.7764 23.1612 22.0178 23.4851C22.2819 23.8386 22.6042 24.1481 22.9562 24.5384C22.946 24.1379 22.9726 23.8141 22.9194 23.4933C22.8672 23.34 22.5346 23.4718 22.6206 23.1714C22.9142 23.1255 23.2141 23.1398 23.5047 23.1612C23.5466 23.2613 23.5569 23.3584 23.4668 23.3747C23.2284 23.4166 23.2519 23.5893 23.2509 23.7528C23.2488 24.2748 23.2509 24.7969 23.2509 25.3292H23.2488Z" fill="#353B42"/>
  <path d="M23.2488 25.3292C23.0554 25.4119 22.9777 25.32 22.8897 25.2147C22.5285 24.7867 22.1591 24.3657 21.7538 23.8968V24.9266C21.803 25.0788 22.1335 24.9869 22.0158 25.276H21.1563C21.1082 25.1759 21.0908 25.084 21.2146 25.0594C21.3977 25.0247 21.4264 24.9021 21.4264 24.7509C21.4264 24.4066 21.4233 24.0613 21.4305 23.717C21.4336 23.5586 21.3957 23.436 21.2289 23.3972C21.0897 23.3656 21.0816 23.2848 21.1245 23.1755C21.4929 23.0815 21.7764 23.1612 22.0178 23.4851C22.2819 23.8386 22.6042 24.1481 22.9562 24.5384C22.946 24.1379 22.9726 23.8141 22.9194 23.4933C22.8672 23.34 22.5346 23.4718 22.6206 23.1714C22.9142 23.1255 23.2141 23.1398 23.5047 23.1612C23.5466 23.2613 23.5569 23.3584 23.4668 23.3747C23.2284 23.4166 23.2519 23.5893 23.2509 23.7528C23.2488 24.2748 23.2509 24.7969 23.2509 25.3292H23.2488Z" fill="black" fill-opacity="0.2"/>
  <path d="M23.2488 25.3292C23.0554 25.4119 22.9777 25.32 22.8897 25.2147C22.5285 24.7867 22.1591 24.3657 21.7538 23.8968V24.9266C21.803 25.0788 22.1335 24.9869 22.0158 25.276H21.1563C21.1082 25.1759 21.0908 25.084 21.2146 25.0594C21.3977 25.0247 21.4264 24.9021 21.4264 24.7509C21.4264 24.4066 21.4233 24.0613 21.4305 23.717C21.4336 23.5586 21.3957 23.436 21.2289 23.3972C21.0897 23.3656 21.0816 23.2848 21.1245 23.1755C21.4929 23.0815 21.7764 23.1612 22.0178 23.4851C22.2819 23.8386 22.6042 24.1481 22.9562 24.5384C22.946 24.1379 22.9726 23.8141 22.9194 23.4933C22.8672 23.34 22.5346 23.4718 22.6206 23.1714C22.9142 23.1255 23.2141 23.1398 23.5047 23.1612C23.5466 23.2613 23.5569 23.3584 23.4668 23.3747C23.2284 23.4166 23.2519 23.5893 23.2509 23.7528C23.2488 24.2748 23.2509 24.7969 23.2509 25.3292H23.2488Z" fill="black" fill-opacity="0.2"/>
  <path d="M18.8932 25.2151C18.8646 25.2621 18.8226 25.2876 18.7684 25.2876C18.2363 25.2876 17.7031 25.2876 17.1721 25.2876C17.1673 25.1548 17.2553 25.0448 17.4361 24.9577C17.4361 24.5255 17.434 24.0821 17.4371 23.6387C17.4371 23.5141 17.4217 23.416 17.2734 23.3823C17.1485 23.3547 17.1772 23.2617 17.213 23.1534C17.7134 23.1534 18.2199 23.1524 18.7264 23.1565C18.7551 23.1565 18.7827 23.1994 18.8113 23.2219C18.882 23.3036 18.9045 23.3996 18.9004 23.5049C18.8871 23.7848 18.7479 23.8625 18.5054 23.7215C18.4297 23.6775 18.3683 23.6081 18.2772 23.5897C18.2005 23.5744 18.1237 23.5713 18.0633 23.6305C18.0244 23.6694 18.0183 23.7215 18.0439 23.7695C18.0879 23.8533 18.1677 23.843 18.2434 23.8359C18.269 23.8338 18.2936 23.8257 18.3181 23.8195C18.4849 23.7756 18.6773 23.7327 18.7193 23.9585C18.7622 24.1884 18.8738 24.4744 18.5126 24.5848C18.3304 24.6083 18.224 24.2507 17.9999 24.4836C17.9948 24.5153 17.9886 24.5459 17.9856 24.5776C17.9835 24.7237 17.9538 24.8831 18.1759 24.8943C18.3406 24.9229 18.4726 24.8739 18.5791 24.7441C18.6742 24.6277 18.7796 24.4734 18.9485 24.597C19.0897 24.6992 19.0487 24.8688 18.9966 25.0138C18.972 25.0843 18.9433 25.1559 18.8932 25.2141V25.2151Z" fill="#353B42"/>
  <path d="M18.8932 25.2151C18.8646 25.2621 18.8226 25.2876 18.7684 25.2876C18.2363 25.2876 17.7031 25.2876 17.1721 25.2876C17.1673 25.1548 17.2553 25.0448 17.4361 24.9577C17.4361 24.5255 17.434 24.0821 17.4371 23.6387C17.4371 23.5141 17.4217 23.416 17.2734 23.3823C17.1485 23.3547 17.1772 23.2617 17.213 23.1534C17.7134 23.1534 18.2199 23.1524 18.7264 23.1565C18.7551 23.1565 18.7827 23.1994 18.8113 23.2219C18.882 23.3036 18.9045 23.3996 18.9004 23.5049C18.8871 23.7848 18.7479 23.8625 18.5054 23.7215C18.4297 23.6775 18.3683 23.6081 18.2772 23.5897C18.2005 23.5744 18.1237 23.5713 18.0633 23.6305C18.0244 23.6694 18.0183 23.7215 18.0439 23.7695C18.0879 23.8533 18.1677 23.843 18.2434 23.8359C18.269 23.8338 18.2936 23.8257 18.3181 23.8195C18.4849 23.7756 18.6773 23.7327 18.7193 23.9585C18.7622 24.1884 18.8738 24.4744 18.5126 24.5848C18.3304 24.6083 18.224 24.2507 17.9999 24.4836C17.9948 24.5153 17.9886 24.5459 17.9856 24.5776C17.9835 24.7237 17.9538 24.8831 18.1759 24.8943C18.3406 24.9229 18.4726 24.8739 18.5791 24.7441C18.6742 24.6277 18.7796 24.4734 18.9485 24.597C19.0897 24.6992 19.0487 24.8688 18.9966 25.0138C18.972 25.0843 18.9433 25.1559 18.8932 25.2141V25.2151Z" fill="black" fill-opacity="0.2"/>
  <path d="M18.8932 25.2151C18.8646 25.2621 18.8226 25.2876 18.7684 25.2876C18.2363 25.2876 17.7031 25.2876 17.1721 25.2876C17.1673 25.1548 17.2553 25.0448 17.4361 24.9577C17.4361 24.5255 17.434 24.0821 17.4371 23.6387C17.4371 23.5141 17.4217 23.416 17.2734 23.3823C17.1485 23.3547 17.1772 23.2617 17.213 23.1534C17.7134 23.1534 18.2199 23.1524 18.7264 23.1565C18.7551 23.1565 18.7827 23.1994 18.8113 23.2219C18.882 23.3036 18.9045 23.3996 18.9004 23.5049C18.8871 23.7848 18.7479 23.8625 18.5054 23.7215C18.4297 23.6775 18.3683 23.6081 18.2772 23.5897C18.2005 23.5744 18.1237 23.5713 18.0633 23.6305C18.0244 23.6694 18.0183 23.7215 18.0439 23.7695C18.0879 23.8533 18.1677 23.843 18.2434 23.8359C18.269 23.8338 18.2936 23.8257 18.3181 23.8195C18.4849 23.7756 18.6773 23.7327 18.7193 23.9585C18.7622 24.1884 18.8738 24.4744 18.5126 24.5848C18.3304 24.6083 18.224 24.2507 17.9999 24.4836C17.9948 24.5153 17.9886 24.5459 17.9856 24.5776C17.9835 24.7237 17.9538 24.8831 18.1759 24.8943C18.3406 24.9229 18.4726 24.8739 18.5791 24.7441C18.6742 24.6277 18.7796 24.4734 18.9485 24.597C19.0897 24.6992 19.0487 24.8688 18.9966 25.0138C18.972 25.0843 18.9433 25.1559 18.8932 25.2141V25.2151Z" fill="black" fill-opacity="0.2"/>
  <path d="M42.4956 24.6762C42.4711 24.8857 42.3994 25.0828 42.2838 25.2667C41.9175 25.3638 41.5583 25.4179 41.1879 25.3025C40.7284 25.1605 40.4122 24.7958 40.3785 24.3462C40.3427 23.8599 40.5852 23.4298 41.015 23.2204C41.3895 23.0375 41.6832 23.0242 42.3411 23.1642C42.3994 23.3195 42.4414 23.4891 42.4486 23.6668C42.4516 23.7312 42.4424 23.7956 42.3657 23.8191C42.2777 23.8467 42.2337 23.8068 42.1856 23.7312C41.9451 23.3532 41.8029 23.2868 41.456 23.3685C41.1408 23.4431 40.9341 23.6955 40.8973 24.0581C40.8707 24.3187 40.9085 24.5679 41.061 24.7876C41.3352 25.1809 41.8602 25.186 42.1539 24.807C42.2316 24.7059 42.2777 24.4831 42.4977 24.6772L42.4956 24.6762Z" fill="#353B42"/>
  <path d="M42.4956 24.6762C42.4711 24.8857 42.3994 25.0828 42.2838 25.2667C41.9175 25.3638 41.5583 25.4179 41.1879 25.3025C40.7284 25.1605 40.4122 24.7958 40.3785 24.3462C40.3427 23.8599 40.5852 23.4298 41.015 23.2204C41.3895 23.0375 41.6832 23.0242 42.3411 23.1642C42.3994 23.3195 42.4414 23.4891 42.4486 23.6668C42.4516 23.7312 42.4424 23.7956 42.3657 23.8191C42.2777 23.8467 42.2337 23.8068 42.1856 23.7312C41.9451 23.3532 41.8029 23.2868 41.456 23.3685C41.1408 23.4431 40.9341 23.6955 40.8973 24.0581C40.8707 24.3187 40.9085 24.5679 41.061 24.7876C41.3352 25.1809 41.8602 25.186 42.1539 24.807C42.2316 24.7059 42.2777 24.4831 42.4977 24.6772L42.4956 24.6762Z" fill="black" fill-opacity="0.2"/>
  <path d="M42.4956 24.6762C42.4711 24.8857 42.3994 25.0828 42.2838 25.2667C41.9175 25.3638 41.5583 25.4179 41.1879 25.3025C40.7284 25.1605 40.4122 24.7958 40.3785 24.3462C40.3427 23.8599 40.5852 23.4298 41.015 23.2204C41.3895 23.0375 41.6832 23.0242 42.3411 23.1642C42.3994 23.3195 42.4414 23.4891 42.4486 23.6668C42.4516 23.7312 42.4424 23.7956 42.3657 23.8191C42.2777 23.8467 42.2337 23.8068 42.1856 23.7312C41.9451 23.3532 41.8029 23.2868 41.456 23.3685C41.1408 23.4431 40.9341 23.6955 40.8973 24.0581C40.8707 24.3187 40.9085 24.5679 41.061 24.7876C41.3352 25.1809 41.8602 25.186 42.1539 24.807C42.2316 24.7059 42.2777 24.4831 42.4977 24.6772L42.4956 24.6762Z" fill="black" fill-opacity="0.2"/>
  <path d="M26.9632 24.9652C27.0615 25.0878 27.3429 24.9877 27.2354 25.2738C26.9029 25.3105 26.5621 25.2881 26.2203 25.2891C26.12 25.0224 26.3595 25.0664 26.4741 24.9898V23.4685C26.1692 23.395 26.1548 23.4011 26.03 23.6391C25.9945 23.7059 25.9185 23.7502 25.8018 23.772C25.7414 23.5462 25.8049 23.3245 25.7946 23.0823C26.4168 23.1661 27.0144 23.1937 27.6396 23.0752C27.7491 23.2836 27.6785 23.5125 27.7153 23.7485C27.5977 23.7842 27.4923 23.8098 27.4564 23.679C27.3838 23.4154 27.2057 23.3909 26.9642 23.445V24.9652H26.9632Z" fill="#353B42"/>
  <path d="M26.9632 24.9652C27.0615 25.0878 27.3429 24.9877 27.2354 25.2738C26.9029 25.3105 26.5621 25.2881 26.2203 25.2891C26.12 25.0224 26.3595 25.0664 26.4741 24.9898V23.4685C26.1692 23.395 26.1548 23.4011 26.03 23.6391C25.9945 23.7059 25.9185 23.7502 25.8018 23.772C25.7414 23.5462 25.8049 23.3245 25.7946 23.0823C26.4168 23.1661 27.0144 23.1937 27.6396 23.0752C27.7491 23.2836 27.6785 23.5125 27.7153 23.7485C27.5977 23.7842 27.4923 23.8098 27.4564 23.679C27.3838 23.4154 27.2057 23.3909 26.9642 23.445V24.9652H26.9632Z" fill="black" fill-opacity="0.2"/>
  <path d="M26.9632 24.9652C27.0615 25.0878 27.3429 24.9877 27.2354 25.2738C26.9029 25.3105 26.5621 25.2881 26.2203 25.2891C26.12 25.0224 26.3595 25.0664 26.4741 24.9898V23.4685C26.1692 23.395 26.1548 23.4011 26.03 23.6391C25.9945 23.7059 25.9185 23.7502 25.8018 23.772C25.7414 23.5462 25.8049 23.3245 25.7946 23.0823C26.4168 23.1661 27.0144 23.1937 27.6396 23.0752C27.7491 23.2836 27.6785 23.5125 27.7153 23.7485C27.5977 23.7842 27.4923 23.8098 27.4564 23.679C27.3838 23.4154 27.2057 23.3909 26.9642 23.445V24.9652H26.9632Z" fill="black" fill-opacity="0.2"/>
  <path fill-rule="evenodd" clip-rule="evenodd" d="M51.0798 25.3673C51.1985 25.3765 51.2363 25.3081 51.2599 25.1804L51.2578 25.1814C50.9366 24.9946 50.7766 24.6966 50.6042 24.3756C50.5832 24.3366 50.5621 24.2973 50.5405 24.2578C50.5556 24.2478 50.5706 24.2387 50.5854 24.2297C50.6157 24.2113 50.6447 24.1937 50.6695 24.171C50.8659 23.9932 50.9539 23.7817 50.8526 23.5212C50.7513 23.2597 50.5262 23.1667 50.2765 23.1545C50.0291 23.1423 49.7807 23.1451 49.5344 23.1479C49.4283 23.1492 49.3225 23.1504 49.2174 23.1504C49.2149 23.1612 49.2123 23.1718 49.2097 23.1822C49.1852 23.2819 49.1657 23.3611 49.288 23.3833C49.417 23.4058 49.4456 23.4895 49.4456 23.604C49.4449 23.9129 49.4452 24.2214 49.4454 24.515C49.4455 24.6563 49.4456 24.7942 49.4456 24.927C49.414 24.9863 49.3528 25.013 49.2957 25.0378C49.2014 25.0789 49.1183 25.1151 49.198 25.2856C49.276 25.2863 49.3543 25.2883 49.4325 25.2903C49.6783 25.2966 49.9241 25.3028 50.164 25.2703C50.2326 25.0944 50.1432 25.0677 50.049 25.0395C49.9916 25.0224 49.9324 25.0047 49.9061 24.9525C49.8938 24.784 49.8805 24.596 49.9173 24.41C50.032 24.3865 50.0893 24.4387 50.1414 24.5245C50.2034 24.6272 50.2695 24.7274 50.3357 24.8278C50.3886 24.908 50.4415 24.9883 50.4924 25.07C50.6285 25.2887 50.8414 25.35 51.0798 25.3673ZM49.9094 23.4437V24.1374C50.286 24.1037 50.4497 23.9648 50.4231 23.7329C50.3955 23.4989 50.2533 23.4151 49.9094 23.4437Z" fill="#353B42"/>
  <path fill-rule="evenodd" clip-rule="evenodd" d="M51.0798 25.3673C51.1985 25.3765 51.2363 25.3081 51.2599 25.1804L51.2578 25.1814C50.9366 24.9946 50.7766 24.6966 50.6042 24.3756C50.5832 24.3366 50.5621 24.2973 50.5405 24.2578C50.5556 24.2478 50.5706 24.2387 50.5854 24.2297C50.6157 24.2113 50.6447 24.1937 50.6695 24.171C50.8659 23.9932 50.9539 23.7817 50.8526 23.5212C50.7513 23.2597 50.5262 23.1667 50.2765 23.1545C50.0291 23.1423 49.7807 23.1451 49.5344 23.1479C49.4283 23.1492 49.3225 23.1504 49.2174 23.1504C49.2149 23.1612 49.2123 23.1718 49.2097 23.1822C49.1852 23.2819 49.1657 23.3611 49.288 23.3833C49.417 23.4058 49.4456 23.4895 49.4456 23.604C49.4449 23.9129 49.4452 24.2214 49.4454 24.515C49.4455 24.6563 49.4456 24.7942 49.4456 24.927C49.414 24.9863 49.3528 25.013 49.2957 25.0378C49.2014 25.0789 49.1183 25.1151 49.198 25.2856C49.276 25.2863 49.3543 25.2883 49.4325 25.2903C49.6783 25.2966 49.9241 25.3028 50.164 25.2703C50.2326 25.0944 50.1432 25.0677 50.049 25.0395C49.9916 25.0224 49.9324 25.0047 49.9061 24.9525C49.8938 24.784 49.8805 24.596 49.9173 24.41C50.032 24.3865 50.0893 24.4387 50.1414 24.5245C50.2034 24.6272 50.2695 24.7274 50.3357 24.8278C50.3886 24.908 50.4415 24.9883 50.4924 25.07C50.6285 25.2887 50.8414 25.35 51.0798 25.3673ZM49.9094 23.4437V24.1374C50.286 24.1037 50.4497 23.9648 50.4231 23.7329C50.3955 23.4989 50.2533 23.4151 49.9094 23.4437Z" fill="black" fill-opacity="0.2"/>
  <path fill-rule="evenodd" clip-rule="evenodd" d="M51.0798 25.3673C51.1985 25.3765 51.2363 25.3081 51.2599 25.1804L51.2578 25.1814C50.9366 24.9946 50.7766 24.6966 50.6042 24.3756C50.5832 24.3366 50.5621 24.2973 50.5405 24.2578C50.5556 24.2478 50.5706 24.2387 50.5854 24.2297C50.6157 24.2113 50.6447 24.1937 50.6695 24.171C50.8659 23.9932 50.9539 23.7817 50.8526 23.5212C50.7513 23.2597 50.5262 23.1667 50.2765 23.1545C50.0291 23.1423 49.7807 23.1451 49.5344 23.1479C49.4283 23.1492 49.3225 23.1504 49.2174 23.1504C49.2149 23.1612 49.2123 23.1718 49.2097 23.1822C49.1852 23.2819 49.1657 23.3611 49.288 23.3833C49.417 23.4058 49.4456 23.4895 49.4456 23.604C49.4449 23.9129 49.4452 24.2214 49.4454 24.515C49.4455 24.6563 49.4456 24.7942 49.4456 24.927C49.414 24.9863 49.3528 25.013 49.2957 25.0378C49.2014 25.0789 49.1183 25.1151 49.198 25.2856C49.276 25.2863 49.3543 25.2883 49.4325 25.2903C49.6783 25.2966 49.9241 25.3028 50.164 25.2703C50.2326 25.0944 50.1432 25.0677 50.049 25.0395C49.9916 25.0224 49.9324 25.0047 49.9061 24.9525C49.8938 24.784 49.8805 24.596 49.9173 24.41C50.032 24.3865 50.0893 24.4387 50.1414 24.5245C50.2034 24.6272 50.2695 24.7274 50.3357 24.8278C50.3886 24.908 50.4415 24.9883 50.4924 25.07C50.6285 25.2887 50.8414 25.35 51.0798 25.3673ZM49.9094 23.4437V24.1374C50.286 24.1037 50.4497 23.9648 50.4231 23.7329C50.3955 23.4989 50.2533 23.4151 49.9094 23.4437Z" fill="black" fill-opacity="0.2"/>
  <path fill-rule="evenodd" clip-rule="evenodd" d="M14.4463 24.5093C14.4012 24.4313 14.3548 24.3513 14.3039 24.2709L14.3028 24.2699C14.3224 24.2555 14.3403 24.2428 14.3568 24.2311C14.3895 24.2079 14.4169 24.1884 14.442 24.1667C14.6303 24.0002 14.7132 23.7969 14.6364 23.5507C14.5525 23.282 14.3274 23.1727 14.0798 23.1563C13.8232 23.1391 13.5656 23.143 13.3088 23.1469C13.1989 23.1485 13.0892 23.1502 12.9797 23.1502C12.9775 23.1668 12.9747 23.1831 12.972 23.1988C12.9562 23.2904 12.9436 23.3639 13.0606 23.3831C13.1905 23.4046 13.2141 23.4945 13.2141 23.6068V24.9319C13.1801 24.985 13.1221 25.0111 13.0677 25.0355C12.9714 25.0788 12.8867 25.1168 12.9685 25.2905C13.0883 25.2856 13.2086 25.2884 13.3286 25.2911C13.5333 25.2958 13.7371 25.3005 13.9365 25.267C14 25.0957 13.9118 25.0682 13.8186 25.039C13.7601 25.0207 13.6996 25.0018 13.6735 24.9462C13.6726 24.9303 13.6717 24.9142 13.6707 24.898C13.6617 24.7447 13.6517 24.5752 13.6868 24.4099C13.8214 24.3799 13.8717 24.4606 13.9236 24.5438C13.9265 24.5486 13.9294 24.5533 13.9324 24.558C13.983 24.6385 14.0347 24.7184 14.0864 24.7982C14.1455 24.8895 14.2046 24.9808 14.2619 25.0729C14.399 25.2926 14.6119 25.3539 14.8513 25.3671C14.9925 25.3743 15.0191 25.2885 15.0181 25.171C14.7455 25.0266 14.6032 24.7805 14.4463 24.5093ZM13.68 23.4362V24.134C14.0464 24.1105 14.2111 23.9787 14.1907 23.7427C14.1702 23.5108 14.0351 23.426 13.68 23.4362Z" fill="#353B42"/>
  <path fill-rule="evenodd" clip-rule="evenodd" d="M14.4463 24.5093C14.4012 24.4313 14.3548 24.3513 14.3039 24.2709L14.3028 24.2699C14.3224 24.2555 14.3403 24.2428 14.3568 24.2311C14.3895 24.2079 14.4169 24.1884 14.442 24.1667C14.6303 24.0002 14.7132 23.7969 14.6364 23.5507C14.5525 23.282 14.3274 23.1727 14.0798 23.1563C13.8232 23.1391 13.5656 23.143 13.3088 23.1469C13.1989 23.1485 13.0892 23.1502 12.9797 23.1502C12.9775 23.1668 12.9747 23.1831 12.972 23.1988C12.9562 23.2904 12.9436 23.3639 13.0606 23.3831C13.1905 23.4046 13.2141 23.4945 13.2141 23.6068V24.9319C13.1801 24.985 13.1221 25.0111 13.0677 25.0355C12.9714 25.0788 12.8867 25.1168 12.9685 25.2905C13.0883 25.2856 13.2086 25.2884 13.3286 25.2911C13.5333 25.2958 13.7371 25.3005 13.9365 25.267C14 25.0957 13.9118 25.0682 13.8186 25.039C13.7601 25.0207 13.6996 25.0018 13.6735 24.9462C13.6726 24.9303 13.6717 24.9142 13.6707 24.898C13.6617 24.7447 13.6517 24.5752 13.6868 24.4099C13.8214 24.3799 13.8717 24.4606 13.9236 24.5438C13.9265 24.5486 13.9294 24.5533 13.9324 24.558C13.983 24.6385 14.0347 24.7184 14.0864 24.7982C14.1455 24.8895 14.2046 24.9808 14.2619 25.0729C14.399 25.2926 14.6119 25.3539 14.8513 25.3671C14.9925 25.3743 15.0191 25.2885 15.0181 25.171C14.7455 25.0266 14.6032 24.7805 14.4463 24.5093ZM13.68 23.4362V24.134C14.0464 24.1105 14.2111 23.9787 14.1907 23.7427C14.1702 23.5108 14.0351 23.426 13.68 23.4362Z" fill="black" fill-opacity="0.2"/>
  <path fill-rule="evenodd" clip-rule="evenodd" d="M14.4463 24.5093C14.4012 24.4313 14.3548 24.3513 14.3039 24.2709L14.3028 24.2699C14.3224 24.2555 14.3403 24.2428 14.3568 24.2311C14.3895 24.2079 14.4169 24.1884 14.442 24.1667C14.6303 24.0002 14.7132 23.7969 14.6364 23.5507C14.5525 23.282 14.3274 23.1727 14.0798 23.1563C13.8232 23.1391 13.5656 23.143 13.3088 23.1469C13.1989 23.1485 13.0892 23.1502 12.9797 23.1502C12.9775 23.1668 12.9747 23.1831 12.972 23.1988C12.9562 23.2904 12.9436 23.3639 13.0606 23.3831C13.1905 23.4046 13.2141 23.4945 13.2141 23.6068V24.9319C13.1801 24.985 13.1221 25.0111 13.0677 25.0355C12.9714 25.0788 12.8867 25.1168 12.9685 25.2905C13.0883 25.2856 13.2086 25.2884 13.3286 25.2911C13.5333 25.2958 13.7371 25.3005 13.9365 25.267C14 25.0957 13.9118 25.0682 13.8186 25.039C13.7601 25.0207 13.6996 25.0018 13.6735 24.9462C13.6726 24.9303 13.6717 24.9142 13.6707 24.898C13.6617 24.7447 13.6517 24.5752 13.6868 24.4099C13.8214 24.3799 13.8717 24.4606 13.9236 24.5438C13.9265 24.5486 13.9294 24.5533 13.9324 24.558C13.983 24.6385 14.0347 24.7184 14.0864 24.7982C14.1455 24.8895 14.2046 24.9808 14.2619 25.0729C14.399 25.2926 14.6119 25.3539 14.8513 25.3671C14.9925 25.3743 15.0191 25.2885 15.0181 25.171C14.7455 25.0266 14.6032 24.7805 14.4463 24.5093ZM13.68 23.4362V24.134C14.0464 24.1105 14.2111 23.9787 14.1907 23.7427C14.1702 23.5108 14.0351 23.426 13.68 23.4362Z" fill="black" fill-opacity="0.2"/>
  <path fill-rule="evenodd" clip-rule="evenodd" d="M32.8769 25.2802H33.6628V25.2832C33.7396 25.1267 33.6679 25.0915 33.5895 25.0531C33.5457 25.0315 33.4997 25.0089 33.4766 24.9635C33.5139 24.924 33.5252 24.8712 33.5371 24.8159C33.5528 24.7424 33.5695 24.6645 33.6495 24.6079C33.8183 24.5895 33.9944 24.5793 34.1775 24.6171C34.2451 24.7244 34.2901 24.8388 34.3146 24.9624C34.3033 25.0022 34.2674 25.0293 34.2316 25.0565C34.167 25.1054 34.1023 25.1543 34.1806 25.2771C34.439 25.3067 34.7115 25.2985 34.9782 25.2906C35.0157 25.2895 35.0531 25.2883 35.0903 25.2873C35.1435 25.1637 35.1425 25.0789 35.0238 25.0534C34.8603 25.0181 34.8122 24.8934 34.7618 24.7625L34.7598 24.7571C34.7296 24.6779 34.6976 24.5997 34.6656 24.5215C34.6303 24.4352 34.595 24.349 34.5623 24.2616C34.4495 23.9607 34.3384 23.6593 34.2308 23.3674C34.196 23.2727 34.1615 23.179 34.1274 23.0867C33.9154 23.0565 33.868 23.1783 33.8228 23.2944C33.8176 23.3077 33.8125 23.321 33.8071 23.3339C33.6219 23.7794 33.4408 24.2258 33.2596 24.6723C33.1911 24.8388 33.1235 24.9972 32.923 25.0554C32.8073 25.0881 32.8329 25.1831 32.8769 25.2802ZM33.749 24.2656C33.8451 24.3146 33.9424 24.3075 34.0784 24.2636C34.048 24.2098 34.0308 24.1541 34.0143 24.1005C33.9874 24.0135 33.9623 23.9321 33.885 23.8733C33.8267 23.999 33.7694 24.1246 33.749 24.2656Z" fill="#353B42"/>
  <path fill-rule="evenodd" clip-rule="evenodd" d="M32.8769 25.2802H33.6628V25.2832C33.7396 25.1267 33.6679 25.0915 33.5895 25.0531C33.5457 25.0315 33.4997 25.0089 33.4766 24.9635C33.5139 24.924 33.5252 24.8712 33.5371 24.8159C33.5528 24.7424 33.5695 24.6645 33.6495 24.6079C33.8183 24.5895 33.9944 24.5793 34.1775 24.6171C34.2451 24.7244 34.2901 24.8388 34.3146 24.9624C34.3033 25.0022 34.2674 25.0293 34.2316 25.0565C34.167 25.1054 34.1023 25.1543 34.1806 25.2771C34.439 25.3067 34.7115 25.2985 34.9782 25.2906C35.0157 25.2895 35.0531 25.2883 35.0903 25.2873C35.1435 25.1637 35.1425 25.0789 35.0238 25.0534C34.8603 25.0181 34.8122 24.8934 34.7618 24.7625L34.7598 24.7571C34.7296 24.6779 34.6976 24.5997 34.6656 24.5215C34.6303 24.4352 34.595 24.349 34.5623 24.2616C34.4495 23.9607 34.3384 23.6593 34.2308 23.3674C34.196 23.2727 34.1615 23.179 34.1274 23.0867C33.9154 23.0565 33.868 23.1783 33.8228 23.2944C33.8176 23.3077 33.8125 23.321 33.8071 23.3339C33.6219 23.7794 33.4408 24.2258 33.2596 24.6723C33.1911 24.8388 33.1235 24.9972 32.923 25.0554C32.8073 25.0881 32.8329 25.1831 32.8769 25.2802ZM33.749 24.2656C33.8451 24.3146 33.9424 24.3075 34.0784 24.2636C34.048 24.2098 34.0308 24.1541 34.0143 24.1005C33.9874 24.0135 33.9623 23.9321 33.885 23.8733C33.8267 23.999 33.7694 24.1246 33.749 24.2656Z" fill="black" fill-opacity="0.2"/>
  <path fill-rule="evenodd" clip-rule="evenodd" d="M32.8769 25.2802H33.6628V25.2832C33.7396 25.1267 33.6679 25.0915 33.5895 25.0531C33.5457 25.0315 33.4997 25.0089 33.4766 24.9635C33.5139 24.924 33.5252 24.8712 33.5371 24.8159C33.5528 24.7424 33.5695 24.6645 33.6495 24.6079C33.8183 24.5895 33.9944 24.5793 34.1775 24.6171C34.2451 24.7244 34.2901 24.8388 34.3146 24.9624C34.3033 25.0022 34.2674 25.0293 34.2316 25.0565C34.167 25.1054 34.1023 25.1543 34.1806 25.2771C34.439 25.3067 34.7115 25.2985 34.9782 25.2906C35.0157 25.2895 35.0531 25.2883 35.0903 25.2873C35.1435 25.1637 35.1425 25.0789 35.0238 25.0534C34.8603 25.0181 34.8122 24.8934 34.7618 24.7625L34.7598 24.7571C34.7296 24.6779 34.6976 24.5997 34.6656 24.5215C34.6303 24.4352 34.595 24.349 34.5623 24.2616C34.4495 23.9607 34.3384 23.6593 34.2308 23.3674C34.196 23.2727 34.1615 23.179 34.1274 23.0867C33.9154 23.0565 33.868 23.1783 33.8228 23.2944C33.8176 23.3077 33.8125 23.321 33.8071 23.3339C33.6219 23.7794 33.4408 24.2258 33.2596 24.6723C33.1911 24.8388 33.1235 24.9972 32.923 25.0554C32.8073 25.0881 32.8329 25.1831 32.8769 25.2802ZM33.749 24.2656C33.8451 24.3146 33.9424 24.3075 34.0784 24.2636C34.048 24.2098 34.0308 24.1541 34.0143 24.1005C33.9874 24.0135 33.9623 23.9321 33.885 23.8733C33.8267 23.999 33.7694 24.1246 33.749 24.2656Z" fill="black" fill-opacity="0.2"/>
  <path fill-rule="evenodd" clip-rule="evenodd" d="M45.4032 25.0427C45.3619 25.0217 45.3186 24.9998 45.2895 24.9656H45.2905C45.3315 24.9228 45.3458 24.8675 45.3605 24.8101C45.3796 24.7358 45.3996 24.658 45.4798 24.5998C45.5149 24.5985 45.5505 24.5966 45.5861 24.5947C45.7177 24.5876 45.8494 24.5806 45.9557 24.6039C46.1819 24.778 46.107 24.9397 46.0304 25.1054C46.004 25.1623 45.9775 25.2197 45.9628 25.2782C46.0332 25.2805 46.1023 25.2838 46.1703 25.2871C46.4307 25.2997 46.6747 25.3115 46.9083 25.2629C46.9472 25.1862 46.9503 25.1086 46.9104 25.0973C46.6596 25.0303 46.5939 24.8329 46.5284 24.6362C46.515 24.5961 46.5016 24.556 46.4867 24.5171C46.3217 24.0851 46.1584 23.6523 45.9989 23.2297C45.9803 23.1805 45.9618 23.1315 45.9434 23.0827C45.7285 23.0537 45.6796 23.1858 45.6349 23.3066C45.6277 23.3261 45.6206 23.3454 45.6129 23.3636C45.5092 23.6107 45.4104 23.86 45.3116 24.1093C45.2417 24.2856 45.1719 24.4619 45.1002 24.6376C45.0954 24.6493 45.0907 24.661 45.086 24.6728C45.0199 24.8371 44.9544 25.0001 44.7472 25.0555C44.6346 25.0851 44.651 25.1821 44.6981 25.2802H45.4819C45.5736 25.1292 45.4929 25.0883 45.4032 25.0427ZM45.6497 24.0092C45.6124 24.0937 45.5759 24.1764 45.5712 24.271C45.6705 24.3119 45.7687 24.3129 45.8854 24.269C45.8728 24.2336 45.8633 24.1972 45.8538 24.1609C45.8267 24.0576 45.7996 23.9545 45.7042 23.8736C45.6888 23.9206 45.6691 23.9651 45.6497 24.0092Z" fill="#353B42"/>
  <path fill-rule="evenodd" clip-rule="evenodd" d="M45.4032 25.0427C45.3619 25.0217 45.3186 24.9998 45.2895 24.9656H45.2905C45.3315 24.9228 45.3458 24.8675 45.3605 24.8101C45.3796 24.7358 45.3996 24.658 45.4798 24.5998C45.5149 24.5985 45.5505 24.5966 45.5861 24.5947C45.7177 24.5876 45.8494 24.5806 45.9557 24.6039C46.1819 24.778 46.107 24.9397 46.0304 25.1054C46.004 25.1623 45.9775 25.2197 45.9628 25.2782C46.0332 25.2805 46.1023 25.2838 46.1703 25.2871C46.4307 25.2997 46.6747 25.3115 46.9083 25.2629C46.9472 25.1862 46.9503 25.1086 46.9104 25.0973C46.6596 25.0303 46.5939 24.8329 46.5284 24.6362C46.515 24.5961 46.5016 24.556 46.4867 24.5171C46.3217 24.0851 46.1584 23.6523 45.9989 23.2297C45.9803 23.1805 45.9618 23.1315 45.9434 23.0827C45.7285 23.0537 45.6796 23.1858 45.6349 23.3066C45.6277 23.3261 45.6206 23.3454 45.6129 23.3636C45.5092 23.6107 45.4104 23.86 45.3116 24.1093C45.2417 24.2856 45.1719 24.4619 45.1002 24.6376C45.0954 24.6493 45.0907 24.661 45.086 24.6728C45.0199 24.8371 44.9544 25.0001 44.7472 25.0555C44.6346 25.0851 44.651 25.1821 44.6981 25.2802H45.4819C45.5736 25.1292 45.4929 25.0883 45.4032 25.0427ZM45.6497 24.0092C45.6124 24.0937 45.5759 24.1764 45.5712 24.271C45.6705 24.3119 45.7687 24.3129 45.8854 24.269C45.8728 24.2336 45.8633 24.1972 45.8538 24.1609C45.8267 24.0576 45.7996 23.9545 45.7042 23.8736C45.6888 23.9206 45.6691 23.9651 45.6497 24.0092Z" fill="black" fill-opacity="0.2"/>
  <path fill-rule="evenodd" clip-rule="evenodd" d="M45.4032 25.0427C45.3619 25.0217 45.3186 24.9998 45.2895 24.9656H45.2905C45.3315 24.9228 45.3458 24.8675 45.3605 24.8101C45.3796 24.7358 45.3996 24.658 45.4798 24.5998C45.5149 24.5985 45.5505 24.5966 45.5861 24.5947C45.7177 24.5876 45.8494 24.5806 45.9557 24.6039C46.1819 24.778 46.107 24.9397 46.0304 25.1054C46.004 25.1623 45.9775 25.2197 45.9628 25.2782C46.0332 25.2805 46.1023 25.2838 46.1703 25.2871C46.4307 25.2997 46.6747 25.3115 46.9083 25.2629C46.9472 25.1862 46.9503 25.1086 46.9104 25.0973C46.6596 25.0303 46.5939 24.8329 46.5284 24.6362C46.515 24.5961 46.5016 24.556 46.4867 24.5171C46.3217 24.0851 46.1584 23.6523 45.9989 23.2297C45.9803 23.1805 45.9618 23.1315 45.9434 23.0827C45.7285 23.0537 45.6796 23.1858 45.6349 23.3066C45.6277 23.3261 45.6206 23.3454 45.6129 23.3636C45.5092 23.6107 45.4104 23.86 45.3116 24.1093C45.2417 24.2856 45.1719 24.4619 45.1002 24.6376C45.0954 24.6493 45.0907 24.661 45.086 24.6728C45.0199 24.8371 44.9544 25.0001 44.7472 25.0555C44.6346 25.0851 44.651 25.1821 44.6981 25.2802H45.4819C45.5736 25.1292 45.4929 25.0883 45.4032 25.0427ZM45.6497 24.0092C45.6124 24.0937 45.5759 24.1764 45.5712 24.271C45.6705 24.3119 45.7687 24.3129 45.8854 24.269C45.8728 24.2336 45.8633 24.1972 45.8538 24.1609C45.8267 24.0576 45.7996 23.9545 45.7042 23.8736C45.6888 23.9206 45.6691 23.9651 45.6497 24.0092Z" fill="black" fill-opacity="0.2"/>
</svg>