<svg xmlns="http://www.w3.org/2000/svg" width="39" height="39" viewBox="0 0 39 39" fill="none">
  <g clip-path="url(#clip0_796_272)">
    <path d="M25.6164 6.5C26.5216 6.50003 27.409 6.75209 28.179 7.22795C28.949 7.70381 29.5714 8.38466 29.9763 9.19425L32.2237 13.6874C32.6202 13.5249 33.0151 13.3607 33.3986 13.1706C33.7843 12.978 34.2307 12.9465 34.6397 13.083C35.0487 13.2195 35.3867 13.5129 35.5793 13.8986C35.772 14.2843 35.8035 14.7308 35.667 15.1398C35.5304 15.5487 35.237 15.8867 34.8513 16.0794C34.0486 16.4791 33.6813 16.6026 33.6813 16.6026L35.2348 19.7113C35.5744 20.3889 35.7499 21.1348 35.7499 21.892V26C35.7509 26.686 35.6067 27.3645 35.3266 27.9908C35.0465 28.6171 34.637 29.1769 34.1249 29.6335V31.6875C34.1249 32.334 33.8681 32.954 33.411 33.4111C32.9539 33.8682 32.3339 34.125 31.6874 34.125C31.041 34.125 30.421 33.8682 29.9639 33.4111C29.5067 32.954 29.2499 32.334 29.2499 31.6875V30.875H9.74994V31.6875C9.74994 32.334 9.49313 32.954 9.03601 33.4111C8.57889 33.8682 7.9589 34.125 7.31244 34.125C6.66597 34.125 6.04598 33.8682 5.58886 33.4111C5.13174 32.954 4.87494 32.334 4.87494 31.6875V29.6335C3.87719 28.7397 3.24994 27.443 3.24994 26V21.892C3.25024 21.1355 3.4266 20.3894 3.76506 19.7129L5.31856 16.6026C4.92497 16.4394 4.53591 16.2655 4.15181 16.081C3.96027 15.986 3.78937 15.8541 3.6489 15.6929C3.50843 15.5317 3.40115 15.3443 3.33322 15.1416C3.26529 14.9388 3.23803 14.7247 3.25302 14.5114C3.26801 14.2981 3.32494 14.0899 3.42056 13.8986C3.61746 13.5149 3.95736 13.224 4.36688 13.0887C4.7764 12.9534 5.2227 12.9846 5.60944 13.1755C5.99131 13.3607 6.38294 13.5281 6.77619 13.6874L9.02356 9.19425C9.42849 8.38466 10.0508 7.70381 10.8209 7.22795C11.5909 6.75209 12.4782 6.50003 13.3834 6.5H25.6164ZM30.6052 17.719C27.8427 18.5916 23.9118 19.5 19.4999 19.5C15.0881 19.5 11.1572 18.59 8.39469 17.719L6.67219 21.164C6.55893 21.39 6.49995 21.6392 6.49994 21.892V26C6.49994 26.431 6.67114 26.8443 6.97589 27.149C7.28063 27.4538 7.69396 27.625 8.12494 27.625H30.8749C31.3059 27.625 31.7192 27.4538 32.024 27.149C32.3287 26.8443 32.4999 26.431 32.4999 26V21.892C32.4997 21.6398 32.4407 21.3911 32.3277 21.1656L30.6052 17.719ZM12.1874 21.125C12.8339 21.125 13.4539 21.3818 13.911 21.8389C14.3681 22.296 14.6249 22.916 14.6249 23.5625C14.6249 24.209 14.3681 24.829 13.911 25.2861C13.4539 25.7432 12.8339 26 12.1874 26C11.541 26 10.921 25.7432 10.4639 25.2861C10.0067 24.829 9.74994 24.209 9.74994 23.5625C9.74994 22.916 10.0067 22.296 10.4639 21.8389C10.921 21.3818 11.541 21.125 12.1874 21.125ZM26.8124 21.125C27.4589 21.125 28.0789 21.3818 28.536 21.8389C28.9931 22.296 29.2499 22.916 29.2499 23.5625C29.2499 24.209 28.9931 24.829 28.536 25.2861C28.0789 25.7432 27.4589 26 26.8124 26C26.166 26 25.546 25.7432 25.0889 25.2861C24.6317 24.829 24.3749 24.209 24.3749 23.5625C24.3749 22.916 24.6317 22.296 25.0889 21.8389C25.546 21.3818 26.166 21.125 26.8124 21.125ZM25.6164 9.75H13.3834C13.0817 9.75016 12.786 9.83431 12.5295 9.99302C12.2729 10.1517 12.0655 10.3787 11.9307 10.6486L9.86694 14.7712C12.3824 15.5269 15.7722 16.25 19.4999 16.25C23.2277 16.25 26.6174 15.5269 29.1313 14.7712L27.0692 10.6486C26.9343 10.3787 26.727 10.1517 26.4704 9.99302C26.2138 9.83431 25.9181 9.75016 25.6164 9.75Z" fill="#353B42"/>
  </g>
  <defs>
    <clipPath id="clip0_796_272">
      <rect width="39" height="39" fill="white"/>
    </clipPath>
  </defs>
</svg>