<svg xmlns="http://www.w3.org/2000/svg" width="55" height="55" viewBox="0 0 55 55" fill="none">
  <path d="M54.7819 22.4216H36.483V18.897C36.4833 18.8496 36.4742 18.8025 36.4563 18.7586C36.4383 18.7147 36.4119 18.6748 36.3784 18.6411C36.345 18.6074 36.3052 18.5807 36.2614 18.5625C36.2176 18.5443 36.1706 18.5349 36.1232 18.5349H18.8784C18.831 18.5349 18.784 18.5443 18.7402 18.5625C18.6964 18.5807 18.6566 18.6074 18.6232 18.6411C18.5897 18.6748 18.5633 18.7147 18.5453 18.7586C18.5274 18.8025 18.5183 18.8496 18.5186 18.897V22.4216H5.4034C5.20402 22.4216 4.9611 22.582 4.86027 22.7837L0.0454787 32.2162C-0.0576463 32.4178 0.0202703 32.576 0.221937 32.576H18.5163V36.1051C18.5163 36.3022 18.6767 36.4649 18.8761 36.4649H36.1209C36.3203 36.4649 36.4807 36.3045 36.4807 36.1051V32.576H49.5959C49.7953 32.576 50.0382 32.4155 50.1413 32.2162L54.9538 22.7837C55.0569 22.5843 54.979 22.4216 54.7796 22.4216M49.0642 24.7041L46.2134 30.2889H34.2234V34.203H20.7851V30.2889H5.94652L8.79965 24.7041H20.7896V20.7922H34.228V24.7041H49.0642Z" fill="#353B42"/>
  <path d="M54.7819 22.4216H36.483V18.897C36.4833 18.8496 36.4742 18.8025 36.4563 18.7586C36.4383 18.7147 36.4119 18.6748 36.3784 18.6411C36.345 18.6074 36.3052 18.5807 36.2614 18.5625C36.2176 18.5443 36.1706 18.5349 36.1232 18.5349H18.8784C18.831 18.5349 18.784 18.5443 18.7402 18.5625C18.6964 18.5807 18.6566 18.6074 18.6232 18.6411C18.5897 18.6748 18.5633 18.7147 18.5453 18.7586C18.5274 18.8025 18.5183 18.8496 18.5186 18.897V22.4216H5.4034C5.20402 22.4216 4.9611 22.582 4.86027 22.7837L0.0454787 32.2162C-0.0576463 32.4178 0.0202703 32.576 0.221937 32.576H18.5163V36.1051C18.5163 36.3022 18.6767 36.4649 18.8761 36.4649H36.1209C36.3203 36.4649 36.4807 36.3045 36.4807 36.1051V32.576H49.5959C49.7953 32.576 50.0382 32.4155 50.1413 32.2162L54.9538 22.7837C55.0569 22.5843 54.979 22.4216 54.7796 22.4216M49.0642 24.7041L46.2134 30.2889H34.2234V34.203H20.7851V30.2889H5.94652L8.79965 24.7041H20.7896V20.7922H34.228V24.7041H49.0642Z" fill="black" fill-opacity="0.2"/>
  <path d="M54.7819 22.4216H36.483V18.897C36.4833 18.8496 36.4742 18.8025 36.4563 18.7586C36.4383 18.7147 36.4119 18.6748 36.3784 18.6411C36.345 18.6074 36.3052 18.5807 36.2614 18.5625C36.2176 18.5443 36.1706 18.5349 36.1232 18.5349H18.8784C18.831 18.5349 18.784 18.5443 18.7402 18.5625C18.6964 18.5807 18.6566 18.6074 18.6232 18.6411C18.5897 18.6748 18.5633 18.7147 18.5453 18.7586C18.5274 18.8025 18.5183 18.8496 18.5186 18.897V22.4216H5.4034C5.20402 22.4216 4.9611 22.582 4.86027 22.7837L0.0454787 32.2162C-0.0576463 32.4178 0.0202703 32.576 0.221937 32.576H18.5163V36.1051C18.5163 36.3022 18.6767 36.4649 18.8761 36.4649H36.1209C36.3203 36.4649 36.4807 36.3045 36.4807 36.1051V32.576H49.5959C49.7953 32.576 50.0382 32.4155 50.1413 32.2162L54.9538 22.7837C55.0569 22.5843 54.979 22.4216 54.7796 22.4216M49.0642 24.7041L46.2134 30.2889H34.2234V34.203H20.7851V30.2889H5.94652L8.79965 24.7041H20.7896V20.7922H34.228V24.7041H49.0642Z" fill="black" fill-opacity="0.2"/>
</svg>