<svg xmlns="http://www.w3.org/2000/svg" width="55" height="55" viewBox="0 0 55 55" fill="none">
  <path d="M0.21806 23.0175H18.517V19.4929C18.5167 19.4455 18.5258 19.3985 18.5437 19.3546C18.5617 19.3106 18.5881 19.2707 18.6216 19.237C18.655 19.2034 18.6948 19.1767 18.7386 19.1585C18.7824 19.1402 18.8294 19.1309 18.8768 19.1309H36.1216C36.169 19.1309 36.216 19.1402 36.2598 19.1585C36.3036 19.1767 36.3434 19.2034 36.3768 19.237C36.4103 19.2707 36.4367 19.3106 36.4547 19.3546C36.4726 19.3985 36.4817 19.4455 36.4814 19.4929V23.0175H49.5966C49.796 23.0175 50.0389 23.1779 50.1397 23.3796L54.9545 32.8121C55.0576 33.0138 54.9797 33.1719 54.7781 33.1719H36.4837V36.7011C36.4837 36.8982 36.3233 37.0609 36.1239 37.0609H18.8791C18.6797 37.0609 18.5193 36.9004 18.5193 36.7011V33.1719H5.4041C5.20473 33.1719 4.96181 33.0115 4.85869 32.8121L0.0461884 23.3796C-0.0569382 23.1802 0.020977 23.0175 0.220352 23.0175M5.93577 25.3L8.7866 30.8848H20.7766V34.799H34.2149V30.8848H49.0535L46.2004 25.3H34.2104V21.3882H20.772V25.3H5.93577Z" fill="#F5FAFF"/>
</svg>