<svg xmlns="http://www.w3.org/2000/svg" width="40" height="40" viewBox="0 0 40 40" fill="none">
  <path d="M7.00017 31.542L5.48892 30.9407C5.38094 31.2124 5.34826 31.5082 5.39432 31.797C5.44039 32.0857 5.56349 32.3566 5.75066 32.5812C5.93783 32.8058 6.18213 32.9758 6.45781 33.0731C6.73349 33.1705 7.03033 33.1917 7.31704 33.1345L7.00017 31.542ZM14.6474 30.021L15.4177 28.5894L14.9025 28.3131L14.3305 28.4269L14.6474 30.021ZM9.63917 24.9071L11.1504 25.5084L11.4153 24.8356L11.0968 24.1872L9.63917 24.9071ZM31.3752 20.167C31.3752 25.4417 26.739 29.917 20.7639 29.917V33.167C28.3055 33.167 34.6252 27.4567 34.6252 20.167H31.3752ZM10.1543 20.167C10.1543 14.8922 14.792 10.417 20.7655 10.417V7.16699C13.2239 7.16699 6.90267 12.8772 6.90267 20.167H10.1543ZM20.7655 10.417C26.739 10.417 31.3752 14.8922 31.3752 20.167H34.6252C34.6252 12.8772 28.3072 7.16699 20.7655 7.16699V10.417ZM20.7639 29.917C18.8058 29.917 16.9825 29.4295 15.4177 28.5894L13.8772 31.451C15.9959 32.5842 18.3612 33.1738 20.7639 33.167V29.917ZM7.31704 33.1345L14.9643 31.6135L14.3305 28.4269L6.68329 29.9479L7.31704 33.1361V33.1345ZM11.0968 24.1872C10.4762 22.9379 10.1547 21.562 10.1543 20.167H6.90267C6.90267 22.117 7.36092 23.9662 8.17992 25.627L11.0968 24.1872ZM8.12954 24.3059L5.48892 30.9424L8.50817 32.1416L11.1472 25.5067L8.12792 24.3059H8.12954Z" fill="#353B42"/>
  <path d="M7.00017 31.542L5.48892 30.9407C5.38094 31.2124 5.34826 31.5082 5.39432 31.797C5.44039 32.0857 5.56349 32.3566 5.75066 32.5812C5.93783 32.8058 6.18213 32.9758 6.45781 33.0731C6.73349 33.1705 7.03033 33.1917 7.31704 33.1345L7.00017 31.542ZM14.6474 30.021L15.4177 28.5894L14.9025 28.3131L14.3305 28.4269L14.6474 30.021ZM9.63917 24.9071L11.1504 25.5084L11.4153 24.8356L11.0968 24.1872L9.63917 24.9071ZM31.3752 20.167C31.3752 25.4417 26.739 29.917 20.7639 29.917V33.167C28.3055 33.167 34.6252 27.4567 34.6252 20.167H31.3752ZM10.1543 20.167C10.1543 14.8922 14.792 10.417 20.7655 10.417V7.16699C13.2239 7.16699 6.90267 12.8772 6.90267 20.167H10.1543ZM20.7655 10.417C26.739 10.417 31.3752 14.8922 31.3752 20.167H34.6252C34.6252 12.8772 28.3072 7.16699 20.7655 7.16699V10.417ZM20.7639 29.917C18.8058 29.917 16.9825 29.4295 15.4177 28.5894L13.8772 31.451C15.9959 32.5842 18.3612 33.1738 20.7639 33.167V29.917ZM7.31704 33.1345L14.9643 31.6135L14.3305 28.4269L6.68329 29.9479L7.31704 33.1361V33.1345ZM11.0968 24.1872C10.4762 22.9379 10.1547 21.562 10.1543 20.167H6.90267C6.90267 22.117 7.36092 23.9662 8.17992 25.627L11.0968 24.1872ZM8.12954 24.3059L5.48892 30.9424L8.50817 32.1416L11.1472 25.5067L8.12792 24.3059H8.12954Z" fill="black" fill-opacity="0.2"/>
  <path d="M7.00017 31.542L5.48892 30.9407C5.38094 31.2124 5.34826 31.5082 5.39432 31.797C5.44039 32.0857 5.56349 32.3566 5.75066 32.5812C5.93783 32.8058 6.18213 32.9758 6.45781 33.0731C6.73349 33.1705 7.03033 33.1917 7.31704 33.1345L7.00017 31.542ZM14.6474 30.021L15.4177 28.5894L14.9025 28.3131L14.3305 28.4269L14.6474 30.021ZM9.63917 24.9071L11.1504 25.5084L11.4153 24.8356L11.0968 24.1872L9.63917 24.9071ZM31.3752 20.167C31.3752 25.4417 26.739 29.917 20.7639 29.917V33.167C28.3055 33.167 34.6252 27.4567 34.6252 20.167H31.3752ZM10.1543 20.167C10.1543 14.8922 14.792 10.417 20.7655 10.417V7.16699C13.2239 7.16699 6.90267 12.8772 6.90267 20.167H10.1543ZM20.7655 10.417C26.739 10.417 31.3752 14.8922 31.3752 20.167H34.6252C34.6252 12.8772 28.3072 7.16699 20.7655 7.16699V10.417ZM20.7639 29.917C18.8058 29.917 16.9825 29.4295 15.4177 28.5894L13.8772 31.451C15.9959 32.5842 18.3612 33.1738 20.7639 33.167V29.917ZM7.31704 33.1345L14.9643 31.6135L14.3305 28.4269L6.68329 29.9479L7.31704 33.1361V33.1345ZM11.0968 24.1872C10.4762 22.9379 10.1547 21.562 10.1543 20.167H6.90267C6.90267 22.117 7.36092 23.9662 8.17992 25.627L11.0968 24.1872ZM8.12954 24.3059L5.48892 30.9424L8.50817 32.1416L11.1472 25.5067L8.12792 24.3059H8.12954Z" fill="black" fill-opacity="0.2"/>
  <path d="M15.125 21.792C16.0225 21.792 16.75 21.0645 16.75 20.167C16.75 19.2695 16.0225 18.542 15.125 18.542C14.2275 18.542 13.5 19.2695 13.5 20.167C13.5 21.0645 14.2275 21.792 15.125 21.792Z" fill="#353B42"/>
  <path d="M15.125 21.792C16.0225 21.792 16.75 21.0645 16.75 20.167C16.75 19.2695 16.0225 18.542 15.125 18.542C14.2275 18.542 13.5 19.2695 13.5 20.167C13.5 21.0645 14.2275 21.792 15.125 21.792Z" fill="black" fill-opacity="0.2"/>
  <path d="M15.125 21.792C16.0225 21.792 16.75 21.0645 16.75 20.167C16.75 19.2695 16.0225 18.542 15.125 18.542C14.2275 18.542 13.5 19.2695 13.5 20.167C13.5 21.0645 14.2275 21.792 15.125 21.792Z" fill="black" fill-opacity="0.2"/>
  <path d="M20.8125 21.792C21.71 21.792 22.4375 21.0645 22.4375 20.167C22.4375 19.2695 21.71 18.542 20.8125 18.542C19.915 18.542 19.1875 19.2695 19.1875 20.167C19.1875 21.0645 19.915 21.792 20.8125 21.792Z" fill="#353B42"/>
  <path d="M20.8125 21.792C21.71 21.792 22.4375 21.0645 22.4375 20.167C22.4375 19.2695 21.71 18.542 20.8125 18.542C19.915 18.542 19.1875 19.2695 19.1875 20.167C19.1875 21.0645 19.915 21.792 20.8125 21.792Z" fill="black" fill-opacity="0.2"/>
  <path d="M20.8125 21.792C21.71 21.792 22.4375 21.0645 22.4375 20.167C22.4375 19.2695 21.71 18.542 20.8125 18.542C19.915 18.542 19.1875 19.2695 19.1875 20.167C19.1875 21.0645 19.915 21.792 20.8125 21.792Z" fill="black" fill-opacity="0.2"/>
  <path d="M26.5 21.792C27.3975 21.792 28.125 21.0645 28.125 20.167C28.125 19.2695 27.3975 18.542 26.5 18.542C25.6025 18.542 24.875 19.2695 24.875 20.167C24.875 21.0645 25.6025 21.792 26.5 21.792Z" fill="#353B42"/>
  <path d="M26.5 21.792C27.3975 21.792 28.125 21.0645 28.125 20.167C28.125 19.2695 27.3975 18.542 26.5 18.542C25.6025 18.542 24.875 19.2695 24.875 20.167C24.875 21.0645 25.6025 21.792 26.5 21.792Z" fill="black" fill-opacity="0.2"/>
  <path d="M26.5 21.792C27.3975 21.792 28.125 21.0645 28.125 20.167C28.125 19.2695 27.3975 18.542 26.5 18.542C25.6025 18.542 24.875 19.2695 24.875 20.167C24.875 21.0645 25.6025 21.792 26.5 21.792Z" fill="black" fill-opacity="0.2"/>
</svg>