<svg xmlns="http://www.w3.org/2000/svg" width="37" height="37" viewBox="0 0 37 37" fill="none">
  <path d="M18.5 2.3125C22.7932 2.3125 26.9105 4.01796 29.9463 7.05371C32.982 10.0895 34.6875 14.2068 34.6875 18.5C34.6875 22.7932 32.982 26.9105 29.9463 29.9463C26.9105 32.982 22.7932 34.6875 18.5 34.6875C14.2068 34.6875 10.0895 32.982 7.05371 29.9463C4.01796 26.9105 2.3125 22.7932 2.3125 18.5C2.3125 14.2068 4.01796 10.0895 7.05371 7.05371C10.0895 4.01796 14.2068 2.3125 18.5 2.3125ZM10.4062 18.5C10.4062 18.868 10.5524 19.2209 10.8126 19.4811C11.0728 19.7413 11.4258 19.8875 11.7937 19.8875H25.2062C25.5742 19.8875 25.9272 19.7413 26.1874 19.4811C26.4476 19.2209 26.5938 18.868 26.5938 18.5C26.5938 18.132 26.4476 17.7791 26.1874 17.5189C25.9272 17.2587 25.5742 17.1125 25.2062 17.1125H11.7937C11.6115 17.1125 11.4311 17.1484 11.2628 17.2181C11.0944 17.2878 10.9415 17.39 10.8126 17.5189C10.6838 17.6477 10.5816 17.8007 10.5119 17.969C10.4421 18.1374 10.4062 18.3178 10.4062 18.5Z" fill="#E42E35"/>
</svg>