<svg xmlns="http://www.w3.org/2000/svg" width="24" height="24" viewBox="0 0 24 24" fill="none">
  <path d="M9 19.0001H15V21.0001H9C6.24 21.0001 4 18.7601 4 16.0001V7.00012H6V16.0001C6 17.6601 7.34 19.0001 9 19.0001ZM10.42 5.41012C11.2 4.63012 11.2 3.36012 10.42 2.58012C9.64 1.80012 8.37 1.80012 7.59 2.58012C6.81 3.36012 6.81 4.63012 7.59 5.41012C8.37 6.20012 9.63 6.20012 10.42 5.41012ZM11.5 9.00012C11.5 7.90012 10.6 7.00012 9.5 7.00012H9C7.9 7.00012 7 7.90012 7 9.00012V15.0001C7 16.6601 8.34 18.0001 10 18.0001H15.07L18.57 21.5001L20 20.0701L14.93 15.0001H11.5V9.00012Z" fill="#353B42"/>
  <path d="M9 19.0001H15V21.0001H9C6.24 21.0001 4 18.7601 4 16.0001V7.00012H6V16.0001C6 17.6601 7.34 19.0001 9 19.0001ZM10.42 5.41012C11.2 4.63012 11.2 3.36012 10.42 2.58012C9.64 1.80012 8.37 1.80012 7.59 2.58012C6.81 3.36012 6.81 4.63012 7.59 5.41012C8.37 6.20012 9.63 6.20012 10.42 5.41012ZM11.5 9.00012C11.5 7.90012 10.6 7.00012 9.5 7.00012H9C7.9 7.00012 7 7.90012 7 9.00012V15.0001C7 16.6601 8.34 18.0001 10 18.0001H15.07L18.57 21.5001L20 20.0701L14.93 15.0001H11.5V9.00012Z" fill="black" fill-opacity="0.2"/>
  <path d="M9 19.0001H15V21.0001H9C6.24 21.0001 4 18.7601 4 16.0001V7.00012H6V16.0001C6 17.6601 7.34 19.0001 9 19.0001ZM10.42 5.41012C11.2 4.63012 11.2 3.36012 10.42 2.58012C9.64 1.80012 8.37 1.80012 7.59 2.58012C6.81 3.36012 6.81 4.63012 7.59 5.41012C8.37 6.20012 9.63 6.20012 10.42 5.41012ZM11.5 9.00012C11.5 7.90012 10.6 7.00012 9.5 7.00012H9C7.9 7.00012 7 7.90012 7 9.00012V15.0001C7 16.6601 8.34 18.0001 10 18.0001H15.07L18.57 21.5001L20 20.0701L14.93 15.0001H11.5V9.00012Z" fill="black" fill-opacity="0.2"/>
</svg>