<svg xmlns="http://www.w3.org/2000/svg" width="83" height="83" viewBox="0 0 83 83" fill="none">
<path d="M10.375 24.2085C10.375 21.4569 11.4681 18.818 13.4138 16.8723C15.3595 14.9266 17.9984 13.8335 20.75 13.8335H62.25C65.0016 13.8335 67.6405 14.9266 69.5862 16.8723C71.5319 18.818 72.625 21.4569 72.625 24.2085V58.7918C72.625 61.5434 71.5319 64.1824 69.5862 66.1281C67.6405 68.0738 65.0016 69.1668 62.25 69.1668H20.75C17.9984 69.1668 15.3595 68.0738 13.4138 66.1281C11.4681 64.1824 10.375 61.5434 10.375 58.7918V24.2085Z" stroke="#353B42" stroke-width="3" stroke-linecap="round" stroke-linejoin="round"/>
<path d="M51.8747 27.667H58.7913M51.8747 41.5003H58.7913M24.208 55.3337H58.7913" stroke="#353B42" stroke-width="3" stroke-linecap="round" stroke-linejoin="round"/>
<path d="M37.41 24.2085C38.0843 24.2085 38.7452 24.3979 39.3187 24.7553C39.8923 25.1127 40.3558 25.6241 40.6574 26.2322L42.3314 29.6072C42.6267 29.4851 42.9208 29.3618 43.2064 29.219C43.4937 29.0743 43.8263 29.0506 44.1309 29.1532C44.4355 29.2557 44.6873 29.4761 44.8307 29.7658C44.9742 30.0556 44.9977 30.3909 44.896 30.6981C44.7943 31.0053 44.5758 31.2592 44.2885 31.4039C43.6906 31.7041 43.417 31.7969 43.417 31.7969L44.5741 34.1319C44.8271 34.6409 44.9578 35.2011 44.9578 35.7699V38.8556C44.9586 39.3709 44.8511 39.8805 44.6425 40.3509C44.4339 40.8213 44.1288 41.2418 43.7475 41.5848V43.1276C43.7475 43.6132 43.5562 44.0789 43.2157 44.4222C42.8752 44.7656 42.4134 44.9585 41.9319 44.9585C41.4504 44.9585 40.9886 44.7656 40.6482 44.4222C40.3077 44.0789 40.1164 43.6132 40.1164 43.1276V42.5173H25.5921V43.1276C25.5921 43.6132 25.4008 44.0789 25.0604 44.4222C24.7199 44.7656 24.2581 44.9585 23.7766 44.9585C23.2951 44.9585 22.8333 44.7656 22.4928 44.4222C22.1523 44.0789 21.961 43.6132 21.961 43.1276V41.5848C21.2179 40.9135 20.7507 39.9394 20.7507 38.8556V35.7699C20.7509 35.2017 20.8823 34.6413 21.1344 34.1331L22.2915 31.7969C21.9983 31.6743 21.7085 31.5436 21.4224 31.4051C21.2798 31.3337 21.1525 31.2346 21.0478 31.1135C20.9432 30.9925 20.8633 30.8517 20.8127 30.6995C20.7621 30.5472 20.7418 30.3863 20.753 30.2261C20.7641 30.0659 20.8065 29.9095 20.8778 29.7658C21.0244 29.4776 21.2776 29.2591 21.5826 29.1575C21.8876 29.0559 22.2201 29.0793 22.5081 29.2227C22.7926 29.3618 23.0842 29.4875 23.3772 29.6072L25.0511 26.2322C25.3527 25.6241 25.8162 25.1127 26.3898 24.7553C26.9633 24.3979 27.6242 24.2085 28.2985 24.2085H37.41ZM41.1258 32.6354C39.0682 33.2909 36.1404 33.9732 32.8543 33.9732C29.5681 33.9732 26.6403 33.2897 24.5827 32.6354L23.2997 35.2231C23.2153 35.3928 23.1714 35.5801 23.1714 35.7699V38.8556C23.1714 39.1793 23.2989 39.4897 23.5259 39.7186C23.7529 39.9475 24.0607 40.0761 24.3818 40.0761H41.3268C41.6478 40.0761 41.9556 39.9475 42.1826 39.7186C42.4096 39.4897 42.5371 39.1793 42.5371 38.8556V35.7699C42.5369 35.5805 42.493 35.3937 42.4088 35.2243L41.1258 32.6354ZM27.4076 35.1938C27.8892 35.1938 28.3509 35.3867 28.6914 35.73C29.0319 36.0734 29.2232 36.5391 29.2232 37.0247C29.2232 37.5103 29.0319 37.9759 28.6914 38.3193C28.3509 38.6627 27.8892 38.8556 27.4076 38.8556C26.9261 38.8556 26.4643 38.6627 26.1239 38.3193C25.7834 37.9759 25.5921 37.5103 25.5921 37.0247C25.5921 36.5391 25.7834 36.0734 26.1239 35.73C26.4643 35.3867 26.9261 35.1938 27.4076 35.1938ZM38.3009 35.1938C38.7824 35.1938 39.2442 35.3867 39.5846 35.73C39.9251 36.0734 40.1164 36.5391 40.1164 37.0247C40.1164 37.5103 39.9251 37.9759 39.5846 38.3193C39.2442 38.6627 38.7824 38.8556 38.3009 38.8556C37.8194 38.8556 37.3576 38.6627 37.0171 38.3193C36.6766 37.9759 36.4853 37.5103 36.4853 37.0247C36.4853 36.5391 36.6766 36.0734 37.0171 35.73C37.3576 35.3867 37.8194 35.1938 38.3009 35.1938ZM37.41 26.6497H28.2985C28.0738 26.6498 27.8535 26.713 27.6624 26.8322C27.4713 26.9514 27.3169 27.1219 27.2164 27.3247L25.6793 30.4213C27.5529 30.9889 30.0777 31.532 32.8543 31.532C35.6308 31.532 38.1556 30.9889 40.028 30.4213L38.4921 27.3247C38.3917 27.1219 38.2372 26.9514 38.0461 26.8322C37.855 26.713 37.6348 26.6498 37.41 26.6497Z" fill="#353B42"/>
</svg>