<svg xmlns="http://www.w3.org/2000/svg" width="83" height="83" viewBox="0 0 83 83" fill="none">
  <path d="M10.375 24.2084C10.375 21.4568 11.4681 18.8178 13.4138 16.8721C15.3595 14.9265 17.9984 13.8334 20.75 13.8334H62.25C65.0016 13.8334 67.6405 14.9265 69.5862 16.8721C71.5319 18.8178 72.625 21.4568 72.625 24.2084V58.7917C72.625 61.5433 71.5319 64.1823 69.5862 66.1279C67.6405 68.0736 65.0016 69.1667 62.25 69.1667H20.75C17.9984 69.1667 15.3595 68.0736 13.4138 66.1279C11.4681 64.1823 10.375 61.5433 10.375 58.7917V24.2084Z" stroke="#353B42" stroke-width="3" stroke-linecap="round" stroke-linejoin="round"/>
  <path d="M10.375 24.2084C10.375 21.4568 11.4681 18.8178 13.4138 16.8721C15.3595 14.9265 17.9984 13.8334 20.75 13.8334H62.25C65.0016 13.8334 67.6405 14.9265 69.5862 16.8721C71.5319 18.8178 72.625 21.4568 72.625 24.2084V58.7917C72.625 61.5433 71.5319 64.1823 69.5862 66.1279C67.6405 68.0736 65.0016 69.1667 62.25 69.1667H20.75C17.9984 69.1667 15.3595 68.0736 13.4138 66.1279C11.4681 64.1823 10.375 61.5433 10.375 58.7917V24.2084Z" stroke="black" stroke-opacity="0.2" stroke-width="3" stroke-linecap="round" stroke-linejoin="round"/>
  <path d="M10.375 24.2084C10.375 21.4568 11.4681 18.8178 13.4138 16.8721C15.3595 14.9265 17.9984 13.8334 20.75 13.8334H62.25C65.0016 13.8334 67.6405 14.9265 69.5862 16.8721C71.5319 18.8178 72.625 21.4568 72.625 24.2084V58.7917C72.625 61.5433 71.5319 64.1823 69.5862 66.1279C67.6405 68.0736 65.0016 69.1667 62.25 69.1667H20.75C17.9984 69.1667 15.3595 68.0736 13.4138 66.1279C11.4681 64.1823 10.375 61.5433 10.375 58.7917V24.2084Z" stroke="black" stroke-opacity="0.2" stroke-width="3" stroke-linecap="round" stroke-linejoin="round"/>
  <path d="M51.8747 27.6667H58.7913M51.8747 41.5001H58.7913M24.208 55.3334H58.7913" stroke="#353B42" stroke-width="3" stroke-linecap="round" stroke-linejoin="round"/>
  <path d="M51.8747 27.6667H58.7913M51.8747 41.5001H58.7913M24.208 55.3334H58.7913" stroke="black" stroke-opacity="0.2" stroke-width="3" stroke-linecap="round" stroke-linejoin="round"/>
  <path d="M51.8747 27.6667H58.7913M51.8747 41.5001H58.7913M24.208 55.3334H58.7913" stroke="black" stroke-opacity="0.2" stroke-width="3" stroke-linecap="round" stroke-linejoin="round"/>
  <path d="M37.41 24.2084C38.0843 24.2084 38.7452 24.3977 39.3187 24.7552C39.8923 25.1126 40.3558 25.624 40.6574 26.2321L42.3314 29.607C42.6267 29.485 42.9208 29.3617 43.2064 29.2189C43.4937 29.0742 43.8263 29.0505 44.1309 29.1531C44.4355 29.2556 44.6873 29.476 44.8307 29.7657C44.9742 30.0554 44.9977 30.3908 44.896 30.698C44.7943 31.0052 44.5758 31.259 44.2885 31.4037C43.6906 31.704 43.417 31.7968 43.417 31.7968L44.5741 34.1318C44.8271 34.6407 44.9578 35.201 44.9578 35.7698V38.8554C44.9586 39.3707 44.8511 39.8804 44.6425 40.3508C44.4339 40.8212 44.1288 41.2417 43.7475 41.5847V43.1275C43.7475 43.6131 43.5562 44.0788 43.2157 44.4221C42.8752 44.7655 42.4134 44.9584 41.9319 44.9584C41.4504 44.9584 40.9886 44.7655 40.6482 44.4221C40.3077 44.0788 40.1164 43.6131 40.1164 43.1275V42.5172H25.5921V43.1275C25.5921 43.6131 25.4008 44.0788 25.0604 44.4221C24.7199 44.7655 24.2581 44.9584 23.7766 44.9584C23.2951 44.9584 22.8333 44.7655 22.4928 44.4221C22.1523 44.0788 21.961 43.6131 21.961 43.1275V41.5847C21.2179 40.9133 20.7507 39.9393 20.7507 38.8554V35.7698C20.7509 35.2016 20.8823 34.6412 21.1344 34.133L22.2915 31.7968C21.9983 31.6742 21.7085 31.5435 21.4224 31.405C21.2798 31.3336 21.1525 31.2345 21.0478 31.1134C20.9432 30.9923 20.8633 30.8516 20.8127 30.6993C20.7621 30.5471 20.7418 30.3862 20.753 30.226C20.7641 30.0658 20.8065 29.9094 20.8778 29.7657C21.0244 29.4775 21.2776 29.259 21.5826 29.1574C21.8876 29.0557 22.2201 29.0792 22.5081 29.2225C22.7926 29.3617 23.0842 29.4874 23.3772 29.607L25.0511 26.2321C25.3527 25.624 25.8162 25.1126 26.3898 24.7552C26.9633 24.3977 27.6242 24.2084 28.2985 24.2084H37.41ZM41.1258 32.6353C39.0682 33.2908 36.1404 33.9731 32.8543 33.9731C29.5681 33.9731 26.6403 33.2896 24.5827 32.6353L23.2997 35.223C23.2153 35.3927 23.1714 35.5799 23.1714 35.7698V38.8554C23.1714 39.1792 23.2989 39.4896 23.5259 39.7185C23.7529 39.9474 24.0607 40.076 24.3818 40.076H41.3268C41.6478 40.076 41.9556 39.9474 42.1826 39.7185C42.4096 39.4896 42.5371 39.1792 42.5371 38.8554V35.7698C42.5369 35.5803 42.493 35.3935 42.4088 35.2242L41.1258 32.6353ZM27.4076 35.1937C27.8892 35.1937 28.3509 35.3866 28.6914 35.7299C29.0319 36.0733 29.2232 36.539 29.2232 37.0246C29.2232 37.5101 29.0319 37.9758 28.6914 38.3192C28.3509 38.6625 27.8892 38.8554 27.4076 38.8554C26.9261 38.8554 26.4643 38.6625 26.1239 38.3192C25.7834 37.9758 25.5921 37.5101 25.5921 37.0246C25.5921 36.539 25.7834 36.0733 26.1239 35.7299C26.4643 35.3866 26.9261 35.1937 27.4076 35.1937ZM38.3009 35.1937C38.7824 35.1937 39.2442 35.3866 39.5846 35.7299C39.9251 36.0733 40.1164 36.539 40.1164 37.0246C40.1164 37.5101 39.9251 37.9758 39.5846 38.3192C39.2442 38.6625 38.7824 38.8554 38.3009 38.8554C37.8194 38.8554 37.3576 38.6625 37.0171 38.3192C36.6766 37.9758 36.4853 37.5101 36.4853 37.0246C36.4853 36.539 36.6766 36.0733 37.0171 35.7299C37.3576 35.3866 37.8194 35.1937 38.3009 35.1937ZM37.41 26.6496H28.2985C28.0738 26.6497 27.8535 26.7129 27.6624 26.8321C27.4713 26.9513 27.3169 27.1218 27.2164 27.3245L25.6793 30.4212C27.5529 30.9887 30.0777 31.5319 32.8543 31.5319C35.6308 31.5319 38.1556 30.9887 40.028 30.4212L38.4921 27.3245C38.3917 27.1218 38.2372 26.9513 38.0461 26.8321C37.855 26.7129 37.6348 26.6497 37.41 26.6496Z" fill="#353B42"/>
  <path d="M37.41 24.2084C38.0843 24.2084 38.7452 24.3977 39.3187 24.7552C39.8923 25.1126 40.3558 25.624 40.6574 26.2321L42.3314 29.607C42.6267 29.485 42.9208 29.3617 43.2064 29.2189C43.4937 29.0742 43.8263 29.0505 44.1309 29.1531C44.4355 29.2556 44.6873 29.476 44.8307 29.7657C44.9742 30.0554 44.9977 30.3908 44.896 30.698C44.7943 31.0052 44.5758 31.259 44.2885 31.4037C43.6906 31.704 43.417 31.7968 43.417 31.7968L44.5741 34.1318C44.8271 34.6407 44.9578 35.201 44.9578 35.7698V38.8554C44.9586 39.3707 44.8511 39.8804 44.6425 40.3508C44.4339 40.8212 44.1288 41.2417 43.7475 41.5847V43.1275C43.7475 43.6131 43.5562 44.0788 43.2157 44.4221C42.8752 44.7655 42.4134 44.9584 41.9319 44.9584C41.4504 44.9584 40.9886 44.7655 40.6482 44.4221C40.3077 44.0788 40.1164 43.6131 40.1164 43.1275V42.5172H25.5921V43.1275C25.5921 43.6131 25.4008 44.0788 25.0604 44.4221C24.7199 44.7655 24.2581 44.9584 23.7766 44.9584C23.2951 44.9584 22.8333 44.7655 22.4928 44.4221C22.1523 44.0788 21.961 43.6131 21.961 43.1275V41.5847C21.2179 40.9133 20.7507 39.9393 20.7507 38.8554V35.7698C20.7509 35.2016 20.8823 34.6412 21.1344 34.133L22.2915 31.7968C21.9983 31.6742 21.7085 31.5435 21.4224 31.405C21.2798 31.3336 21.1525 31.2345 21.0478 31.1134C20.9432 30.9923 20.8633 30.8516 20.8127 30.6993C20.7621 30.5471 20.7418 30.3862 20.753 30.226C20.7641 30.0658 20.8065 29.9094 20.8778 29.7657C21.0244 29.4775 21.2776 29.259 21.5826 29.1574C21.8876 29.0557 22.2201 29.0792 22.5081 29.2225C22.7926 29.3617 23.0842 29.4874 23.3772 29.607L25.0511 26.2321C25.3527 25.624 25.8162 25.1126 26.3898 24.7552C26.9633 24.3977 27.6242 24.2084 28.2985 24.2084H37.41ZM41.1258 32.6353C39.0682 33.2908 36.1404 33.9731 32.8543 33.9731C29.5681 33.9731 26.6403 33.2896 24.5827 32.6353L23.2997 35.223C23.2153 35.3927 23.1714 35.5799 23.1714 35.7698V38.8554C23.1714 39.1792 23.2989 39.4896 23.5259 39.7185C23.7529 39.9474 24.0607 40.076 24.3818 40.076H41.3268C41.6478 40.076 41.9556 39.9474 42.1826 39.7185C42.4096 39.4896 42.5371 39.1792 42.5371 38.8554V35.7698C42.5369 35.5803 42.493 35.3935 42.4088 35.2242L41.1258 32.6353ZM27.4076 35.1937C27.8892 35.1937 28.3509 35.3866 28.6914 35.7299C29.0319 36.0733 29.2232 36.539 29.2232 37.0246C29.2232 37.5101 29.0319 37.9758 28.6914 38.3192C28.3509 38.6625 27.8892 38.8554 27.4076 38.8554C26.9261 38.8554 26.4643 38.6625 26.1239 38.3192C25.7834 37.9758 25.5921 37.5101 25.5921 37.0246C25.5921 36.539 25.7834 36.0733 26.1239 35.7299C26.4643 35.3866 26.9261 35.1937 27.4076 35.1937ZM38.3009 35.1937C38.7824 35.1937 39.2442 35.3866 39.5846 35.7299C39.9251 36.0733 40.1164 36.539 40.1164 37.0246C40.1164 37.5101 39.9251 37.9758 39.5846 38.3192C39.2442 38.6625 38.7824 38.8554 38.3009 38.8554C37.8194 38.8554 37.3576 38.6625 37.0171 38.3192C36.6766 37.9758 36.4853 37.5101 36.4853 37.0246C36.4853 36.539 36.6766 36.0733 37.0171 35.7299C37.3576 35.3866 37.8194 35.1937 38.3009 35.1937ZM37.41 26.6496H28.2985C28.0738 26.6497 27.8535 26.7129 27.6624 26.8321C27.4713 26.9513 27.3169 27.1218 27.2164 27.3245L25.6793 30.4212C27.5529 30.9887 30.0777 31.5319 32.8543 31.5319C35.6308 31.5319 38.1556 30.9887 40.028 30.4212L38.4921 27.3245C38.3917 27.1218 38.2372 26.9513 38.0461 26.8321C37.855 26.7129 37.6348 26.6497 37.41 26.6496Z" fill="black" fill-opacity="0.2"/>
  <path d="M37.41 24.2084C38.0843 24.2084 38.7452 24.3977 39.3187 24.7552C39.8923 25.1126 40.3558 25.624 40.6574 26.2321L42.3314 29.607C42.6267 29.485 42.9208 29.3617 43.2064 29.2189C43.4937 29.0742 43.8263 29.0505 44.1309 29.1531C44.4355 29.2556 44.6873 29.476 44.8307 29.7657C44.9742 30.0554 44.9977 30.3908 44.896 30.698C44.7943 31.0052 44.5758 31.259 44.2885 31.4037C43.6906 31.704 43.417 31.7968 43.417 31.7968L44.5741 34.1318C44.8271 34.6407 44.9578 35.201 44.9578 35.7698V38.8554C44.9586 39.3707 44.8511 39.8804 44.6425 40.3508C44.4339 40.8212 44.1288 41.2417 43.7475 41.5847V43.1275C43.7475 43.6131 43.5562 44.0788 43.2157 44.4221C42.8752 44.7655 42.4134 44.9584 41.9319 44.9584C41.4504 44.9584 40.9886 44.7655 40.6482 44.4221C40.3077 44.0788 40.1164 43.6131 40.1164 43.1275V42.5172H25.5921V43.1275C25.5921 43.6131 25.4008 44.0788 25.0604 44.4221C24.7199 44.7655 24.2581 44.9584 23.7766 44.9584C23.2951 44.9584 22.8333 44.7655 22.4928 44.4221C22.1523 44.0788 21.961 43.6131 21.961 43.1275V41.5847C21.2179 40.9133 20.7507 39.9393 20.7507 38.8554V35.7698C20.7509 35.2016 20.8823 34.6412 21.1344 34.133L22.2915 31.7968C21.9983 31.6742 21.7085 31.5435 21.4224 31.405C21.2798 31.3336 21.1525 31.2345 21.0478 31.1134C20.9432 30.9923 20.8633 30.8516 20.8127 30.6993C20.7621 30.5471 20.7418 30.3862 20.753 30.226C20.7641 30.0658 20.8065 29.9094 20.8778 29.7657C21.0244 29.4775 21.2776 29.259 21.5826 29.1574C21.8876 29.0557 22.2201 29.0792 22.5081 29.2225C22.7926 29.3617 23.0842 29.4874 23.3772 29.607L25.0511 26.2321C25.3527 25.624 25.8162 25.1126 26.3898 24.7552C26.9633 24.3977 27.6242 24.2084 28.2985 24.2084H37.41ZM41.1258 32.6353C39.0682 33.2908 36.1404 33.9731 32.8543 33.9731C29.5681 33.9731 26.6403 33.2896 24.5827 32.6353L23.2997 35.223C23.2153 35.3927 23.1714 35.5799 23.1714 35.7698V38.8554C23.1714 39.1792 23.2989 39.4896 23.5259 39.7185C23.7529 39.9474 24.0607 40.076 24.3818 40.076H41.3268C41.6478 40.076 41.9556 39.9474 42.1826 39.7185C42.4096 39.4896 42.5371 39.1792 42.5371 38.8554V35.7698C42.5369 35.5803 42.493 35.3935 42.4088 35.2242L41.1258 32.6353ZM27.4076 35.1937C27.8892 35.1937 28.3509 35.3866 28.6914 35.7299C29.0319 36.0733 29.2232 36.539 29.2232 37.0246C29.2232 37.5101 29.0319 37.9758 28.6914 38.3192C28.3509 38.6625 27.8892 38.8554 27.4076 38.8554C26.9261 38.8554 26.4643 38.6625 26.1239 38.3192C25.7834 37.9758 25.5921 37.5101 25.5921 37.0246C25.5921 36.539 25.7834 36.0733 26.1239 35.7299C26.4643 35.3866 26.9261 35.1937 27.4076 35.1937ZM38.3009 35.1937C38.7824 35.1937 39.2442 35.3866 39.5846 35.7299C39.9251 36.0733 40.1164 36.539 40.1164 37.0246C40.1164 37.5101 39.9251 37.9758 39.5846 38.3192C39.2442 38.6625 38.7824 38.8554 38.3009 38.8554C37.8194 38.8554 37.3576 38.6625 37.0171 38.3192C36.6766 37.9758 36.4853 37.5101 36.4853 37.0246C36.4853 36.539 36.6766 36.0733 37.0171 35.7299C37.3576 35.3866 37.8194 35.1937 38.3009 35.1937ZM37.41 26.6496H28.2985C28.0738 26.6497 27.8535 26.7129 27.6624 26.8321C27.4713 26.9513 27.3169 27.1218 27.2164 27.3245L25.6793 30.4212C27.5529 30.9887 30.0777 31.5319 32.8543 31.5319C35.6308 31.5319 38.1556 30.9887 40.028 30.4212L38.4921 27.3245C38.3917 27.1218 38.2372 26.9513 38.0461 26.8321C37.855 26.7129 37.6348 26.6497 37.41 26.6496Z" fill="black" fill-opacity="0.2"/>
</svg>