<svg xmlns="http://www.w3.org/2000/svg" width="29" height="28" viewBox="0 0 29 28" fill="none">
  <path d="M2.16699 6V22.8649H26.167V6H2.16699ZM6.14776 7.87387H22.1862L14.167 13.2905L6.14776 7.87387ZM4.01315 8.69369L10.2439 12.9099L4.01315 17.3311V8.69369ZM24.3208 8.69369V17.3311L18.0901 12.9099L24.3208 8.69369ZM11.8593 14.0225L13.6478 15.223L14.167 15.545L14.6862 15.223L16.4747 14.0225L24.3208 19.5856V20.991H4.01315V19.5856L11.8593 14.0225Z" fill="#353B42"/>
  <path d="M2.16699 6V22.8649H26.167V6H2.16699ZM6.14776 7.87387H22.1862L14.167 13.2905L6.14776 7.87387ZM4.01315 8.69369L10.2439 12.9099L4.01315 17.3311V8.69369ZM24.3208 8.69369V17.3311L18.0901 12.9099L24.3208 8.69369ZM11.8593 14.0225L13.6478 15.223L14.167 15.545L14.6862 15.223L16.4747 14.0225L24.3208 19.5856V20.991H4.01315V19.5856L11.8593 14.0225Z" fill="black" fill-opacity="0.2"/>
  <path d="M2.16699 6V22.8649H26.167V6H2.16699ZM6.14776 7.87387H22.1862L14.167 13.2905L6.14776 7.87387ZM4.01315 8.69369L10.2439 12.9099L4.01315 17.3311V8.69369ZM24.3208 8.69369V17.3311L18.0901 12.9099L24.3208 8.69369ZM11.8593 14.0225L13.6478 15.223L14.167 15.545L14.6862 15.223L16.4747 14.0225L24.3208 19.5856V20.991H4.01315V19.5856L11.8593 14.0225Z" fill="black" fill-opacity="0.2"/>
</svg>