<svg xmlns="http://www.w3.org/2000/svg" width="38" height="37" viewBox="0 0 38 37" fill="none">
  <path d="M19 0C8.80099 0 0.5 8.30099 0.5 18.5C0.5 28.699 8.80099 37 19 37C29.199 37 37.5 28.699 37.5 18.5C37.5 8.30099 29.199 0 19 0ZM19 3.08333C27.5326 3.08333 34.4167 9.96735 34.4167 18.5C34.4167 26.2506 28.7305 32.6236 21.2944 33.73V22.9955H25.6846L26.3741 18.5361H21.2944V16.1002C21.2944 14.2486 21.9027 12.6043 23.634 12.6043H26.4163V8.71403C25.9276 8.64774 24.8933 8.50325 22.9385 8.50325C18.8561 8.50325 16.4647 10.6585 16.4647 15.5702V18.5361H12.2673V22.9955H16.4647V33.6908C9.14699 32.4839 3.58333 26.1668 3.58333 18.5C3.58333 9.96735 10.4674 3.08333 19 3.08333Z" fill="#353B42"/>
  <path d="M19 0C8.80099 0 0.5 8.30099 0.5 18.5C0.5 28.699 8.80099 37 19 37C29.199 37 37.5 28.699 37.5 18.5C37.5 8.30099 29.199 0 19 0ZM19 3.08333C27.5326 3.08333 34.4167 9.96735 34.4167 18.5C34.4167 26.2506 28.7305 32.6236 21.2944 33.73V22.9955H25.6846L26.3741 18.5361H21.2944V16.1002C21.2944 14.2486 21.9027 12.6043 23.634 12.6043H26.4163V8.71403C25.9276 8.64774 24.8933 8.50325 22.9385 8.50325C18.8561 8.50325 16.4647 10.6585 16.4647 15.5702V18.5361H12.2673V22.9955H16.4647V33.6908C9.14699 32.4839 3.58333 26.1668 3.58333 18.5C3.58333 9.96735 10.4674 3.08333 19 3.08333Z" fill="black" fill-opacity="0.2"/>
  <path d="M19 0C8.80099 0 0.5 8.30099 0.5 18.5C0.5 28.699 8.80099 37 19 37C29.199 37 37.5 28.699 37.5 18.5C37.5 8.30099 29.199 0 19 0ZM19 3.08333C27.5326 3.08333 34.4167 9.96735 34.4167 18.5C34.4167 26.2506 28.7305 32.6236 21.2944 33.73V22.9955H25.6846L26.3741 18.5361H21.2944V16.1002C21.2944 14.2486 21.9027 12.6043 23.634 12.6043H26.4163V8.71403C25.9276 8.64774 24.8933 8.50325 22.9385 8.50325C18.8561 8.50325 16.4647 10.6585 16.4647 15.5702V18.5361H12.2673V22.9955H16.4647V33.6908C9.14699 32.4839 3.58333 26.1668 3.58333 18.5C3.58333 9.96735 10.4674 3.08333 19 3.08333Z" fill="black" fill-opacity="0.2"/>
</svg>