<svg xmlns="http://www.w3.org/2000/svg" width="38" height="38" viewBox="0 0 38 38" fill="none">
  <path d="M18.75 0C8.41317 0 0 8.41317 0 18.75C0 29.0868 8.41317 37.5 18.75 37.5C29.0868 37.5 37.5 29.0868 37.5 18.75C37.5 8.41317 29.0868 0 18.75 0ZM18.75 3.125C27.398 3.125 34.375 10.102 34.375 18.75C34.375 26.6053 28.612 33.0645 21.0754 34.1858V23.3063H25.5249L26.2238 18.7866H21.0754V16.3177C21.0754 14.4412 21.692 12.7747 23.4467 12.7747H26.2665V8.83179C25.7712 8.7646 24.7229 8.61816 22.7417 8.61816C18.6042 8.61816 16.1804 10.8025 16.1804 15.7806V18.7866H11.9263V23.3063H16.1804V34.1461C8.76384 32.9229 3.125 26.5204 3.125 18.75C3.125 10.102 10.102 3.125 18.75 3.125Z" fill="#F5FAFF"/>
</svg>