<svg xmlns="http://www.w3.org/2000/svg" width="83" height="83" viewBox="0 0 83 83" fill="none">
<path d="M13.833 27.6668V20.7502C13.833 18.9157 14.5617 17.1565 15.8589 15.8593C17.156 14.5622 18.9153 13.8335 20.7497 13.8335H27.6663M13.833 55.3335V62.2502C13.833 64.0846 14.5617 65.8439 15.8589 67.141C17.156 68.4381 18.9153 69.1668 20.7497 69.1668H27.6663M55.333 13.8335H62.2497C64.0841 13.8335 65.8434 14.5622 67.1405 15.8593C68.4376 17.1565 69.1663 18.9157 69.1663 20.7502V27.6668M55.333 69.1668H62.2497C64.0841 69.1668 65.8434 68.4381 67.1405 67.141C68.4376 65.8439 69.1663 64.0846 69.1663 62.2502V55.3335M31.1247 34.5835H31.1593M51.8747 34.5835H51.9093M32.8538 51.8752C33.9808 53.0254 35.326 53.9392 36.8106 54.563C38.2952 55.1868 39.8893 55.5082 41.4997 55.5082C43.11 55.5082 44.7041 55.1868 46.1887 54.563C47.6733 53.9392 49.0185 53.0254 50.1455 51.8752" stroke="#353B42" stroke-width="8" stroke-linecap="round" stroke-linejoin="round"/>
</svg>