<svg xmlns="http://www.w3.org/2000/svg" width="92" height="92" viewBox="0 0 92 92" fill="none">
  <path d="M17.0197 17.02C17.5531 16.4859 18.1865 16.0622 18.8837 15.7731C19.5809 15.484 20.3283 15.3352 21.0831 15.3352C21.8379 15.3352 22.5852 15.484 23.2825 15.7731C23.9797 16.0622 24.6131 16.4859 25.1464 17.02L45.9997 37.8657L66.8531 17.02C67.3867 16.4864 68.0202 16.0631 68.7174 15.7743C69.4145 15.4855 70.1618 15.3369 70.9164 15.3369C71.671 15.3369 72.4183 15.4855 73.1155 15.7743C73.8127 16.0631 74.4461 16.4864 74.9797 17.02C75.5134 17.5536 75.9366 18.1871 76.2254 18.8843C76.5142 19.5814 76.6628 20.3287 76.6628 21.0833C76.6628 21.838 76.5142 22.5852 76.2254 23.2824C75.9366 23.9796 75.5134 24.6131 74.9797 25.1467L54.1341 46L74.9797 66.8533C76.0574 67.931 76.6628 69.3926 76.6628 70.9167C76.6628 72.4407 76.0574 73.9023 74.9797 74.98C73.9021 76.0577 72.4405 76.6631 70.9164 76.6631C69.3924 76.6631 67.9307 76.0577 66.8531 74.98L45.9997 54.1343L25.1464 74.98C24.0687 76.0577 22.6071 76.6631 21.0831 76.6631C19.559 76.6631 18.0974 76.0577 17.0197 74.98C15.9421 73.9023 15.3367 72.4407 15.3367 70.9167C15.3367 69.3926 15.9421 67.931 17.0197 66.8533L37.8654 46L17.0197 25.1467C16.4857 24.6133 16.0619 23.9799 15.7729 23.2827C15.4838 22.5855 15.335 21.8381 15.335 21.0833C15.335 20.3285 15.4838 19.5812 15.7729 18.8839C16.0619 18.1867 16.4857 17.5533 17.0197 17.02Z" fill="#E42E35"/>
</svg>