<svg xmlns="http://www.w3.org/2000/svg" width="55" height="55" viewBox="0 0 55 55" fill="none">
  <path d="M27.5 18.8742C13.4567 18.8742 2.07396 22.7562 2.07396 27.5046C2.07396 32.2529 13.4567 36.1327 27.5 36.1327C41.541 36.1327 52.9238 32.2529 52.9238 27.5046C52.9238 22.754 41.541 18.8742 27.5 18.8742ZM14.4421 33.1742C12.9388 33.1856 11.6165 32.2575 11.4629 30.651C11.3757 29.814 11.6173 28.9758 12.1367 28.3135C12.5835 27.7315 13.3398 27.2479 13.9792 27.1288C14.1854 27.0898 14.4673 27.115 14.5842 27.2525C14.7652 27.4656 14.7125 27.6971 14.5315 27.7888C14.0433 28.0385 13.4544 28.4648 13.1633 29.0492C13.03 29.297 12.9668 29.5764 12.9806 29.8575C12.9943 30.1386 13.0844 30.4105 13.2413 30.6442C13.844 31.554 15.526 31.5792 17.089 30.1285C17.4762 29.771 17.8223 29.4319 18.1729 29.0285C18.8604 28.2402 19.0896 27.9515 20.0063 26.6819C20.0177 26.6681 20.02 26.6498 20.0154 26.6406C20.0085 26.6246 19.9948 26.6177 19.9696 26.6177C19.3577 26.6337 18.8237 26.8171 18.3081 27.2021C18.1592 27.3121 17.9438 27.296 17.8498 27.154C17.7444 26.9935 17.82 26.7804 17.9919 26.6613C18.8237 26.0815 19.7335 25.9783 20.664 25.8202C20.664 25.8202 20.7281 25.8248 20.7808 25.7515C21.1635 25.2633 21.45 24.8233 21.8579 24.3283C22.2658 23.8242 22.7975 23.3658 23.2008 23.0175C23.7646 22.5317 24.1267 22.369 24.4933 22.1696C24.5919 22.1192 24.4819 22.0573 24.4521 22.0573C22.3988 21.6723 20.2652 21.1727 18.2256 21.929C16.814 22.456 16.1929 23.5744 16.4908 24.3238C16.704 24.8531 17.4006 24.9425 18.056 24.6217C18.626 24.339 19.1096 23.9084 19.4562 23.375C19.6556 23.0679 20.075 23.2879 19.8481 23.8219C19.2523 25.2221 18.1133 26.3358 16.7246 26.384C15.5421 26.4206 14.779 25.5521 14.7812 24.4796C14.7858 22.3621 17.1417 20.9688 19.6167 20.7625C22.5981 20.515 25.4215 21.3102 28.3823 21.6677C30.6488 21.9427 32.8235 21.9496 35.1015 21.4248C35.3719 21.3675 35.5598 21.5394 35.5438 21.8098C35.5208 22.204 35.216 22.5821 34.4667 22.9923C33.6119 23.4598 32.7181 23.6019 31.7854 23.611C29.5304 23.6294 27.429 22.7494 25.2542 22.2773C25.2588 22.3712 25.2817 22.4858 25.2015 22.5454C23.9983 23.4346 22.9098 24.3375 22.181 25.6025C22.1558 25.6323 22.1696 25.6598 22.2108 25.6575C22.8456 25.6231 23.414 25.6071 24.0052 25.5613C24.1083 25.5521 24.1129 25.5269 24.1038 25.4513C24.0714 25.2169 24.0961 24.9783 24.176 24.7556C24.2558 24.533 24.3882 24.3329 24.5621 24.1725C24.9563 23.8219 25.449 23.7829 25.7767 24.035C26.1433 24.3238 26.1135 24.844 25.9096 25.2335C25.8188 25.4046 25.6945 25.5557 25.5441 25.6777C25.3937 25.7998 25.2203 25.8903 25.0342 25.944C25.0342 25.944 24.9654 25.9577 24.9746 26.0219C24.9883 26.1204 25.4329 26.3679 25.4719 26.4344C25.5108 26.4963 25.4902 26.5948 25.4237 26.6681C25.3973 26.7003 25.3641 26.7263 25.3265 26.7441C25.2888 26.7619 25.2477 26.7712 25.206 26.7713C25.1304 26.7713 25.0846 26.7438 24.986 26.691C24.7502 26.566 24.5402 26.3972 24.3673 26.1938C24.3123 26.1227 24.2825 26.1204 24.1404 26.1273C23.501 26.1663 22.5042 26.2625 21.8281 26.3473C21.6654 26.3656 21.6402 26.3977 21.6081 26.455C20.531 28.231 19.3806 30.1446 18.1179 31.4279C16.7613 32.8029 15.636 33.165 14.4421 33.1742ZM43.6562 24.5438C43.4477 24.9058 39.419 31.0383 39.1646 31.6708C39.0844 31.8725 39.0729 32.026 39.1554 32.1383C39.3663 32.4225 39.836 32.2552 40.1294 32.0513C41.0025 31.4508 41.6075 30.7221 42.2767 30.085C42.3156 30.0552 42.3821 30.0438 42.4256 30.085C42.5242 30.1767 42.6685 30.2935 42.7694 30.399C42.7783 30.4072 42.7856 30.4171 42.7907 30.4282C42.7958 30.4392 42.7986 30.4512 42.799 30.4633C42.7995 30.4755 42.7975 30.4876 42.7932 30.499C42.7889 30.5103 42.7823 30.5208 42.774 30.5296C42.1617 31.2991 41.467 31.9992 40.7023 32.6173C39.6252 33.4515 38.5504 33.6646 38.0165 33.1306C37.8282 32.9342 37.7146 32.6779 37.6956 32.4065C37.691 32.2758 37.6246 32.269 37.5627 32.3285C36.9256 32.9588 35.821 33.6554 34.8173 33.1581C33.9785 32.7456 33.7838 31.7419 33.9396 30.8985C33.9419 30.8802 33.9258 30.761 33.8227 30.8298C33.6111 30.9836 33.3799 31.1085 33.1352 31.201C32.8721 31.3212 32.5857 31.3815 32.2965 31.3775C32.0885 31.3799 31.8836 31.3276 31.7022 31.2258C31.5208 31.124 31.3693 30.9764 31.2629 30.7977C31.1277 30.5539 31.053 30.2812 31.0452 30.0025C31.0429 29.9773 31.0063 29.9292 30.9696 29.991C30.2821 31.0383 29.6427 32.0513 28.9644 33.1146C28.9277 33.165 28.8956 33.1971 28.8269 33.1994L27.4817 33.2017C27.3992 33.2017 27.3602 33.1375 27.4038 33.0573C27.6421 32.599 28.9483 30.6969 29.8329 29.079C30.0781 28.6344 30.0277 28.4052 29.8765 28.3067C29.6863 28.1829 29.3081 28.3685 28.9896 28.6115C28.121 29.2692 27.3923 30.2958 27.021 30.7542C26.8033 31.0223 26.5971 31.421 26.0288 32.0375C25.1327 33.0115 23.9433 33.5706 22.8021 33.1833C22.5006 33.0812 22.2289 32.9066 22.0107 32.6748C21.7925 32.4431 21.6346 32.1612 21.5508 31.8542C21.5165 31.735 21.45 31.7029 21.3835 31.7808C21.2002 32.01 20.8221 32.3515 20.5058 32.5646C20.4715 32.5898 20.3867 32.6402 20.3133 32.6035C20.1754 32.4695 20.058 32.3159 19.965 32.1475C19.9512 32.1169 19.9473 32.0828 19.9539 32.0499C19.9604 32.0171 19.9772 31.9871 20.0017 31.9642C20.4531 31.5677 20.7006 31.3431 20.8977 31.0933C21.0444 30.91 21.1567 30.7038 21.2873 30.3715C21.5623 29.6794 22.1879 28.3869 23.4369 27.7177C23.8983 27.4565 24.4055 27.2861 24.931 27.2158C25.1602 27.1929 25.3504 27.2204 25.4192 27.3992C25.4444 27.4748 25.5085 27.6398 25.5475 27.7613C25.5727 27.8346 25.5544 27.8919 25.4673 27.924C24.734 28.2035 23.9938 28.6367 23.485 29.3219C22.9052 30.0965 22.7494 31.0315 23.1367 31.5677C23.4185 31.9573 23.8746 32.026 24.3146 31.8862C24.9792 31.6754 25.5475 31.0544 25.8408 30.3669C26.1571 29.6129 26.2075 28.7238 25.9737 27.94C25.9371 27.8048 25.9715 27.7017 26.0585 27.6283C26.235 27.484 26.4802 27.3717 26.5513 27.335C26.6212 27.2976 26.7026 27.2874 26.7796 27.3064C26.8566 27.3255 26.9239 27.3724 26.9683 27.4381C27.2113 27.7979 27.3419 28.3044 27.3579 28.8292C27.3717 28.9415 27.4175 28.9437 27.4725 28.8865C27.9079 28.4235 28.3113 27.9285 28.7742 27.5573C29.1981 27.2204 29.7413 26.9454 30.2477 26.9569C30.9031 26.9706 31.2285 27.4152 31.2079 28.2081C31.2056 28.309 31.2767 28.2998 31.3248 28.2333C31.4767 28.0052 31.6621 27.8012 31.8748 27.6283C32.3285 27.2548 32.7915 27.0875 33.275 27.1196C33.8708 27.1654 34.3475 27.7085 34.249 28.3273C34.2252 28.523 34.1541 28.71 34.0419 28.8721C33.9298 29.0342 33.7798 29.1665 33.605 29.2577C33.458 29.336 33.2909 29.3682 33.1254 29.3502C32.9599 29.3323 32.8036 29.2649 32.6769 29.1569C32.5787 29.064 32.5066 28.9469 32.468 28.8174C32.4294 28.6879 32.4256 28.5504 32.4569 28.419C32.4683 28.3617 32.395 28.309 32.3331 28.3731C31.751 28.9781 31.7075 29.7619 32.0879 30.1148C32.5073 30.5044 33.1375 30.2431 33.5958 29.9429C34.4346 29.3952 35.0854 28.6527 35.8394 28.0798C36.339 27.6994 36.9096 27.3602 37.549 27.2754C37.9002 27.2217 38.2594 27.2629 38.5894 27.3946C39.0477 27.5802 39.3365 27.9675 39.3731 28.3021C39.3823 28.4006 39.4556 28.4121 39.5175 28.325C39.8796 27.7612 41.8206 24.8485 41.981 24.5438C42.0269 24.4498 42.0819 24.436 42.185 24.436H43.5737C43.654 24.436 43.6906 24.4819 43.6562 24.5438ZM38.3396 29.5946C38.3254 29.6231 38.3229 29.656 38.3327 29.6863C38.3396 29.7321 38.4015 29.7779 38.461 29.8008C38.484 29.8077 38.4954 29.8238 38.4702 29.8742C38.2983 30.2408 38.1425 30.4517 37.9271 30.7702C37.7367 31.0517 37.505 31.3028 37.2396 31.515C36.8317 31.8519 36.2679 32.2185 35.8004 31.9733C35.5942 31.8656 35.5025 31.5746 35.5094 31.3408C35.5185 30.6808 35.8119 30.0025 36.355 29.3356C37.015 28.5221 37.746 28.1004 38.225 28.3319C38.72 28.5679 38.5642 29.1454 38.3396 29.5946ZM24.7065 25.284C24.6892 25.1375 24.7077 24.9891 24.7604 24.8514C24.8131 24.7137 24.8984 24.5909 25.009 24.4933C25.1396 24.3787 25.3138 24.3513 25.4215 24.4429C25.5406 24.546 25.4833 24.8027 25.3619 24.9792C25.23 25.1779 25.0305 25.322 24.8004 25.3848C24.7592 25.394 24.7225 25.3756 24.7065 25.284ZM27.5 17.1875C12.2375 17.1875 0 21.764 0 27.5C0 33.2017 12.336 37.8125 27.5 37.8125C42.664 37.8125 55 33.1833 55 27.5C55 21.8167 42.664 17.1875 27.5 17.1875ZM27.5 36.9142C12.9456 36.9142 1.14583 32.7021 1.14583 27.5046C1.14583 22.3048 12.9479 18.0927 27.5 18.0927C42.0521 18.0927 53.8496 22.3048 53.8496 27.5046C53.8496 32.7021 42.0521 36.9142 27.5 36.9142Z" fill="#353B42"/>
  <path d="M27.5 18.8742C13.4567 18.8742 2.07396 22.7562 2.07396 27.5046C2.07396 32.2529 13.4567 36.1327 27.5 36.1327C41.541 36.1327 52.9238 32.2529 52.9238 27.5046C52.9238 22.754 41.541 18.8742 27.5 18.8742ZM14.4421 33.1742C12.9388 33.1856 11.6165 32.2575 11.4629 30.651C11.3757 29.814 11.6173 28.9758 12.1367 28.3135C12.5835 27.7315 13.3398 27.2479 13.9792 27.1288C14.1854 27.0898 14.4673 27.115 14.5842 27.2525C14.7652 27.4656 14.7125 27.6971 14.5315 27.7888C14.0433 28.0385 13.4544 28.4648 13.1633 29.0492C13.03 29.297 12.9668 29.5764 12.9806 29.8575C12.9943 30.1386 13.0844 30.4105 13.2413 30.6442C13.844 31.554 15.526 31.5792 17.089 30.1285C17.4762 29.771 17.8223 29.4319 18.1729 29.0285C18.8604 28.2402 19.0896 27.9515 20.0063 26.6819C20.0177 26.6681 20.02 26.6498 20.0154 26.6406C20.0085 26.6246 19.9948 26.6177 19.9696 26.6177C19.3577 26.6337 18.8237 26.8171 18.3081 27.2021C18.1592 27.3121 17.9438 27.296 17.8498 27.154C17.7444 26.9935 17.82 26.7804 17.9919 26.6613C18.8237 26.0815 19.7335 25.9783 20.664 25.8202C20.664 25.8202 20.7281 25.8248 20.7808 25.7515C21.1635 25.2633 21.45 24.8233 21.8579 24.3283C22.2658 23.8242 22.7975 23.3658 23.2008 23.0175C23.7646 22.5317 24.1267 22.369 24.4933 22.1696C24.5919 22.1192 24.4819 22.0573 24.4521 22.0573C22.3988 21.6723 20.2652 21.1727 18.2256 21.929C16.814 22.456 16.1929 23.5744 16.4908 24.3238C16.704 24.8531 17.4006 24.9425 18.056 24.6217C18.626 24.339 19.1096 23.9084 19.4562 23.375C19.6556 23.0679 20.075 23.2879 19.8481 23.8219C19.2523 25.2221 18.1133 26.3358 16.7246 26.384C15.5421 26.4206 14.779 25.5521 14.7812 24.4796C14.7858 22.3621 17.1417 20.9688 19.6167 20.7625C22.5981 20.515 25.4215 21.3102 28.3823 21.6677C30.6488 21.9427 32.8235 21.9496 35.1015 21.4248C35.3719 21.3675 35.5598 21.5394 35.5438 21.8098C35.5208 22.204 35.216 22.5821 34.4667 22.9923C33.6119 23.4598 32.7181 23.6019 31.7854 23.611C29.5304 23.6294 27.429 22.7494 25.2542 22.2773C25.2588 22.3712 25.2817 22.4858 25.2015 22.5454C23.9983 23.4346 22.9098 24.3375 22.181 25.6025C22.1558 25.6323 22.1696 25.6598 22.2108 25.6575C22.8456 25.6231 23.414 25.6071 24.0052 25.5613C24.1083 25.5521 24.1129 25.5269 24.1038 25.4513C24.0714 25.2169 24.0961 24.9783 24.176 24.7556C24.2558 24.533 24.3882 24.3329 24.5621 24.1725C24.9563 23.8219 25.449 23.7829 25.7767 24.035C26.1433 24.3238 26.1135 24.844 25.9096 25.2335C25.8188 25.4046 25.6945 25.5557 25.5441 25.6777C25.3937 25.7998 25.2203 25.8903 25.0342 25.944C25.0342 25.944 24.9654 25.9577 24.9746 26.0219C24.9883 26.1204 25.4329 26.3679 25.4719 26.4344C25.5108 26.4963 25.4902 26.5948 25.4237 26.6681C25.3973 26.7003 25.3641 26.7263 25.3265 26.7441C25.2888 26.7619 25.2477 26.7712 25.206 26.7713C25.1304 26.7713 25.0846 26.7438 24.986 26.691C24.7502 26.566 24.5402 26.3972 24.3673 26.1938C24.3123 26.1227 24.2825 26.1204 24.1404 26.1273C23.501 26.1663 22.5042 26.2625 21.8281 26.3473C21.6654 26.3656 21.6402 26.3977 21.6081 26.455C20.531 28.231 19.3806 30.1446 18.1179 31.4279C16.7613 32.8029 15.636 33.165 14.4421 33.1742ZM43.6562 24.5438C43.4477 24.9058 39.419 31.0383 39.1646 31.6708C39.0844 31.8725 39.0729 32.026 39.1554 32.1383C39.3663 32.4225 39.836 32.2552 40.1294 32.0513C41.0025 31.4508 41.6075 30.7221 42.2767 30.085C42.3156 30.0552 42.3821 30.0438 42.4256 30.085C42.5242 30.1767 42.6685 30.2935 42.7694 30.399C42.7783 30.4072 42.7856 30.4171 42.7907 30.4282C42.7958 30.4392 42.7986 30.4512 42.799 30.4633C42.7995 30.4755 42.7975 30.4876 42.7932 30.499C42.7889 30.5103 42.7823 30.5208 42.774 30.5296C42.1617 31.2991 41.467 31.9992 40.7023 32.6173C39.6252 33.4515 38.5504 33.6646 38.0165 33.1306C37.8282 32.9342 37.7146 32.6779 37.6956 32.4065C37.691 32.2758 37.6246 32.269 37.5627 32.3285C36.9256 32.9588 35.821 33.6554 34.8173 33.1581C33.9785 32.7456 33.7838 31.7419 33.9396 30.8985C33.9419 30.8802 33.9258 30.761 33.8227 30.8298C33.6111 30.9836 33.3799 31.1085 33.1352 31.201C32.8721 31.3212 32.5857 31.3815 32.2965 31.3775C32.0885 31.3799 31.8836 31.3276 31.7022 31.2258C31.5208 31.124 31.3693 30.9764 31.2629 30.7977C31.1277 30.5539 31.053 30.2812 31.0452 30.0025C31.0429 29.9773 31.0063 29.9292 30.9696 29.991C30.2821 31.0383 29.6427 32.0513 28.9644 33.1146C28.9277 33.165 28.8956 33.1971 28.8269 33.1994L27.4817 33.2017C27.3992 33.2017 27.3602 33.1375 27.4038 33.0573C27.6421 32.599 28.9483 30.6969 29.8329 29.079C30.0781 28.6344 30.0277 28.4052 29.8765 28.3067C29.6863 28.1829 29.3081 28.3685 28.9896 28.6115C28.121 29.2692 27.3923 30.2958 27.021 30.7542C26.8033 31.0223 26.5971 31.421 26.0288 32.0375C25.1327 33.0115 23.9433 33.5706 22.8021 33.1833C22.5006 33.0812 22.2289 32.9066 22.0107 32.6748C21.7925 32.4431 21.6346 32.1612 21.5508 31.8542C21.5165 31.735 21.45 31.7029 21.3835 31.7808C21.2002 32.01 20.8221 32.3515 20.5058 32.5646C20.4715 32.5898 20.3867 32.6402 20.3133 32.6035C20.1754 32.4695 20.058 32.3159 19.965 32.1475C19.9512 32.1169 19.9473 32.0828 19.9539 32.0499C19.9604 32.0171 19.9772 31.9871 20.0017 31.9642C20.4531 31.5677 20.7006 31.3431 20.8977 31.0933C21.0444 30.91 21.1567 30.7038 21.2873 30.3715C21.5623 29.6794 22.1879 28.3869 23.4369 27.7177C23.8983 27.4565 24.4055 27.2861 24.931 27.2158C25.1602 27.1929 25.3504 27.2204 25.4192 27.3992C25.4444 27.4748 25.5085 27.6398 25.5475 27.7613C25.5727 27.8346 25.5544 27.8919 25.4673 27.924C24.734 28.2035 23.9938 28.6367 23.485 29.3219C22.9052 30.0965 22.7494 31.0315 23.1367 31.5677C23.4185 31.9573 23.8746 32.026 24.3146 31.8862C24.9792 31.6754 25.5475 31.0544 25.8408 30.3669C26.1571 29.6129 26.2075 28.7238 25.9737 27.94C25.9371 27.8048 25.9715 27.7017 26.0585 27.6283C26.235 27.484 26.4802 27.3717 26.5513 27.335C26.6212 27.2976 26.7026 27.2874 26.7796 27.3064C26.8566 27.3255 26.9239 27.3724 26.9683 27.4381C27.2113 27.7979 27.3419 28.3044 27.3579 28.8292C27.3717 28.9415 27.4175 28.9437 27.4725 28.8865C27.9079 28.4235 28.3113 27.9285 28.7742 27.5573C29.1981 27.2204 29.7413 26.9454 30.2477 26.9569C30.9031 26.9706 31.2285 27.4152 31.2079 28.2081C31.2056 28.309 31.2767 28.2998 31.3248 28.2333C31.4767 28.0052 31.6621 27.8012 31.8748 27.6283C32.3285 27.2548 32.7915 27.0875 33.275 27.1196C33.8708 27.1654 34.3475 27.7085 34.249 28.3273C34.2252 28.523 34.1541 28.71 34.0419 28.8721C33.9298 29.0342 33.7798 29.1665 33.605 29.2577C33.458 29.336 33.2909 29.3682 33.1254 29.3502C32.9599 29.3323 32.8036 29.2649 32.6769 29.1569C32.5787 29.064 32.5066 28.9469 32.468 28.8174C32.4294 28.6879 32.4256 28.5504 32.4569 28.419C32.4683 28.3617 32.395 28.309 32.3331 28.3731C31.751 28.9781 31.7075 29.7619 32.0879 30.1148C32.5073 30.5044 33.1375 30.2431 33.5958 29.9429C34.4346 29.3952 35.0854 28.6527 35.8394 28.0798C36.339 27.6994 36.9096 27.3602 37.549 27.2754C37.9002 27.2217 38.2594 27.2629 38.5894 27.3946C39.0477 27.5802 39.3365 27.9675 39.3731 28.3021C39.3823 28.4006 39.4556 28.4121 39.5175 28.325C39.8796 27.7612 41.8206 24.8485 41.981 24.5438C42.0269 24.4498 42.0819 24.436 42.185 24.436H43.5737C43.654 24.436 43.6906 24.4819 43.6562 24.5438ZM38.3396 29.5946C38.3254 29.6231 38.3229 29.656 38.3327 29.6863C38.3396 29.7321 38.4015 29.7779 38.461 29.8008C38.484 29.8077 38.4954 29.8238 38.4702 29.8742C38.2983 30.2408 38.1425 30.4517 37.9271 30.7702C37.7367 31.0517 37.505 31.3028 37.2396 31.515C36.8317 31.8519 36.2679 32.2185 35.8004 31.9733C35.5942 31.8656 35.5025 31.5746 35.5094 31.3408C35.5185 30.6808 35.8119 30.0025 36.355 29.3356C37.015 28.5221 37.746 28.1004 38.225 28.3319C38.72 28.5679 38.5642 29.1454 38.3396 29.5946ZM24.7065 25.284C24.6892 25.1375 24.7077 24.9891 24.7604 24.8514C24.8131 24.7137 24.8984 24.5909 25.009 24.4933C25.1396 24.3787 25.3138 24.3513 25.4215 24.4429C25.5406 24.546 25.4833 24.8027 25.3619 24.9792C25.23 25.1779 25.0305 25.322 24.8004 25.3848C24.7592 25.394 24.7225 25.3756 24.7065 25.284ZM27.5 17.1875C12.2375 17.1875 0 21.764 0 27.5C0 33.2017 12.336 37.8125 27.5 37.8125C42.664 37.8125 55 33.1833 55 27.5C55 21.8167 42.664 17.1875 27.5 17.1875ZM27.5 36.9142C12.9456 36.9142 1.14583 32.7021 1.14583 27.5046C1.14583 22.3048 12.9479 18.0927 27.5 18.0927C42.0521 18.0927 53.8496 22.3048 53.8496 27.5046C53.8496 32.7021 42.0521 36.9142 27.5 36.9142Z" fill="black" fill-opacity="0.2"/>
  <path d="M27.5 18.8742C13.4567 18.8742 2.07396 22.7562 2.07396 27.5046C2.07396 32.2529 13.4567 36.1327 27.5 36.1327C41.541 36.1327 52.9238 32.2529 52.9238 27.5046C52.9238 22.754 41.541 18.8742 27.5 18.8742ZM14.4421 33.1742C12.9388 33.1856 11.6165 32.2575 11.4629 30.651C11.3757 29.814 11.6173 28.9758 12.1367 28.3135C12.5835 27.7315 13.3398 27.2479 13.9792 27.1288C14.1854 27.0898 14.4673 27.115 14.5842 27.2525C14.7652 27.4656 14.7125 27.6971 14.5315 27.7888C14.0433 28.0385 13.4544 28.4648 13.1633 29.0492C13.03 29.297 12.9668 29.5764 12.9806 29.8575C12.9943 30.1386 13.0844 30.4105 13.2413 30.6442C13.844 31.554 15.526 31.5792 17.089 30.1285C17.4762 29.771 17.8223 29.4319 18.1729 29.0285C18.8604 28.2402 19.0896 27.9515 20.0063 26.6819C20.0177 26.6681 20.02 26.6498 20.0154 26.6406C20.0085 26.6246 19.9948 26.6177 19.9696 26.6177C19.3577 26.6337 18.8237 26.8171 18.3081 27.2021C18.1592 27.3121 17.9438 27.296 17.8498 27.154C17.7444 26.9935 17.82 26.7804 17.9919 26.6613C18.8237 26.0815 19.7335 25.9783 20.664 25.8202C20.664 25.8202 20.7281 25.8248 20.7808 25.7515C21.1635 25.2633 21.45 24.8233 21.8579 24.3283C22.2658 23.8242 22.7975 23.3658 23.2008 23.0175C23.7646 22.5317 24.1267 22.369 24.4933 22.1696C24.5919 22.1192 24.4819 22.0573 24.4521 22.0573C22.3988 21.6723 20.2652 21.1727 18.2256 21.929C16.814 22.456 16.1929 23.5744 16.4908 24.3238C16.704 24.8531 17.4006 24.9425 18.056 24.6217C18.626 24.339 19.1096 23.9084 19.4562 23.375C19.6556 23.0679 20.075 23.2879 19.8481 23.8219C19.2523 25.2221 18.1133 26.3358 16.7246 26.384C15.5421 26.4206 14.779 25.5521 14.7812 24.4796C14.7858 22.3621 17.1417 20.9688 19.6167 20.7625C22.5981 20.515 25.4215 21.3102 28.3823 21.6677C30.6488 21.9427 32.8235 21.9496 35.1015 21.4248C35.3719 21.3675 35.5598 21.5394 35.5438 21.8098C35.5208 22.204 35.216 22.5821 34.4667 22.9923C33.6119 23.4598 32.7181 23.6019 31.7854 23.611C29.5304 23.6294 27.429 22.7494 25.2542 22.2773C25.2588 22.3712 25.2817 22.4858 25.2015 22.5454C23.9983 23.4346 22.9098 24.3375 22.181 25.6025C22.1558 25.6323 22.1696 25.6598 22.2108 25.6575C22.8456 25.6231 23.414 25.6071 24.0052 25.5613C24.1083 25.5521 24.1129 25.5269 24.1038 25.4513C24.0714 25.2169 24.0961 24.9783 24.176 24.7556C24.2558 24.533 24.3882 24.3329 24.5621 24.1725C24.9563 23.8219 25.449 23.7829 25.7767 24.035C26.1433 24.3238 26.1135 24.844 25.9096 25.2335C25.8188 25.4046 25.6945 25.5557 25.5441 25.6777C25.3937 25.7998 25.2203 25.8903 25.0342 25.944C25.0342 25.944 24.9654 25.9577 24.9746 26.0219C24.9883 26.1204 25.4329 26.3679 25.4719 26.4344C25.5108 26.4963 25.4902 26.5948 25.4237 26.6681C25.3973 26.7003 25.3641 26.7263 25.3265 26.7441C25.2888 26.7619 25.2477 26.7712 25.206 26.7713C25.1304 26.7713 25.0846 26.7438 24.986 26.691C24.7502 26.566 24.5402 26.3972 24.3673 26.1938C24.3123 26.1227 24.2825 26.1204 24.1404 26.1273C23.501 26.1663 22.5042 26.2625 21.8281 26.3473C21.6654 26.3656 21.6402 26.3977 21.6081 26.455C20.531 28.231 19.3806 30.1446 18.1179 31.4279C16.7613 32.8029 15.636 33.165 14.4421 33.1742ZM43.6562 24.5438C43.4477 24.9058 39.419 31.0383 39.1646 31.6708C39.0844 31.8725 39.0729 32.026 39.1554 32.1383C39.3663 32.4225 39.836 32.2552 40.1294 32.0513C41.0025 31.4508 41.6075 30.7221 42.2767 30.085C42.3156 30.0552 42.3821 30.0438 42.4256 30.085C42.5242 30.1767 42.6685 30.2935 42.7694 30.399C42.7783 30.4072 42.7856 30.4171 42.7907 30.4282C42.7958 30.4392 42.7986 30.4512 42.799 30.4633C42.7995 30.4755 42.7975 30.4876 42.7932 30.499C42.7889 30.5103 42.7823 30.5208 42.774 30.5296C42.1617 31.2991 41.467 31.9992 40.7023 32.6173C39.6252 33.4515 38.5504 33.6646 38.0165 33.1306C37.8282 32.9342 37.7146 32.6779 37.6956 32.4065C37.691 32.2758 37.6246 32.269 37.5627 32.3285C36.9256 32.9588 35.821 33.6554 34.8173 33.1581C33.9785 32.7456 33.7838 31.7419 33.9396 30.8985C33.9419 30.8802 33.9258 30.761 33.8227 30.8298C33.6111 30.9836 33.3799 31.1085 33.1352 31.201C32.8721 31.3212 32.5857 31.3815 32.2965 31.3775C32.0885 31.3799 31.8836 31.3276 31.7022 31.2258C31.5208 31.124 31.3693 30.9764 31.2629 30.7977C31.1277 30.5539 31.053 30.2812 31.0452 30.0025C31.0429 29.9773 31.0063 29.9292 30.9696 29.991C30.2821 31.0383 29.6427 32.0513 28.9644 33.1146C28.9277 33.165 28.8956 33.1971 28.8269 33.1994L27.4817 33.2017C27.3992 33.2017 27.3602 33.1375 27.4038 33.0573C27.6421 32.599 28.9483 30.6969 29.8329 29.079C30.0781 28.6344 30.0277 28.4052 29.8765 28.3067C29.6863 28.1829 29.3081 28.3685 28.9896 28.6115C28.121 29.2692 27.3923 30.2958 27.021 30.7542C26.8033 31.0223 26.5971 31.421 26.0288 32.0375C25.1327 33.0115 23.9433 33.5706 22.8021 33.1833C22.5006 33.0812 22.2289 32.9066 22.0107 32.6748C21.7925 32.4431 21.6346 32.1612 21.5508 31.8542C21.5165 31.735 21.45 31.7029 21.3835 31.7808C21.2002 32.01 20.8221 32.3515 20.5058 32.5646C20.4715 32.5898 20.3867 32.6402 20.3133 32.6035C20.1754 32.4695 20.058 32.3159 19.965 32.1475C19.9512 32.1169 19.9473 32.0828 19.9539 32.0499C19.9604 32.0171 19.9772 31.9871 20.0017 31.9642C20.4531 31.5677 20.7006 31.3431 20.8977 31.0933C21.0444 30.91 21.1567 30.7038 21.2873 30.3715C21.5623 29.6794 22.1879 28.3869 23.4369 27.7177C23.8983 27.4565 24.4055 27.2861 24.931 27.2158C25.1602 27.1929 25.3504 27.2204 25.4192 27.3992C25.4444 27.4748 25.5085 27.6398 25.5475 27.7613C25.5727 27.8346 25.5544 27.8919 25.4673 27.924C24.734 28.2035 23.9938 28.6367 23.485 29.3219C22.9052 30.0965 22.7494 31.0315 23.1367 31.5677C23.4185 31.9573 23.8746 32.026 24.3146 31.8862C24.9792 31.6754 25.5475 31.0544 25.8408 30.3669C26.1571 29.6129 26.2075 28.7238 25.9737 27.94C25.9371 27.8048 25.9715 27.7017 26.0585 27.6283C26.235 27.484 26.4802 27.3717 26.5513 27.335C26.6212 27.2976 26.7026 27.2874 26.7796 27.3064C26.8566 27.3255 26.9239 27.3724 26.9683 27.4381C27.2113 27.7979 27.3419 28.3044 27.3579 28.8292C27.3717 28.9415 27.4175 28.9437 27.4725 28.8865C27.9079 28.4235 28.3113 27.9285 28.7742 27.5573C29.1981 27.2204 29.7413 26.9454 30.2477 26.9569C30.9031 26.9706 31.2285 27.4152 31.2079 28.2081C31.2056 28.309 31.2767 28.2998 31.3248 28.2333C31.4767 28.0052 31.6621 27.8012 31.8748 27.6283C32.3285 27.2548 32.7915 27.0875 33.275 27.1196C33.8708 27.1654 34.3475 27.7085 34.249 28.3273C34.2252 28.523 34.1541 28.71 34.0419 28.8721C33.9298 29.0342 33.7798 29.1665 33.605 29.2577C33.458 29.336 33.2909 29.3682 33.1254 29.3502C32.9599 29.3323 32.8036 29.2649 32.6769 29.1569C32.5787 29.064 32.5066 28.9469 32.468 28.8174C32.4294 28.6879 32.4256 28.5504 32.4569 28.419C32.4683 28.3617 32.395 28.309 32.3331 28.3731C31.751 28.9781 31.7075 29.7619 32.0879 30.1148C32.5073 30.5044 33.1375 30.2431 33.5958 29.9429C34.4346 29.3952 35.0854 28.6527 35.8394 28.0798C36.339 27.6994 36.9096 27.3602 37.549 27.2754C37.9002 27.2217 38.2594 27.2629 38.5894 27.3946C39.0477 27.5802 39.3365 27.9675 39.3731 28.3021C39.3823 28.4006 39.4556 28.4121 39.5175 28.325C39.8796 27.7612 41.8206 24.8485 41.981 24.5438C42.0269 24.4498 42.0819 24.436 42.185 24.436H43.5737C43.654 24.436 43.6906 24.4819 43.6562 24.5438ZM38.3396 29.5946C38.3254 29.6231 38.3229 29.656 38.3327 29.6863C38.3396 29.7321 38.4015 29.7779 38.461 29.8008C38.484 29.8077 38.4954 29.8238 38.4702 29.8742C38.2983 30.2408 38.1425 30.4517 37.9271 30.7702C37.7367 31.0517 37.505 31.3028 37.2396 31.515C36.8317 31.8519 36.2679 32.2185 35.8004 31.9733C35.5942 31.8656 35.5025 31.5746 35.5094 31.3408C35.5185 30.6808 35.8119 30.0025 36.355 29.3356C37.015 28.5221 37.746 28.1004 38.225 28.3319C38.72 28.5679 38.5642 29.1454 38.3396 29.5946ZM24.7065 25.284C24.6892 25.1375 24.7077 24.9891 24.7604 24.8514C24.8131 24.7137 24.8984 24.5909 25.009 24.4933C25.1396 24.3787 25.3138 24.3513 25.4215 24.4429C25.5406 24.546 25.4833 24.8027 25.3619 24.9792C25.23 25.1779 25.0305 25.322 24.8004 25.3848C24.7592 25.394 24.7225 25.3756 24.7065 25.284ZM27.5 17.1875C12.2375 17.1875 0 21.764 0 27.5C0 33.2017 12.336 37.8125 27.5 37.8125C42.664 37.8125 55 33.1833 55 27.5C55 21.8167 42.664 17.1875 27.5 17.1875ZM27.5 36.9142C12.9456 36.9142 1.14583 32.7021 1.14583 27.5046C1.14583 22.3048 12.9479 18.0927 27.5 18.0927C42.0521 18.0927 53.8496 22.3048 53.8496 27.5046C53.8496 32.7021 42.0521 36.9142 27.5 36.9142Z" fill="black" fill-opacity="0.2"/>
</svg>