<svg xmlns="http://www.w3.org/2000/svg" width="66" height="66" viewBox="0 0 66 66" fill="none">
  <g clip-path="url(#clip0_696_2145)">
    <path fill-rule="evenodd" clip-rule="evenodd" d="M21.3811 15.3258C18.7136 18.0125 16.9893 21.912 16.2936 26.6723C16.2369 27.0617 16.0974 27.4344 15.8844 27.7653C15.6713 28.0962 15.3898 28.3775 15.0587 28.5902C14.7276 28.8029 14.3548 28.9421 13.9653 28.9983C13.5758 29.0546 13.1788 29.0266 12.8011 28.9163C12.0421 28.6963 11.5663 29.3892 11.3271 30.0327C11.0163 30.8687 10.9228 32.0815 11.2831 33.429C11.5966 34.5977 12.7048 37.0315 14.2806 36.8857C14.8951 36.8285 15.5111 36.9796 16.0293 37.3148C16.5476 37.65 16.938 38.1498 17.1378 38.7337C19.9318 46.9067 26.9471 52.25 32.9998 52.25C39.0526 52.25 46.0678 46.9067 48.8618 38.7337C49.0614 38.1478 49.4529 37.6463 49.9729 37.3104C50.4929 36.9745 51.1111 36.8239 51.7273 36.883C53.3031 37.0342 54.4141 34.5977 54.7276 33.429C55.0878 32.0815 54.9943 30.8687 54.6836 30.0327C54.4416 29.3865 53.9658 28.6935 53.2041 28.9163C52.8262 29.0275 52.4288 29.0563 52.0388 29.0007C51.6489 28.945 51.2754 28.8062 50.9437 28.5937C50.612 28.3812 50.3299 28.0999 50.1163 27.7689C49.9028 27.4378 49.7629 27.0648 49.7061 26.675C49.0103 21.9147 47.2861 18.0125 44.6186 15.3285C41.9978 12.6885 38.2523 11 32.9998 11C27.7501 11 24.0018 12.6912 21.3811 15.3258ZM17.4788 11.4483C21.2463 7.65875 26.4603 5.5 32.9998 5.5C39.5421 5.5 44.7506 7.65875 48.5208 11.451C51.6998 14.6493 53.6908 18.8485 54.7083 23.4767C54.8596 23.5042 55.0108 23.54 55.1593 23.5812C57.5491 24.2192 59.0891 26.1003 59.8398 28.1188C60.5906 30.1428 60.6621 32.5325 60.0406 34.8535C59.1688 38.1068 56.8368 41.316 53.4351 42.1823C49.7171 51.1225 41.4863 57.75 32.9998 57.75C24.5106 57.75 16.2798 51.117 12.5646 42.1795C9.16831 41.3078 6.84181 38.1012 5.97006 34.8535C5.34856 32.5325 5.42006 30.1427 6.17081 28.116C6.92156 26.1003 8.46156 24.2193 10.8513 23.5785C10.9971 23.54 11.1428 23.507 11.2913 23.4795C12.3088 18.8485 14.2998 14.6493 17.4788 11.4483Z" fill="#353B42"/>
    <path fill-rule="evenodd" clip-rule="evenodd" d="M21.3811 15.3258C18.7136 18.0125 16.9893 21.912 16.2936 26.6723C16.2369 27.0617 16.0974 27.4344 15.8844 27.7653C15.6713 28.0962 15.3898 28.3775 15.0587 28.5902C14.7276 28.8029 14.3548 28.9421 13.9653 28.9983C13.5758 29.0546 13.1788 29.0266 12.8011 28.9163C12.0421 28.6963 11.5663 29.3892 11.3271 30.0327C11.0163 30.8687 10.9228 32.0815 11.2831 33.429C11.5966 34.5977 12.7048 37.0315 14.2806 36.8857C14.8951 36.8285 15.5111 36.9796 16.0293 37.3148C16.5476 37.65 16.938 38.1498 17.1378 38.7337C19.9318 46.9067 26.9471 52.25 32.9998 52.25C39.0526 52.25 46.0678 46.9067 48.8618 38.7337C49.0614 38.1478 49.4529 37.6463 49.9729 37.3104C50.4929 36.9745 51.1111 36.8239 51.7273 36.883C53.3031 37.0342 54.4141 34.5977 54.7276 33.429C55.0878 32.0815 54.9943 30.8687 54.6836 30.0327C54.4416 29.3865 53.9658 28.6935 53.2041 28.9163C52.8262 29.0275 52.4288 29.0563 52.0388 29.0007C51.6489 28.945 51.2754 28.8062 50.9437 28.5937C50.612 28.3812 50.3299 28.0999 50.1163 27.7689C49.9028 27.4378 49.7629 27.0648 49.7061 26.675C49.0103 21.9147 47.2861 18.0125 44.6186 15.3285C41.9978 12.6885 38.2523 11 32.9998 11C27.7501 11 24.0018 12.6912 21.3811 15.3258ZM17.4788 11.4483C21.2463 7.65875 26.4603 5.5 32.9998 5.5C39.5421 5.5 44.7506 7.65875 48.5208 11.451C51.6998 14.6493 53.6908 18.8485 54.7083 23.4767C54.8596 23.5042 55.0108 23.54 55.1593 23.5812C57.5491 24.2192 59.0891 26.1003 59.8398 28.1188C60.5906 30.1428 60.6621 32.5325 60.0406 34.8535C59.1688 38.1068 56.8368 41.316 53.4351 42.1823C49.7171 51.1225 41.4863 57.75 32.9998 57.75C24.5106 57.75 16.2798 51.117 12.5646 42.1795C9.16831 41.3078 6.84181 38.1012 5.97006 34.8535C5.34856 32.5325 5.42006 30.1427 6.17081 28.116C6.92156 26.1003 8.46156 24.2193 10.8513 23.5785C10.9971 23.54 11.1428 23.507 11.2913 23.4795C12.3088 18.8485 14.2998 14.6493 17.4788 11.4483Z" fill="black" fill-opacity="0.2"/>
    <path fill-rule="evenodd" clip-rule="evenodd" d="M21.3811 15.3258C18.7136 18.0125 16.9893 21.912 16.2936 26.6723C16.2369 27.0617 16.0974 27.4344 15.8844 27.7653C15.6713 28.0962 15.3898 28.3775 15.0587 28.5902C14.7276 28.8029 14.3548 28.9421 13.9653 28.9983C13.5758 29.0546 13.1788 29.0266 12.8011 28.9163C12.0421 28.6963 11.5663 29.3892 11.3271 30.0327C11.0163 30.8687 10.9228 32.0815 11.2831 33.429C11.5966 34.5977 12.7048 37.0315 14.2806 36.8857C14.8951 36.8285 15.5111 36.9796 16.0293 37.3148C16.5476 37.65 16.938 38.1498 17.1378 38.7337C19.9318 46.9067 26.9471 52.25 32.9998 52.25C39.0526 52.25 46.0678 46.9067 48.8618 38.7337C49.0614 38.1478 49.4529 37.6463 49.9729 37.3104C50.4929 36.9745 51.1111 36.8239 51.7273 36.883C53.3031 37.0342 54.4141 34.5977 54.7276 33.429C55.0878 32.0815 54.9943 30.8687 54.6836 30.0327C54.4416 29.3865 53.9658 28.6935 53.2041 28.9163C52.8262 29.0275 52.4288 29.0563 52.0388 29.0007C51.6489 28.945 51.2754 28.8062 50.9437 28.5937C50.612 28.3812 50.3299 28.0999 50.1163 27.7689C49.9028 27.4378 49.7629 27.0648 49.7061 26.675C49.0103 21.9147 47.2861 18.0125 44.6186 15.3285C41.9978 12.6885 38.2523 11 32.9998 11C27.7501 11 24.0018 12.6912 21.3811 15.3258ZM17.4788 11.4483C21.2463 7.65875 26.4603 5.5 32.9998 5.5C39.5421 5.5 44.7506 7.65875 48.5208 11.451C51.6998 14.6493 53.6908 18.8485 54.7083 23.4767C54.8596 23.5042 55.0108 23.54 55.1593 23.5812C57.5491 24.2192 59.0891 26.1003 59.8398 28.1188C60.5906 30.1428 60.6621 32.5325 60.0406 34.8535C59.1688 38.1068 56.8368 41.316 53.4351 42.1823C49.7171 51.1225 41.4863 57.75 32.9998 57.75C24.5106 57.75 16.2798 51.117 12.5646 42.1795C9.16831 41.3078 6.84181 38.1012 5.97006 34.8535C5.34856 32.5325 5.42006 30.1427 6.17081 28.116C6.92156 26.1003 8.46156 24.2193 10.8513 23.5785C10.9971 23.54 11.1428 23.507 11.2913 23.4795C12.3088 18.8485 14.2998 14.6493 17.4788 11.4483Z" fill="black" fill-opacity="0.2"/>
  </g>
  <defs>
    <clipPath id="clip0_696_2145">
      <rect width="66" height="66" fill="white"/>
    </clipPath>
  </defs>
</svg>