<svg xmlns="http://www.w3.org/2000/svg" width="20" height="20" viewBox="0 0 20 20" fill="none">
  <path d="M4.47249 8.5353C3.57499 7.01864 3.12666 6.2603 3.425 5.65697C3.725 5.05364 4.57416 5.00447 6.27333 4.90697L6.7125 4.88197C7.19583 4.85364 7.43666 4.8403 7.64749 4.7278C7.85749 4.6153 8.01333 4.4178 8.32499 4.02114L8.60833 3.66114C9.70499 2.26697 10.2533 1.5703 10.8833 1.6778C11.5133 1.7853 11.8083 2.6253 12.3975 4.30614M4.83749 11.2586C4.37666 13.0003 4.14583 13.8703 4.59166 14.3503C5.03666 14.8303 5.86166 14.6028 7.5125 14.1461L8.32583 13.7511M14.2067 6.25947C15.7817 6.91447 16.5692 7.2428 16.6583 7.91197C16.735 8.48364 16.2608 8.98114 15.2917 9.8203" stroke="#27C11A" stroke-width="1.5" stroke-linecap="round"/>
  <path d="M13.5325 16.3083C14.77 16.63 15.3892 16.7916 15.7234 16.4525C16.0567 16.1133 15.8842 15.4991 15.5392 14.2691L15.4492 13.9525C15.3517 13.6025 15.3025 13.4275 15.3267 13.255C15.3517 13.0816 15.4475 12.93 15.6384 12.625L15.8134 12.3483C16.4859 11.2775 16.8217 10.7425 16.5967 10.3166C16.3725 9.8908 15.7359 9.8558 14.4617 9.78747L14.1317 9.76913C13.77 9.74997 13.5884 9.73997 13.4309 9.6608C13.2725 9.58163 13.1559 9.44163 12.9225 9.16163L12.71 8.90747C11.8875 7.92413 11.4767 7.43247 11.0034 7.50747C10.5309 7.5833 10.31 8.17663 9.86836 9.3633L9.75336 9.66997C9.62836 10.0075 9.56502 10.1758 9.44252 10.3C9.32086 10.4241 9.15252 10.49 8.81752 10.6216L8.51169 10.7408C7.33086 11.2033 6.74002 11.435 6.67252 11.9075C6.60586 12.38 7.10585 12.7816 8.10669 13.5833L8.36502 13.7916C8.65002 14.0191 8.79252 14.1333 8.87419 14.2891C8.95752 14.445 8.97002 14.6258 8.99586 14.9866L9.02002 15.315C9.11169 16.5841 9.15836 17.2191 9.58919 17.4358C10.02 17.6525 10.5509 17.3066 11.6117 16.6166" stroke="#27C11A" stroke-width="1.5" stroke-linecap="round"/>
</svg>