<svg xmlns="http://www.w3.org/2000/svg" width="103" height="38" viewBox="0 0 103 38" fill="none">
  <g clip-path="url(#clip0_693_827)">
    <path d="M24.4528 6.74927C29.3041 7.47658 34.143 8.20389 38.9912 8.9312C38.9029 9.08897 38.7696 9.02113 38.6611 9.02113C37.0925 9.00693 35.5209 9.02744 33.9555 8.9596C32.173 8.88229 30.3921 8.88387 28.6113 8.92173C26.0755 8.97538 23.5383 8.98011 21.0057 9.14734C19.1721 9.26882 17.337 9.37768 15.5127 9.60803C13.6744 9.83994 11.8393 10.0766 10.0569 10.6319C6.72449 11.6685 4.04154 13.6169 2.02506 16.5056C1.28419 17.5658 0.664208 18.697 0.239523 19.9308C0.194575 20.0586 0.146527 20.1816 0.00548166 20.3362C-0.0921648 15.5149 1.83752 11.8404 5.71083 9.15365C5.70928 8.6346 5.31249 8.20705 5.28614 7.66117C6.01462 7.56335 6.74929 7.58859 7.47776 7.50025C9.12845 7.30146 10.7652 7.00959 12.4019 6.72245C15.7622 6.1324 18.9784 5.02644 22.1976 3.92207C24.6108 3.09378 27.0443 2.33492 29.5211 1.73225C31.4539 1.2621 33.4052 0.883455 35.3768 0.593162C38.9106 0.0709499 42.4631 -0.0741967 46.028 0.0330855C47.9809 0.0914597 49.9214 0.30918 51.8496 0.635759C54.748 1.12642 57.5844 1.86477 60.3619 2.84293C64.5204 4.30702 68.4836 6.18762 72.1848 8.61882C72.5894 8.88545 72.9908 9.00693 73.4775 9.01955C75.3731 9.07161 77.2625 9.22149 79.1487 9.42501C80.3019 9.54965 81.4535 9.67429 82.602 9.8289C84.1334 10.034 85.6569 10.2896 87.1743 10.5862C89.1846 10.979 91.1748 11.465 93.1261 12.096C95.5285 12.8738 97.8411 13.8536 99.8296 15.4817C101.096 16.5198 102.155 17.7315 102.751 19.3013C102.875 19.6263 102.998 19.9592 103.001 20.371C102.671 19.9529 102.489 19.4969 102.198 19.112C100.98 17.5043 99.4065 16.3526 97.669 15.4107C95.8478 14.4231 93.9026 13.7983 91.8831 13.3929C89.3985 12.8928 86.8938 12.5567 84.3751 12.2822C81.8549 12.0061 79.327 11.8404 76.8006 11.6527C75.5079 11.5565 74.2106 11.5359 72.9149 11.4776C72.5088 11.4602 72.1027 11.4255 71.6966 11.4145C71.4688 11.4082 71.2936 11.2977 71.1107 11.1841C68.9486 9.84626 66.7445 8.58569 64.4677 7.46238C61.8932 6.19235 59.2568 5.08482 56.5149 4.23445C54.6457 3.65544 52.7501 3.20896 50.8266 2.88869C49.5107 2.67097 48.1793 2.56999 46.8479 2.47849C44.7741 2.33492 42.7049 2.44063 40.645 2.64257C38.2023 2.88238 35.789 3.32728 33.4006 3.90629C30.5068 4.60678 27.6658 5.48713 24.8588 6.48106C24.7224 6.52997 24.5365 6.50631 24.4543 6.74769L24.4528 6.74927Z" fill="#E42E35"/>
    <path d="M26.8078 30.5265H22.6137V19.945H26.752C26.8512 20.7071 26.7195 21.4549 26.8326 22.2122C27.6525 22.2942 28.443 22.2421 29.2195 22.0938C29.9635 21.9503 30.2998 21.5038 30.3432 20.7291C30.3618 20.4152 30.3432 20.1044 30.2394 19.7967C30.0627 19.2745 29.7264 18.9953 29.1839 18.9337C28.6414 18.8722 28.102 18.9022 27.5611 18.9022C24.8099 18.9038 22.0588 18.9022 19.3092 18.9038C19.0999 18.9038 18.886 18.8738 18.6877 18.9369C18.5761 19.1373 18.6272 19.3376 18.6257 19.5301C18.6164 21.1078 18.6334 22.6855 18.6009 24.2616C18.5389 27.2513 16.9781 29.2502 14.3385 30.14C11.9128 30.9572 9.47943 30.872 7.17777 29.6967C5.20004 28.687 4.05153 26.991 3.97093 24.7222C3.88258 22.2406 3.94148 19.7541 3.93683 17.2709C3.93683 16.7991 3.93683 16.3258 3.93683 15.8131H8.06743C8.17283 16.015 8.12013 16.2343 8.12013 16.4442C8.13098 18.7302 8.12478 21.0179 8.14493 23.3039C8.15113 24.017 8.31078 24.708 8.62386 25.3533C9.1493 26.4325 10.1289 26.9862 11.3812 26.9342C13.2799 26.8537 14.027 25.6057 14.2982 24.0612C14.3866 23.5563 14.4067 23.0452 14.4021 22.5308C14.3881 20.5193 14.385 18.5093 14.3788 16.4978C14.3788 16.2817 14.3788 16.0655 14.3788 15.873C14.5199 15.6995 14.6857 15.7642 14.8298 15.7626C15.9334 15.7579 17.0416 15.7121 18.1421 15.7721C22.0309 15.9851 25.9212 15.832 29.8116 15.892C30.9555 15.9093 32.0435 16.187 32.9642 16.9096C34.3095 17.9666 34.8024 19.4228 34.6071 21.092C34.4056 22.8117 33.4834 24.0296 31.8684 24.6607C31.7072 24.7238 31.5475 24.7854 31.3879 24.8516C31.3724 24.8579 31.3646 24.8816 31.3321 24.9273C32.4202 26.7622 33.5144 28.6096 34.6412 30.5076H30.6067C29.6256 28.7516 28.615 26.9436 27.5967 25.1214C27.3503 25.0614 27.1054 25.0725 26.8094 25.1167V30.5281L26.8078 30.5265Z" fill="#353B42"/>
    <path d="M81.4623 15.9156H85.6068C85.72 16.1097 85.6735 16.2911 85.6735 16.4631C85.6766 18.8501 85.6797 21.2356 85.6735 23.6226C85.6704 24.4509 85.6223 25.276 85.4069 26.0822C84.8954 28.0086 83.6864 29.3322 81.8978 30.0532C79.3125 31.0961 76.707 31.0614 74.1961 29.8087C72.3749 28.8999 71.3241 27.3538 71.0311 25.2886C70.9583 24.779 70.9428 24.2695 70.9428 23.7567C70.9443 21.3507 70.9428 18.9448 70.9459 16.5388C70.9459 16.3463 70.9056 16.146 71.0017 15.922H75.0749C75.171 16.1286 75.1292 16.3274 75.1292 16.5199C75.1323 18.5519 75.123 20.5824 75.1354 22.6145C75.1416 23.4396 75.1989 24.2647 75.4795 25.0536C76.1661 26.9783 78.4941 27.7009 80.1231 26.4877C80.6609 26.0869 80.9601 25.519 81.1631 24.8911C81.3584 24.2852 81.4111 23.6605 81.4096 23.0262C81.4049 20.8759 81.4049 18.7271 81.4096 16.5767C81.4096 16.3653 81.3677 16.146 81.4623 15.9141V15.9156Z" fill="#353B42"/>
    <path d="M65.3379 24.3482V15.925H69.4902V30.5438C68.8423 30.5438 68.1898 30.5438 67.5388 30.5438C67.1715 30.5438 66.7995 30.5107 66.4353 30.5517C65.978 30.6022 65.6913 30.416 65.4154 30.0594C61.8552 25.47 58.2825 20.8915 54.7146 16.31C54.6324 16.2043 54.5208 16.1143 54.4883 15.8887C54.6293 15.8887 54.7688 15.8887 54.9083 15.8887C55.9344 15.8887 56.962 15.8998 57.9881 15.8777C58.3321 15.8698 58.5429 15.9913 58.7599 16.2642C60.7997 18.8374 62.8564 21.3964 64.9086 23.9586C65.0155 24.0927 65.1008 24.2536 65.3363 24.3467L65.3379 24.3482Z" fill="#353B42"/>
    <path d="M96.9709 15.6773V18.8059C96.8267 18.9542 96.6624 18.8989 96.5152 18.8989C95.1791 18.9037 93.8431 18.9021 92.5055 18.9021C92.3505 18.9021 92.1955 18.9021 92.0405 18.91C91.6546 18.9336 91.2841 19.022 91.1741 19.459C91.0656 19.8881 91.1803 20.2826 91.5197 20.5807C91.7693 20.8 92.0576 20.9594 92.3505 21.114C93.2247 21.5763 94.0957 22.0433 94.9575 22.5292C95.5015 22.8353 95.9727 23.2407 96.416 23.6872C97.8218 25.1055 97.7458 28.3855 95.579 29.7976C94.6227 30.4207 93.5626 30.7173 92.4512 30.7489C90.768 30.7962 89.0817 30.7615 87.3969 30.7584C87.3426 30.7584 87.2868 30.7363 87.1969 30.7158V27.5541C87.3597 27.4358 87.5395 27.4863 87.7084 27.4863C89.1421 27.4815 90.5743 27.4847 92.008 27.4799C92.6388 27.4784 92.9069 27.3174 93.0712 26.8646C93.2371 26.4071 93.079 25.9133 92.6419 25.5615C92.1366 25.1544 91.5461 24.9004 90.9602 24.6464C90.2457 24.3372 89.5684 23.9649 88.9329 23.5184C87.2667 22.3477 86.6312 20.352 87.3225 18.4162C87.8495 16.941 89.0011 16.2248 90.4255 15.8651C91.1865 15.6726 91.9646 15.6994 92.7364 15.6836C94.0337 15.6584 95.331 15.6757 96.6299 15.6757C96.7229 15.6757 96.8174 15.6757 96.9709 15.6757V15.6773Z" fill="#353B42"/>
    <path d="M48.6845 30.5092C48.3126 29.5452 47.9406 28.5797 47.5562 27.5857H42.6289C42.9451 26.6754 43.2675 25.8408 43.6333 24.9936H46.572C45.4188 21.9392 44.2889 18.9448 43.1419 15.9093H46.8959C48.9263 20.7544 50.9599 25.6089 53.0135 30.5092H48.6845Z" fill="#353B42"/>
    <path d="M40.4114 30.5265H36.0762C38.0926 25.7272 40.0952 20.9642 42.1396 16.097C42.6541 17.4602 43.0695 18.7286 43.6104 19.9403C43.9933 20.797 43.9344 21.529 43.5857 22.3825C42.4898 25.0662 41.4731 27.7845 40.4114 30.5281V30.5265Z" fill="#353B42"/>
    <path d="M54.4293 30.5076V17.6669C54.792 17.913 54.9718 18.2901 55.2182 18.6024C56.2737 19.9372 57.3122 21.2861 58.3615 22.6271C58.5087 22.8164 58.6095 22.9994 58.6079 23.2613C58.5955 25.6278 58.6002 27.9944 58.5986 30.3593C58.5986 30.3972 58.5847 30.4335 58.5692 30.5076H54.4277H54.4293Z" fill="#353B42"/>
    <path d="M35.2154 37.9385C34.9224 38.0662 34.8046 37.9243 34.6713 37.7618C34.1242 37.1007 33.5647 36.4507 32.9509 35.7265V37.3168C33.0253 37.5519 33.5259 37.4099 33.3477 37.8564H32.0457C31.9729 37.7018 31.9465 37.5598 32.1341 37.5219C32.4115 37.4683 32.4549 37.279 32.4549 37.0455C32.4549 36.5138 32.4503 35.9806 32.4611 35.4489C32.4658 35.2043 32.4084 35.015 32.1558 34.9551C31.945 34.9062 31.9326 34.7815 31.9977 34.6127C32.5557 34.4676 32.985 34.5906 33.3508 35.0907C33.7507 35.6366 34.2389 36.1147 34.7721 36.7173C34.7566 36.0989 34.7969 35.5988 34.7163 35.1034C34.6372 34.8667 34.1335 35.0702 34.2637 34.6064C34.7085 34.5354 35.1627 34.5575 35.6028 34.5906C35.6664 34.7452 35.6819 34.8951 35.5455 34.9203C35.1844 34.985 35.22 35.2517 35.2185 35.5041C35.2154 36.3103 35.2185 37.1165 35.2185 37.9385H35.2154Z" fill="#353B42"/>
    <path d="M28.6171 37.7633C28.5737 37.8359 28.5101 37.8753 28.428 37.8753C27.622 37.8753 26.8145 37.8753 26.01 37.8753C26.0028 37.6702 26.1361 37.5003 26.4099 37.3657C26.4099 36.6983 26.4068 36.0136 26.4115 35.3289C26.4115 35.1364 26.3882 34.985 26.1635 34.9329C25.9744 34.8903 26.0178 34.7468 26.072 34.5795C26.83 34.5795 27.5972 34.5779 28.3644 34.5843C28.4078 34.5843 28.4497 34.6505 28.4931 34.6852C28.6 34.8114 28.6341 34.9597 28.6279 35.1222C28.6078 35.5545 28.397 35.6744 28.0296 35.4567C27.9149 35.3889 27.8219 35.2816 27.684 35.2532C27.5677 35.2295 27.4515 35.2248 27.36 35.3163C27.3011 35.3763 27.2918 35.4567 27.3306 35.5309C27.3972 35.6602 27.5181 35.6445 27.6328 35.6334C27.6716 35.6303 27.7088 35.6176 27.746 35.6082C27.9986 35.5403 28.29 35.4741 28.3536 35.8227C28.4187 36.1777 28.5876 36.6195 28.0405 36.7899C27.7646 36.8261 27.6034 36.2739 27.2639 36.6337C27.2562 36.6826 27.2469 36.7299 27.2423 36.7788C27.2392 37.0044 27.1942 37.2505 27.5305 37.2679C27.7801 37.3121 27.98 37.2363 28.1412 37.036C28.2854 36.8561 28.445 36.6179 28.7007 36.8088C28.9146 36.9666 28.8526 37.2284 28.7736 37.4525C28.7364 37.5613 28.693 37.6718 28.6171 37.7617V37.7633Z" fill="#353B42"/>
    <path d="M64.3684 36.9303C64.3312 37.2537 64.2227 37.5582 64.0475 37.8422C63.4926 37.9921 62.9486 38.0757 62.3875 37.8974C61.6916 37.6781 61.2127 37.1149 61.1615 36.4207C61.1073 35.6697 61.4746 35.0055 62.1256 34.6821C62.6929 34.3997 63.1377 34.3792 64.1343 34.5953C64.2227 34.8351 64.2862 35.097 64.2971 35.3715C64.3017 35.4709 64.2878 35.5703 64.1715 35.6066C64.0382 35.6492 63.9716 35.5877 63.8987 35.4709C63.5345 34.8872 63.319 34.7846 62.7936 34.9109C62.3162 35.026 62.0031 35.4157 61.9473 35.9758C61.907 36.3781 61.9644 36.7631 62.1953 37.1023C62.6107 37.7097 63.4058 37.7176 63.8507 37.1322C63.9685 36.976 64.0382 36.6321 64.3715 36.9319L64.3684 36.9303Z" fill="#353B42"/>
    <path d="M40.8441 37.3767C40.9929 37.566 41.4192 37.4114 41.2564 37.8532C40.7527 37.91 40.2365 37.8753 39.7189 37.8768C39.567 37.4651 39.9297 37.5329 40.1032 37.4146V35.0654C39.6414 34.9518 39.6197 34.9613 39.4306 35.3289C39.3768 35.432 39.2616 35.5003 39.0849 35.534C38.9935 35.1853 39.0896 34.843 39.0741 34.4691C40.0164 34.5984 40.9216 34.641 41.8686 34.458C42.0345 34.7799 41.9275 35.1333 41.9833 35.4977C41.8051 35.5529 41.6454 35.5924 41.5912 35.3904C41.4811 34.9834 41.2115 34.9455 40.8457 35.0291V37.3767H40.8441Z" fill="#353B42"/>
    <path fill-rule="evenodd" clip-rule="evenodd" d="M77.3714 37.9984C77.5512 38.0126 77.6086 37.9069 77.6442 37.7097L77.6411 37.7113C77.1546 37.4229 76.9121 36.9626 76.651 36.4669C76.6193 36.4068 76.5873 36.3461 76.5546 36.2851C76.5774 36.2696 76.6002 36.2555 76.6225 36.2417C76.6685 36.2132 76.7123 36.186 76.7499 36.151C77.0475 35.8765 77.1808 35.5499 77.0273 35.1476C76.8739 34.7437 76.5329 34.6001 76.1547 34.5812C75.78 34.5624 75.4037 34.5668 75.0306 34.5712C74.8699 34.573 74.7097 34.5749 74.5505 34.5749C74.5467 34.5916 74.5428 34.608 74.5389 34.6241C74.5017 34.7781 74.4722 34.9003 74.6575 34.9346C74.8528 34.9693 74.8962 35.0987 74.8962 35.2754C74.8951 35.7525 74.8955 36.2289 74.8958 36.6822C74.896 36.9005 74.8962 37.1134 74.8962 37.3185C74.8482 37.4101 74.7555 37.4512 74.6691 37.4896C74.5263 37.553 74.4004 37.6089 74.5211 37.8722C74.6393 37.8734 74.7578 37.8764 74.8763 37.8795C75.2487 37.8892 75.6209 37.8988 75.9842 37.8486C76.0883 37.5769 75.9528 37.5357 75.8101 37.4922C75.7231 37.4658 75.6335 37.4385 75.5936 37.3579C75.575 37.0976 75.5549 36.8073 75.6107 36.5202C75.7843 36.4839 75.8711 36.5643 75.9501 36.6969C76.044 36.8555 76.1441 37.0103 76.2443 37.1652C76.3244 37.2891 76.4046 37.4132 76.4818 37.5393C76.6879 37.877 77.0103 37.9716 77.3714 37.9984ZM75.5983 35.0277V36.0989C76.1687 36.0468 76.4167 35.8323 76.3764 35.4741C76.3345 35.1128 76.1191 34.9835 75.5983 35.0277Z" fill="#353B42"/>
    <path fill-rule="evenodd" clip-rule="evenodd" d="M21.884 36.6721C21.8157 36.5517 21.7455 36.428 21.6683 36.3039L21.6667 36.3024C21.6964 36.2801 21.7235 36.2605 21.7485 36.2424C21.7979 36.2066 21.8394 36.1765 21.8775 36.143C22.1627 35.8858 22.2883 35.5719 22.172 35.1917C22.0449 34.7767 21.7039 34.6079 21.3288 34.5827C20.9402 34.5562 20.5501 34.5621 20.1611 34.5681C19.9946 34.5707 19.8284 34.5732 19.6626 34.5732C19.6592 34.5989 19.655 34.624 19.6509 34.6483C19.627 34.7898 19.6079 34.9033 19.7851 34.9329C19.9819 34.9661 20.0176 35.1049 20.0176 35.2784V37.3247C19.9661 37.4066 19.8782 37.4469 19.7959 37.4846C19.65 37.5514 19.5217 37.6102 19.6456 37.8785C19.8271 37.8709 20.0093 37.8751 20.191 37.8794C20.5011 37.8867 20.8099 37.8939 21.1118 37.8422C21.208 37.5777 21.0744 37.5351 20.9333 37.4901C20.8446 37.4618 20.753 37.4326 20.7135 37.3468C20.7122 37.3222 20.7107 37.2974 20.7093 37.2722C20.6956 37.0355 20.6804 36.7738 20.7337 36.5185C20.9375 36.4722 21.0137 36.5969 21.0922 36.7254C21.0967 36.7327 21.1012 36.74 21.1056 36.7473C21.1823 36.8716 21.2606 36.9949 21.3389 37.1182C21.4284 37.2592 21.5179 37.4001 21.6047 37.5424C21.8124 37.8816 22.1348 37.9763 22.4975 37.9968C22.7114 38.0078 22.7517 37.8753 22.7501 37.6939C22.3373 37.4709 22.1216 37.0909 21.884 36.6721ZM20.7228 35.0149V36.0925C21.2777 36.0562 21.5272 35.8527 21.4962 35.4882C21.4652 35.1301 21.2606 34.9992 20.7228 35.0149Z" fill="#353B42"/>
    <path fill-rule="evenodd" clip-rule="evenodd" d="M49.8003 37.8626H50.9907V37.8674C51.1069 37.6257 50.9984 37.5713 50.8797 37.5119C50.8133 37.4786 50.7436 37.4438 50.7086 37.3736C50.7651 37.3126 50.7823 37.231 50.8002 37.1456C50.8241 37.0321 50.8493 36.9119 50.9705 36.8245C51.2263 36.7961 51.4929 36.7804 51.7703 36.8387C51.8726 37.0044 51.9408 37.1811 51.978 37.372C51.9608 37.4334 51.9065 37.4753 51.8522 37.5172C51.7543 37.5927 51.6564 37.6682 51.7749 37.8579C52.1663 37.9036 52.5791 37.891 52.9831 37.8787C53.0399 37.877 53.0965 37.8752 53.1528 37.8737C53.2334 37.6828 53.2319 37.5518 53.0521 37.5124C52.8044 37.4579 52.7317 37.2653 52.6554 37.0632C52.6543 37.0605 52.6533 37.0577 52.6522 37.0549C52.6065 36.9326 52.5581 36.8118 52.5096 36.6911C52.4561 36.5578 52.4027 36.4246 52.3531 36.2897C52.1822 35.8251 52.014 35.3596 51.8511 34.9088C51.7982 34.7626 51.746 34.6179 51.6943 34.4754C51.3732 34.4287 51.3015 34.6167 51.2331 34.796C51.2252 34.8166 51.2174 34.8371 51.2092 34.8572C50.9287 35.545 50.6543 36.2345 50.38 36.9239C50.2762 37.1811 50.1739 37.4256 49.8701 37.5156C49.6949 37.566 49.7337 37.7128 49.8003 37.8626ZM51.1209 36.296C51.2666 36.3717 51.4139 36.3607 51.62 36.2929C51.5739 36.2098 51.5479 36.1238 51.5228 36.041C51.4821 35.9068 51.444 35.781 51.3271 35.6902C51.2387 35.8842 51.1519 36.0783 51.1209 36.296Z" fill="#353B42"/>
    <path fill-rule="evenodd" clip-rule="evenodd" d="M68.773 37.496C68.7103 37.4636 68.6448 37.4296 68.6007 37.3768H68.6023C68.6644 37.3108 68.6859 37.2254 68.7082 37.1368C68.7371 37.022 68.7674 36.9019 68.889 36.812C68.9421 36.81 68.9961 36.807 69.05 36.8041C69.2493 36.7932 69.4487 36.7823 69.6097 36.8183C69.9524 37.0872 69.839 37.3369 69.7229 37.5928C69.683 37.6807 69.6428 37.7692 69.6206 37.8596C69.7272 37.8632 69.8319 37.8683 69.9349 37.8734C70.3293 37.8928 70.6988 37.911 71.0527 37.8359C71.1116 37.7176 71.1163 37.5977 71.0558 37.5803C70.676 37.4768 70.5764 37.1719 70.4772 36.8682C70.4569 36.8062 70.4367 36.7443 70.4141 36.6842C70.1642 36.0171 69.9168 35.3487 69.6751 34.6961C69.6471 34.6202 69.619 34.5446 69.5911 34.4692C69.2656 34.4243 69.1916 34.6284 69.1239 34.8149C69.1129 34.8451 69.1022 34.8749 69.0905 34.903C68.9334 35.2846 68.7838 35.6695 68.6342 36.0545C68.5284 36.3268 68.4225 36.5991 68.314 36.8704C68.3067 36.8885 68.2996 36.9066 68.2925 36.9247C68.1924 37.1785 68.0932 37.4302 67.7792 37.5156C67.6087 37.5614 67.6335 37.7113 67.7048 37.8627H68.8921C69.031 37.6296 68.9087 37.5663 68.773 37.496ZM69.1458 35.8997C69.0893 36.0301 69.0341 36.1579 69.0269 36.304C69.1773 36.3671 69.3261 36.3687 69.5028 36.3009C69.4838 36.2462 69.4693 36.19 69.4549 36.1339C69.4139 35.9745 69.3728 35.8151 69.2284 35.6903C69.205 35.7628 69.1752 35.8316 69.1458 35.8997Z" fill="#353B42"/>
  </g>
  <defs>
    <clipPath id="clip0_693_827">
      <rect width="103" height="38" fill="white"/>
    </clipPath>
  </defs>
</svg>