<svg xmlns="http://www.w3.org/2000/svg" width="38" height="37" viewBox="0 0 38 37" fill="none">
  <path d="M11.3793 0C5.40749 0 0.5 4.90092 0.5 10.8793V26.1207C0.5 32.0925 5.40092 37 11.3793 37H26.6207C32.5925 37 37.5 32.0991 37.5 26.1207V10.8793C37.5 4.90749 32.5991 0 26.6207 0H11.3793ZM11.3793 3.36364H26.6207C30.7793 3.36364 34.1364 6.7207 34.1364 10.8793V26.1207C34.1364 30.2793 30.7793 33.6364 26.6207 33.6364H11.3793C7.2207 33.6364 3.86364 30.2793 3.86364 26.1207V10.8793C3.86364 6.7207 7.2207 3.36364 11.3793 3.36364ZM28.9332 7.04261C28.0858 7.04261 27.4091 7.71928 27.4091 8.56676C27.4091 9.41424 28.0858 10.0909 28.9332 10.0909C29.7807 10.0909 30.4574 9.41424 30.4574 8.56676C30.4574 7.71928 29.7807 7.04261 28.9332 7.04261ZM19 8.40909C13.4487 8.40909 8.90909 12.9487 8.90909 18.5C8.90909 24.0513 13.4487 28.5909 19 28.5909C24.5513 28.5909 29.0909 24.0513 29.0909 18.5C29.0909 12.9487 24.5513 8.40909 19 8.40909ZM19 11.7727C22.7381 11.7727 25.7273 14.7619 25.7273 18.5C25.7273 22.2381 22.7381 25.2273 19 25.2273C15.2619 25.2273 12.2727 22.2381 12.2727 18.5C12.2727 14.7619 15.2619 11.7727 19 11.7727Z" fill="#353B42"/>
  <path d="M11.3793 0C5.40749 0 0.5 4.90092 0.5 10.8793V26.1207C0.5 32.0925 5.40092 37 11.3793 37H26.6207C32.5925 37 37.5 32.0991 37.5 26.1207V10.8793C37.5 4.90749 32.5991 0 26.6207 0H11.3793ZM11.3793 3.36364H26.6207C30.7793 3.36364 34.1364 6.7207 34.1364 10.8793V26.1207C34.1364 30.2793 30.7793 33.6364 26.6207 33.6364H11.3793C7.2207 33.6364 3.86364 30.2793 3.86364 26.1207V10.8793C3.86364 6.7207 7.2207 3.36364 11.3793 3.36364ZM28.9332 7.04261C28.0858 7.04261 27.4091 7.71928 27.4091 8.56676C27.4091 9.41424 28.0858 10.0909 28.9332 10.0909C29.7807 10.0909 30.4574 9.41424 30.4574 8.56676C30.4574 7.71928 29.7807 7.04261 28.9332 7.04261ZM19 8.40909C13.4487 8.40909 8.90909 12.9487 8.90909 18.5C8.90909 24.0513 13.4487 28.5909 19 28.5909C24.5513 28.5909 29.0909 24.0513 29.0909 18.5C29.0909 12.9487 24.5513 8.40909 19 8.40909ZM19 11.7727C22.7381 11.7727 25.7273 14.7619 25.7273 18.5C25.7273 22.2381 22.7381 25.2273 19 25.2273C15.2619 25.2273 12.2727 22.2381 12.2727 18.5C12.2727 14.7619 15.2619 11.7727 19 11.7727Z" fill="black" fill-opacity="0.2"/>
  <path d="M11.3793 0C5.40749 0 0.5 4.90092 0.5 10.8793V26.1207C0.5 32.0925 5.40092 37 11.3793 37H26.6207C32.5925 37 37.5 32.0991 37.5 26.1207V10.8793C37.5 4.90749 32.5991 0 26.6207 0H11.3793ZM11.3793 3.36364H26.6207C30.7793 3.36364 34.1364 6.7207 34.1364 10.8793V26.1207C34.1364 30.2793 30.7793 33.6364 26.6207 33.6364H11.3793C7.2207 33.6364 3.86364 30.2793 3.86364 26.1207V10.8793C3.86364 6.7207 7.2207 3.36364 11.3793 3.36364ZM28.9332 7.04261C28.0858 7.04261 27.4091 7.71928 27.4091 8.56676C27.4091 9.41424 28.0858 10.0909 28.9332 10.0909C29.7807 10.0909 30.4574 9.41424 30.4574 8.56676C30.4574 7.71928 29.7807 7.04261 28.9332 7.04261ZM19 8.40909C13.4487 8.40909 8.90909 12.9487 8.90909 18.5C8.90909 24.0513 13.4487 28.5909 19 28.5909C24.5513 28.5909 29.0909 24.0513 29.0909 18.5C29.0909 12.9487 24.5513 8.40909 19 8.40909ZM19 11.7727C22.7381 11.7727 25.7273 14.7619 25.7273 18.5C25.7273 22.2381 22.7381 25.2273 19 25.2273C15.2619 25.2273 12.2727 22.2381 12.2727 18.5C12.2727 14.7619 15.2619 11.7727 19 11.7727Z" fill="black" fill-opacity="0.2"/>
</svg>