<svg xmlns="http://www.w3.org/2000/svg" width="37" height="37" viewBox="0 0 37 37" fill="none">
  <path d="M10.8793 0C4.90749 0 0 4.90092 0 10.8793V26.1207C0 32.0925 4.90092 37 10.8793 37H26.1207C32.0925 37 37 32.0991 37 26.1207V10.8793C37 4.90749 32.0991 0 26.1207 0H10.8793ZM10.8793 3.36364H26.1207C30.2793 3.36364 33.6364 6.7207 33.6364 10.8793V26.1207C33.6364 30.2793 30.2793 33.6364 26.1207 33.6364H10.8793C6.7207 33.6364 3.36364 30.2793 3.36364 26.1207V10.8793C3.36364 6.7207 6.7207 3.36364 10.8793 3.36364ZM28.4332 7.04261C27.5858 7.04261 26.9091 7.71928 26.9091 8.56676C26.9091 9.41424 27.5858 10.0909 28.4332 10.0909C29.2807 10.0909 29.9574 9.41424 29.9574 8.56676C29.9574 7.71928 29.2807 7.04261 28.4332 7.04261ZM18.5 8.40909C12.9487 8.40909 8.40909 12.9487 8.40909 18.5C8.40909 24.0513 12.9487 28.5909 18.5 28.5909C24.0513 28.5909 28.5909 24.0513 28.5909 18.5C28.5909 12.9487 24.0513 8.40909 18.5 8.40909ZM18.5 11.7727C22.2381 11.7727 25.2273 14.7619 25.2273 18.5C25.2273 22.2381 22.2381 25.2273 18.5 25.2273C14.7619 25.2273 11.7727 22.2381 11.7727 18.5C11.7727 14.7619 14.7619 11.7727 18.5 11.7727Z" fill="#F5FAFF"/>
</svg>