<svg xmlns="http://www.w3.org/2000/svg" width="55" height="55" viewBox="0 0 55 55" fill="none">
  <path d="M31.9069 32.4844C31.9069 32.5898 31.9412 32.6494 32.0008 32.6494C32.0491 32.6428 32.0949 32.6239 32.1338 32.5944L49.2754 21.4706C49.565 21.2678 49.912 21.1634 50.2654 21.1727H54.0329C54.6104 21.1727 55 21.5577 55 22.1352V29.3287C55 30.1996 54.8075 30.7037 54.0375 31.1644L49.4679 33.9144C49.4225 33.9459 49.3695 33.9649 49.3144 33.9694C49.2594 33.9694 49.2044 33.9258 49.2044 33.7677V25.3733C49.2044 25.2748 49.1769 25.2106 49.1104 25.2106C49.0618 25.216 49.0157 25.2351 48.9775 25.2656L36.4513 33.4033C36.1677 33.5963 35.8318 33.6979 35.4888 33.6944H27.1838C26.6017 33.6944 26.2167 33.3094 26.2167 32.7273V22.3598C26.2167 22.2842 26.1823 22.2131 26.1158 22.2131C26.0682 22.2195 26.0231 22.2385 25.9852 22.2681L17.7192 27.225C17.6367 27.28 17.6138 27.3189 17.6138 27.3579C17.6138 27.39 17.6321 27.4244 17.6871 27.4839L23.5927 33.385C23.6706 33.4629 23.7256 33.5225 23.7256 33.5889C23.7256 33.6439 23.6363 33.6875 23.5331 33.6875H18.1958C17.7765 33.6875 17.4533 33.6279 17.2265 33.401L13.6469 29.826C13.6333 29.8098 13.6166 29.7965 13.5976 29.787C13.5787 29.7776 13.558 29.7721 13.5369 29.771C13.4979 29.7732 13.4601 29.785 13.4269 29.8054L7.44563 33.4033C7.15962 33.5954 6.82064 33.6932 6.47625 33.6829H0.973958C0.385 33.6875 0 33.2979 0 32.7227V25.6644C0 24.7935 0.1925 24.2894 0.967083 23.831L5.56875 21.065C5.60447 21.0423 5.64563 21.0296 5.68792 21.0283C5.76125 21.0283 5.79792 21.0971 5.79792 21.2575V30.7083C5.79792 30.8069 5.82083 30.8527 5.89188 30.8527C5.94128 30.845 5.9883 30.8262 6.02938 30.7977L21.5577 21.45C21.8588 21.2473 22.2173 21.1477 22.5798 21.1658H30.9398C31.5173 21.1658 31.9069 21.5508 31.9069 22.1283L31.9023 32.4821L31.9069 32.4844Z" fill="#353B42"/>
  <path d="M31.9069 32.4844C31.9069 32.5898 31.9412 32.6494 32.0008 32.6494C32.0491 32.6428 32.0949 32.6239 32.1338 32.5944L49.2754 21.4706C49.565 21.2678 49.912 21.1634 50.2654 21.1727H54.0329C54.6104 21.1727 55 21.5577 55 22.1352V29.3287C55 30.1996 54.8075 30.7037 54.0375 31.1644L49.4679 33.9144C49.4225 33.9459 49.3695 33.9649 49.3144 33.9694C49.2594 33.9694 49.2044 33.9258 49.2044 33.7677V25.3733C49.2044 25.2748 49.1769 25.2106 49.1104 25.2106C49.0618 25.216 49.0157 25.2351 48.9775 25.2656L36.4513 33.4033C36.1677 33.5963 35.8318 33.6979 35.4888 33.6944H27.1838C26.6017 33.6944 26.2167 33.3094 26.2167 32.7273V22.3598C26.2167 22.2842 26.1823 22.2131 26.1158 22.2131C26.0682 22.2195 26.0231 22.2385 25.9852 22.2681L17.7192 27.225C17.6367 27.28 17.6138 27.3189 17.6138 27.3579C17.6138 27.39 17.6321 27.4244 17.6871 27.4839L23.5927 33.385C23.6706 33.4629 23.7256 33.5225 23.7256 33.5889C23.7256 33.6439 23.6363 33.6875 23.5331 33.6875H18.1958C17.7765 33.6875 17.4533 33.6279 17.2265 33.401L13.6469 29.826C13.6333 29.8098 13.6166 29.7965 13.5976 29.787C13.5787 29.7776 13.558 29.7721 13.5369 29.771C13.4979 29.7732 13.4601 29.785 13.4269 29.8054L7.44563 33.4033C7.15962 33.5954 6.82064 33.6932 6.47625 33.6829H0.973958C0.385 33.6875 0 33.2979 0 32.7227V25.6644C0 24.7935 0.1925 24.2894 0.967083 23.831L5.56875 21.065C5.60447 21.0423 5.64563 21.0296 5.68792 21.0283C5.76125 21.0283 5.79792 21.0971 5.79792 21.2575V30.7083C5.79792 30.8069 5.82083 30.8527 5.89188 30.8527C5.94128 30.845 5.9883 30.8262 6.02938 30.7977L21.5577 21.45C21.8588 21.2473 22.2173 21.1477 22.5798 21.1658H30.9398C31.5173 21.1658 31.9069 21.5508 31.9069 22.1283L31.9023 32.4821L31.9069 32.4844Z" fill="black" fill-opacity="0.2"/>
  <path d="M31.9069 32.4844C31.9069 32.5898 31.9412 32.6494 32.0008 32.6494C32.0491 32.6428 32.0949 32.6239 32.1338 32.5944L49.2754 21.4706C49.565 21.2678 49.912 21.1634 50.2654 21.1727H54.0329C54.6104 21.1727 55 21.5577 55 22.1352V29.3287C55 30.1996 54.8075 30.7037 54.0375 31.1644L49.4679 33.9144C49.4225 33.9459 49.3695 33.9649 49.3144 33.9694C49.2594 33.9694 49.2044 33.9258 49.2044 33.7677V25.3733C49.2044 25.2748 49.1769 25.2106 49.1104 25.2106C49.0618 25.216 49.0157 25.2351 48.9775 25.2656L36.4513 33.4033C36.1677 33.5963 35.8318 33.6979 35.4888 33.6944H27.1838C26.6017 33.6944 26.2167 33.3094 26.2167 32.7273V22.3598C26.2167 22.2842 26.1823 22.2131 26.1158 22.2131C26.0682 22.2195 26.0231 22.2385 25.9852 22.2681L17.7192 27.225C17.6367 27.28 17.6138 27.3189 17.6138 27.3579C17.6138 27.39 17.6321 27.4244 17.6871 27.4839L23.5927 33.385C23.6706 33.4629 23.7256 33.5225 23.7256 33.5889C23.7256 33.6439 23.6363 33.6875 23.5331 33.6875H18.1958C17.7765 33.6875 17.4533 33.6279 17.2265 33.401L13.6469 29.826C13.6333 29.8098 13.6166 29.7965 13.5976 29.787C13.5787 29.7776 13.558 29.7721 13.5369 29.771C13.4979 29.7732 13.4601 29.785 13.4269 29.8054L7.44563 33.4033C7.15962 33.5954 6.82064 33.6932 6.47625 33.6829H0.973958C0.385 33.6875 0 33.2979 0 32.7227V25.6644C0 24.7935 0.1925 24.2894 0.967083 23.831L5.56875 21.065C5.60447 21.0423 5.64563 21.0296 5.68792 21.0283C5.76125 21.0283 5.79792 21.0971 5.79792 21.2575V30.7083C5.79792 30.8069 5.82083 30.8527 5.89188 30.8527C5.94128 30.845 5.9883 30.8262 6.02938 30.7977L21.5577 21.45C21.8588 21.2473 22.2173 21.1477 22.5798 21.1658H30.9398C31.5173 21.1658 31.9069 21.5508 31.9069 22.1283L31.9023 32.4821L31.9069 32.4844Z" fill="black" fill-opacity="0.2"/>
</svg>