<svg xmlns="http://www.w3.org/2000/svg" width="66" height="66" viewBox="0 0 66 66" fill="none">
  <g clip-path="url(#clip0_696_2139)">
    <path fill-rule="evenodd" clip-rule="evenodd" d="M13.7501 27.5C13.7501 23.7794 14.6937 20.1196 16.4927 16.8628C18.2916 13.6061 20.8871 10.8587 24.0364 8.87773C27.1858 6.89674 30.7861 5.74682 34.5007 5.53551C38.2153 5.32421 41.9227 6.05841 45.2764 7.66947C48.6301 9.28053 51.5204 11.7158 53.6771 14.7476C55.8338 17.7793 57.1863 21.3085 57.6082 25.0051C58.0302 28.7017 57.5077 32.4449 56.0897 35.8846C54.6717 39.3244 52.4045 42.3484 49.5001 44.6738V56.375C49.5001 57.469 49.0655 58.5182 48.292 59.2918C47.5184 60.0654 46.4692 60.5 45.3751 60.5H31.6251C30.5311 60.5 29.4819 60.0654 28.7083 59.2918C27.9347 58.5182 27.5001 57.469 27.5001 56.375V52.25H24.1066C22.0957 52.2501 20.154 51.5157 18.6464 50.1849C17.1388 48.8541 16.1693 47.0184 15.9199 45.023L15.5349 41.9347L13.4806 41.525C12.8822 41.4052 12.3179 41.1541 11.8282 40.7898C11.3386 40.4255 10.9359 39.9571 10.6491 39.4183C10.3624 38.8796 10.1988 38.2839 10.1701 37.6743C10.1414 37.0647 10.2483 36.4563 10.4831 35.893L13.7556 28.0335C13.7517 27.8557 13.7499 27.6778 13.7501 27.5ZM35.7501 11C33.531 10.9999 31.3346 11.4475 29.2924 12.3159C27.2501 13.1844 25.4041 14.4559 23.8647 16.0543C22.3253 17.6528 21.1242 19.5453 20.3332 21.6188C19.5422 23.6922 19.1776 25.9039 19.2611 28.1215C19.2831 28.699 19.1869 29.304 18.9449 29.8815L16.2031 36.4622L17.5836 36.7373C18.4325 36.9072 19.2065 37.3399 19.7958 37.9741C20.3851 38.6084 20.7599 39.4119 20.8671 40.271L21.3759 44.341C21.4591 45.0065 21.7825 45.6186 22.2854 46.0622C22.7883 46.5059 23.436 46.7505 24.1066 46.75H28.8751C29.9692 46.75 31.0184 47.1846 31.792 47.9582C32.5655 48.7318 33.0001 49.781 33.0001 50.875V55H44.0001V44.0165C44.0001 42.6497 44.6711 41.4398 45.6749 40.6835C48.4402 38.6023 50.4811 35.7043 51.5087 32.3994C52.5364 29.0946 52.4989 25.5502 51.4014 22.2679C50.304 18.9855 48.2022 16.1314 45.3934 14.1093C42.5846 12.0871 39.2111 10.9994 35.7501 11Z" fill="#353B42"/>
    <path fill-rule="evenodd" clip-rule="evenodd" d="M13.7501 27.5C13.7501 23.7794 14.6937 20.1196 16.4927 16.8628C18.2916 13.6061 20.8871 10.8587 24.0364 8.87773C27.1858 6.89674 30.7861 5.74682 34.5007 5.53551C38.2153 5.32421 41.9227 6.05841 45.2764 7.66947C48.6301 9.28053 51.5204 11.7158 53.6771 14.7476C55.8338 17.7793 57.1863 21.3085 57.6082 25.0051C58.0302 28.7017 57.5077 32.4449 56.0897 35.8846C54.6717 39.3244 52.4045 42.3484 49.5001 44.6738V56.375C49.5001 57.469 49.0655 58.5182 48.292 59.2918C47.5184 60.0654 46.4692 60.5 45.3751 60.5H31.6251C30.5311 60.5 29.4819 60.0654 28.7083 59.2918C27.9347 58.5182 27.5001 57.469 27.5001 56.375V52.25H24.1066C22.0957 52.2501 20.154 51.5157 18.6464 50.1849C17.1388 48.8541 16.1693 47.0184 15.9199 45.023L15.5349 41.9347L13.4806 41.525C12.8822 41.4052 12.3179 41.1541 11.8282 40.7898C11.3386 40.4255 10.9359 39.9571 10.6491 39.4183C10.3624 38.8796 10.1988 38.2839 10.1701 37.6743C10.1414 37.0647 10.2483 36.4563 10.4831 35.893L13.7556 28.0335C13.7517 27.8557 13.7499 27.6778 13.7501 27.5ZM35.7501 11C33.531 10.9999 31.3346 11.4475 29.2924 12.3159C27.2501 13.1844 25.4041 14.4559 23.8647 16.0543C22.3253 17.6528 21.1242 19.5453 20.3332 21.6188C19.5422 23.6922 19.1776 25.9039 19.2611 28.1215C19.2831 28.699 19.1869 29.304 18.9449 29.8815L16.2031 36.4622L17.5836 36.7373C18.4325 36.9072 19.2065 37.3399 19.7958 37.9741C20.3851 38.6084 20.7599 39.4119 20.8671 40.271L21.3759 44.341C21.4591 45.0065 21.7825 45.6186 22.2854 46.0622C22.7883 46.5059 23.436 46.7505 24.1066 46.75H28.8751C29.9692 46.75 31.0184 47.1846 31.792 47.9582C32.5655 48.7318 33.0001 49.781 33.0001 50.875V55H44.0001V44.0165C44.0001 42.6497 44.6711 41.4398 45.6749 40.6835C48.4402 38.6023 50.4811 35.7043 51.5087 32.3994C52.5364 29.0946 52.4989 25.5502 51.4014 22.2679C50.304 18.9855 48.2022 16.1314 45.3934 14.1093C42.5846 12.0871 39.2111 10.9994 35.7501 11Z" fill="black" fill-opacity="0.2"/>
    <path fill-rule="evenodd" clip-rule="evenodd" d="M13.7501 27.5C13.7501 23.7794 14.6937 20.1196 16.4927 16.8628C18.2916 13.6061 20.8871 10.8587 24.0364 8.87773C27.1858 6.89674 30.7861 5.74682 34.5007 5.53551C38.2153 5.32421 41.9227 6.05841 45.2764 7.66947C48.6301 9.28053 51.5204 11.7158 53.6771 14.7476C55.8338 17.7793 57.1863 21.3085 57.6082 25.0051C58.0302 28.7017 57.5077 32.4449 56.0897 35.8846C54.6717 39.3244 52.4045 42.3484 49.5001 44.6738V56.375C49.5001 57.469 49.0655 58.5182 48.292 59.2918C47.5184 60.0654 46.4692 60.5 45.3751 60.5H31.6251C30.5311 60.5 29.4819 60.0654 28.7083 59.2918C27.9347 58.5182 27.5001 57.469 27.5001 56.375V52.25H24.1066C22.0957 52.2501 20.154 51.5157 18.6464 50.1849C17.1388 48.8541 16.1693 47.0184 15.9199 45.023L15.5349 41.9347L13.4806 41.525C12.8822 41.4052 12.3179 41.1541 11.8282 40.7898C11.3386 40.4255 10.9359 39.9571 10.6491 39.4183C10.3624 38.8796 10.1988 38.2839 10.1701 37.6743C10.1414 37.0647 10.2483 36.4563 10.4831 35.893L13.7556 28.0335C13.7517 27.8557 13.7499 27.6778 13.7501 27.5ZM35.7501 11C33.531 10.9999 31.3346 11.4475 29.2924 12.3159C27.2501 13.1844 25.4041 14.4559 23.8647 16.0543C22.3253 17.6528 21.1242 19.5453 20.3332 21.6188C19.5422 23.6922 19.1776 25.9039 19.2611 28.1215C19.2831 28.699 19.1869 29.304 18.9449 29.8815L16.2031 36.4622L17.5836 36.7373C18.4325 36.9072 19.2065 37.3399 19.7958 37.9741C20.3851 38.6084 20.7599 39.4119 20.8671 40.271L21.3759 44.341C21.4591 45.0065 21.7825 45.6186 22.2854 46.0622C22.7883 46.5059 23.436 46.7505 24.1066 46.75H28.8751C29.9692 46.75 31.0184 47.1846 31.792 47.9582C32.5655 48.7318 33.0001 49.781 33.0001 50.875V55H44.0001V44.0165C44.0001 42.6497 44.6711 41.4398 45.6749 40.6835C48.4402 38.6023 50.4811 35.7043 51.5087 32.3994C52.5364 29.0946 52.4989 25.5502 51.4014 22.2679C50.304 18.9855 48.2022 16.1314 45.3934 14.1093C42.5846 12.0871 39.2111 10.9994 35.7501 11Z" fill="black" fill-opacity="0.2"/>
  </g>
  <defs>
    <clipPath id="clip0_696_2139">
      <rect width="66" height="66" fill="white"/>
    </clipPath>
  </defs>
</svg>