<svg xmlns="http://www.w3.org/2000/svg" width="29" height="28" viewBox="0 0 29 28" fill="none">
  <path d="M14.167 15.75C13.3017 15.75 12.4558 15.4934 11.7364 15.0127C11.0169 14.532 10.4562 13.8487 10.125 13.0492C9.79389 12.2498 9.70725 11.3701 9.87606 10.5215C10.0449 9.67282 10.4615 8.89327 11.0734 8.28141C11.6853 7.66956 12.4648 7.25288 13.3135 7.08407C14.1621 6.91526 15.0418 7.0019 15.8412 7.33303C16.6407 7.66416 17.3239 8.22492 17.8047 8.94438C18.2854 9.66385 18.542 10.5097 18.542 11.375C18.5406 12.5349 18.0792 13.6469 17.2591 14.4671C16.4389 15.2872 15.3269 15.7486 14.167 15.75ZM14.167 8.75C13.6478 8.75 13.1403 8.90396 12.7086 9.19239C12.2769 9.48083 11.9405 9.8908 11.7418 10.3705C11.5431 10.8501 11.4911 11.3779 11.5924 11.8871C11.6937 12.3963 11.9437 12.864 12.3108 13.2312C12.678 13.5983 13.1457 13.8483 13.6549 13.9496C14.1641 14.0509 14.6919 13.9989 15.1715 13.8002C15.6512 13.6015 16.0612 13.2651 16.3496 12.8334C16.638 12.4017 16.792 11.8942 16.792 11.375C16.7913 10.679 16.5145 10.0117 16.0224 9.51961C15.5303 9.02748 14.863 8.7507 14.167 8.75Z" fill="#353B42"/>
  <path d="M14.167 15.75C13.3017 15.75 12.4558 15.4934 11.7364 15.0127C11.0169 14.532 10.4562 13.8487 10.125 13.0492C9.79389 12.2498 9.70725 11.3701 9.87606 10.5215C10.0449 9.67282 10.4615 8.89327 11.0734 8.28141C11.6853 7.66956 12.4648 7.25288 13.3135 7.08407C14.1621 6.91526 15.0418 7.0019 15.8412 7.33303C16.6407 7.66416 17.3239 8.22492 17.8047 8.94438C18.2854 9.66385 18.542 10.5097 18.542 11.375C18.5406 12.5349 18.0792 13.6469 17.2591 14.4671C16.4389 15.2872 15.3269 15.7486 14.167 15.75ZM14.167 8.75C13.6478 8.75 13.1403 8.90396 12.7086 9.19239C12.2769 9.48083 11.9405 9.8908 11.7418 10.3705C11.5431 10.8501 11.4911 11.3779 11.5924 11.8871C11.6937 12.3963 11.9437 12.864 12.3108 13.2312C12.678 13.5983 13.1457 13.8483 13.6549 13.9496C14.1641 14.0509 14.6919 13.9989 15.1715 13.8002C15.6512 13.6015 16.0612 13.2651 16.3496 12.8334C16.638 12.4017 16.792 11.8942 16.792 11.375C16.7913 10.679 16.5145 10.0117 16.0224 9.51961C15.5303 9.02748 14.863 8.7507 14.167 8.75Z" fill="black" fill-opacity="0.2"/>
  <path d="M14.167 15.75C13.3017 15.75 12.4558 15.4934 11.7364 15.0127C11.0169 14.532 10.4562 13.8487 10.125 13.0492C9.79389 12.2498 9.70725 11.3701 9.87606 10.5215C10.0449 9.67282 10.4615 8.89327 11.0734 8.28141C11.6853 7.66956 12.4648 7.25288 13.3135 7.08407C14.1621 6.91526 15.0418 7.0019 15.8412 7.33303C16.6407 7.66416 17.3239 8.22492 17.8047 8.94438C18.2854 9.66385 18.542 10.5097 18.542 11.375C18.5406 12.5349 18.0792 13.6469 17.2591 14.4671C16.4389 15.2872 15.3269 15.7486 14.167 15.75ZM14.167 8.75C13.6478 8.75 13.1403 8.90396 12.7086 9.19239C12.2769 9.48083 11.9405 9.8908 11.7418 10.3705C11.5431 10.8501 11.4911 11.3779 11.5924 11.8871C11.6937 12.3963 11.9437 12.864 12.3108 13.2312C12.678 13.5983 13.1457 13.8483 13.6549 13.9496C14.1641 14.0509 14.6919 13.9989 15.1715 13.8002C15.6512 13.6015 16.0612 13.2651 16.3496 12.8334C16.638 12.4017 16.792 11.8942 16.792 11.375C16.7913 10.679 16.5145 10.0117 16.0224 9.51961C15.5303 9.02748 14.863 8.7507 14.167 8.75Z" fill="black" fill-opacity="0.2"/>
  <path d="M14.167 26.25L6.7855 17.5446C6.68294 17.4139 6.58143 17.2824 6.481 17.15C5.22011 15.4891 4.53895 13.4603 4.542 11.375C4.542 8.82229 5.55606 6.37414 7.3611 4.5691C9.16614 2.76406 11.6143 1.75 14.167 1.75C16.7197 1.75 19.1679 2.76406 20.9729 4.5691C22.7779 6.37414 23.792 8.82229 23.792 11.375C23.7951 13.4594 23.1142 15.4872 21.8539 17.1474L21.853 17.15C21.853 17.15 21.5905 17.4948 21.5511 17.5411L14.167 26.25ZM7.8775 16.0956C7.87925 16.0956 8.08225 16.3651 8.12863 16.4229L14.167 23.5445L20.2133 16.4132C20.2518 16.3651 20.4565 16.0939 20.4574 16.093C21.4874 14.736 22.044 13.0787 22.042 11.375C22.042 9.28642 21.2123 7.28338 19.7355 5.80653C18.2586 4.32968 16.2556 3.5 14.167 3.5C12.0784 3.5 10.0754 4.32968 8.59854 5.80653C7.12169 7.28338 6.292 9.28642 6.292 11.375C6.29017 13.0797 6.84656 14.738 7.8775 16.0956Z" fill="#353B42"/>
  <path d="M14.167 26.25L6.7855 17.5446C6.68294 17.4139 6.58143 17.2824 6.481 17.15C5.22011 15.4891 4.53895 13.4603 4.542 11.375C4.542 8.82229 5.55606 6.37414 7.3611 4.5691C9.16614 2.76406 11.6143 1.75 14.167 1.75C16.7197 1.75 19.1679 2.76406 20.9729 4.5691C22.7779 6.37414 23.792 8.82229 23.792 11.375C23.7951 13.4594 23.1142 15.4872 21.8539 17.1474L21.853 17.15C21.853 17.15 21.5905 17.4948 21.5511 17.5411L14.167 26.25ZM7.8775 16.0956C7.87925 16.0956 8.08225 16.3651 8.12863 16.4229L14.167 23.5445L20.2133 16.4132C20.2518 16.3651 20.4565 16.0939 20.4574 16.093C21.4874 14.736 22.044 13.0787 22.042 11.375C22.042 9.28642 21.2123 7.28338 19.7355 5.80653C18.2586 4.32968 16.2556 3.5 14.167 3.5C12.0784 3.5 10.0754 4.32968 8.59854 5.80653C7.12169 7.28338 6.292 9.28642 6.292 11.375C6.29017 13.0797 6.84656 14.738 7.8775 16.0956Z" fill="black" fill-opacity="0.2"/>
  <path d="M14.167 26.25L6.7855 17.5446C6.68294 17.4139 6.58143 17.2824 6.481 17.15C5.22011 15.4891 4.53895 13.4603 4.542 11.375C4.542 8.82229 5.55606 6.37414 7.3611 4.5691C9.16614 2.76406 11.6143 1.75 14.167 1.75C16.7197 1.75 19.1679 2.76406 20.9729 4.5691C22.7779 6.37414 23.792 8.82229 23.792 11.375C23.7951 13.4594 23.1142 15.4872 21.8539 17.1474L21.853 17.15C21.853 17.15 21.5905 17.4948 21.5511 17.5411L14.167 26.25ZM7.8775 16.0956C7.87925 16.0956 8.08225 16.3651 8.12863 16.4229L14.167 23.5445L20.2133 16.4132C20.2518 16.3651 20.4565 16.0939 20.4574 16.093C21.4874 14.736 22.044 13.0787 22.042 11.375C22.042 9.28642 21.2123 7.28338 19.7355 5.80653C18.2586 4.32968 16.2556 3.5 14.167 3.5C12.0784 3.5 10.0754 4.32968 8.59854 5.80653C7.12169 7.28338 6.292 9.28642 6.292 11.375C6.29017 13.0797 6.84656 14.738 7.8775 16.0956Z" fill="black" fill-opacity="0.2"/>
</svg>