<svg xmlns="http://www.w3.org/2000/svg" width="22" height="18" viewBox="0 0 22 18" fill="none">
  <path d="M3 18C2.16667 18 1.45834 17.7083 0.875002 17.125C0.291669 16.5417 1.77305e-06 15.8333 1.77305e-06 15C1.77305e-06 14.35 0.187668 13.7667 0.563002 13.25C0.938335 12.7333 1.41734 12.375 2 12.175V5.825C1.41667 5.625 0.937335 5.26667 0.562002 4.75C0.186669 4.23333 -0.000664894 3.65 1.77305e-06 3C1.77305e-06 2.16667 0.291669 1.45833 0.875002 0.875C1.45834 0.291667 2.16667 0 3 0C3.83334 0 4.54167 0.291667 5.125 0.875C5.70834 1.45833 6 2.16667 6 3C6 3.65 5.81234 4.23333 5.437 4.75C5.06167 5.26667 4.58267 5.625 4 5.825V8H10V5.825C9.41667 5.625 8.93734 5.26667 8.562 4.75C8.18667 4.23333 7.99934 3.65 8 3C8 2.16667 8.29167 1.45833 8.875 0.875C9.45834 0.291667 10.1667 0 11 0C11.8333 0 12.5417 0.291667 13.125 0.875C13.7083 1.45833 14 2.16667 14 3C14 3.65 13.8123 4.23333 13.437 4.75C13.0617 5.26667 12.5827 5.625 12 5.825V8H17C17.2833 8 17.521 7.90433 17.713 7.713C17.905 7.52167 18.0007 7.284 18 7V5.825C17.4167 5.625 16.9373 5.26667 16.562 4.75C16.1867 4.23333 15.9993 3.65 16 3C16 2.16667 16.2917 1.45833 16.875 0.875C17.4583 0.291667 18.1667 0 19 0C19.8333 0 20.5417 0.291667 21.125 0.875C21.7083 1.45833 22 2.16667 22 3C22 3.65 21.8123 4.23333 21.437 4.75C21.0617 5.26667 20.5827 5.625 20 5.825V7C20 7.83333 19.7083 8.54167 19.125 9.125C18.5417 9.70833 17.8333 10 17 10H12V12.175C12.5833 12.375 13.0627 12.7333 13.438 13.25C13.8133 13.7667 14.0007 14.35 14 15C14 15.8333 13.7083 16.5417 13.125 17.125C12.5417 17.7083 11.8333 18 11 18C10.1667 18 9.45834 17.7083 8.875 17.125C8.29167 16.5417 8 15.8333 8 15C8 14.35 8.18767 13.7667 8.563 13.25C8.93834 12.7333 9.41734 12.375 10 12.175V10H4V12.175C4.58334 12.375 5.06267 12.7333 5.438 13.25C5.81334 13.7667 6.00067 14.35 6 15C6 15.8333 5.70834 16.5417 5.125 17.125C4.54167 17.7083 3.83334 18 3 18ZM3 16C3.28334 16 3.521 15.904 3.713 15.712C3.905 15.52 4.00067 15.2827 4 15C4 14.7167 3.904 14.479 3.712 14.287C3.52 14.095 3.28267 13.9993 3 14C2.71667 14 2.479 14.096 2.287 14.288C2.095 14.48 1.99934 14.7173 2 15C2 15.2833 2.096 15.521 2.288 15.713C2.48 15.905 2.71734 16.0007 3 16ZM3 4C3.28334 4 3.521 3.904 3.713 3.712C3.905 3.52 4.00067 3.28267 4 3C4 2.71667 3.904 2.479 3.712 2.287C3.52 2.095 3.28267 1.99933 3 2C2.71667 2 2.479 2.096 2.287 2.288C2.095 2.48 1.99934 2.71733 2 3C2 3.28333 2.096 3.521 2.288 3.713C2.48 3.905 2.71734 4.00067 3 4ZM11 16C11.2833 16 11.521 15.904 11.713 15.712C11.905 15.52 12.0007 15.2827 12 15C12 14.7167 11.904 14.479 11.712 14.287C11.52 14.095 11.2827 13.9993 11 14C10.7167 14 10.479 14.096 10.287 14.288C10.095 14.48 9.99934 14.7173 10 15C10 15.2833 10.096 15.521 10.288 15.713C10.48 15.905 10.7173 16.0007 11 16ZM11 4C11.2833 4 11.521 3.904 11.713 3.712C11.905 3.52 12.0007 3.28267 12 3C12 2.71667 11.904 2.479 11.712 2.287C11.52 2.095 11.2827 1.99933 11 2C10.7167 2 10.479 2.096 10.287 2.288C10.095 2.48 9.99934 2.71733 10 3C10 3.28333 10.096 3.521 10.288 3.713C10.48 3.905 10.7173 4.00067 11 4ZM19 4C19.2833 4 19.521 3.904 19.713 3.712C19.905 3.52 20.0007 3.28267 20 3C20 2.71667 19.904 2.479 19.712 2.287C19.52 2.095 19.2827 1.99933 19 2C18.7167 2 18.479 2.096 18.287 2.288C18.095 2.48 17.9993 2.71733 18 3C18 3.28333 18.096 3.521 18.288 3.713C18.48 3.905 18.7173 4.00067 19 4Z" fill="#353B42"/>
  <path d="M3 18C2.16667 18 1.45834 17.7083 0.875002 17.125C0.291669 16.5417 1.77305e-06 15.8333 1.77305e-06 15C1.77305e-06 14.35 0.187668 13.7667 0.563002 13.25C0.938335 12.7333 1.41734 12.375 2 12.175V5.825C1.41667 5.625 0.937335 5.26667 0.562002 4.75C0.186669 4.23333 -0.000664894 3.65 1.77305e-06 3C1.77305e-06 2.16667 0.291669 1.45833 0.875002 0.875C1.45834 0.291667 2.16667 0 3 0C3.83334 0 4.54167 0.291667 5.125 0.875C5.70834 1.45833 6 2.16667 6 3C6 3.65 5.81234 4.23333 5.437 4.75C5.06167 5.26667 4.58267 5.625 4 5.825V8H10V5.825C9.41667 5.625 8.93734 5.26667 8.562 4.75C8.18667 4.23333 7.99934 3.65 8 3C8 2.16667 8.29167 1.45833 8.875 0.875C9.45834 0.291667 10.1667 0 11 0C11.8333 0 12.5417 0.291667 13.125 0.875C13.7083 1.45833 14 2.16667 14 3C14 3.65 13.8123 4.23333 13.437 4.75C13.0617 5.26667 12.5827 5.625 12 5.825V8H17C17.2833 8 17.521 7.90433 17.713 7.713C17.905 7.52167 18.0007 7.284 18 7V5.825C17.4167 5.625 16.9373 5.26667 16.562 4.75C16.1867 4.23333 15.9993 3.65 16 3C16 2.16667 16.2917 1.45833 16.875 0.875C17.4583 0.291667 18.1667 0 19 0C19.8333 0 20.5417 0.291667 21.125 0.875C21.7083 1.45833 22 2.16667 22 3C22 3.65 21.8123 4.23333 21.437 4.75C21.0617 5.26667 20.5827 5.625 20 5.825V7C20 7.83333 19.7083 8.54167 19.125 9.125C18.5417 9.70833 17.8333 10 17 10H12V12.175C12.5833 12.375 13.0627 12.7333 13.438 13.25C13.8133 13.7667 14.0007 14.35 14 15C14 15.8333 13.7083 16.5417 13.125 17.125C12.5417 17.7083 11.8333 18 11 18C10.1667 18 9.45834 17.7083 8.875 17.125C8.29167 16.5417 8 15.8333 8 15C8 14.35 8.18767 13.7667 8.563 13.25C8.93834 12.7333 9.41734 12.375 10 12.175V10H4V12.175C4.58334 12.375 5.06267 12.7333 5.438 13.25C5.81334 13.7667 6.00067 14.35 6 15C6 15.8333 5.70834 16.5417 5.125 17.125C4.54167 17.7083 3.83334 18 3 18ZM3 16C3.28334 16 3.521 15.904 3.713 15.712C3.905 15.52 4.00067 15.2827 4 15C4 14.7167 3.904 14.479 3.712 14.287C3.52 14.095 3.28267 13.9993 3 14C2.71667 14 2.479 14.096 2.287 14.288C2.095 14.48 1.99934 14.7173 2 15C2 15.2833 2.096 15.521 2.288 15.713C2.48 15.905 2.71734 16.0007 3 16ZM3 4C3.28334 4 3.521 3.904 3.713 3.712C3.905 3.52 4.00067 3.28267 4 3C4 2.71667 3.904 2.479 3.712 2.287C3.52 2.095 3.28267 1.99933 3 2C2.71667 2 2.479 2.096 2.287 2.288C2.095 2.48 1.99934 2.71733 2 3C2 3.28333 2.096 3.521 2.288 3.713C2.48 3.905 2.71734 4.00067 3 4ZM11 16C11.2833 16 11.521 15.904 11.713 15.712C11.905 15.52 12.0007 15.2827 12 15C12 14.7167 11.904 14.479 11.712 14.287C11.52 14.095 11.2827 13.9993 11 14C10.7167 14 10.479 14.096 10.287 14.288C10.095 14.48 9.99934 14.7173 10 15C10 15.2833 10.096 15.521 10.288 15.713C10.48 15.905 10.7173 16.0007 11 16ZM11 4C11.2833 4 11.521 3.904 11.713 3.712C11.905 3.52 12.0007 3.28267 12 3C12 2.71667 11.904 2.479 11.712 2.287C11.52 2.095 11.2827 1.99933 11 2C10.7167 2 10.479 2.096 10.287 2.288C10.095 2.48 9.99934 2.71733 10 3C10 3.28333 10.096 3.521 10.288 3.713C10.48 3.905 10.7173 4.00067 11 4ZM19 4C19.2833 4 19.521 3.904 19.713 3.712C19.905 3.52 20.0007 3.28267 20 3C20 2.71667 19.904 2.479 19.712 2.287C19.52 2.095 19.2827 1.99933 19 2C18.7167 2 18.479 2.096 18.287 2.288C18.095 2.48 17.9993 2.71733 18 3C18 3.28333 18.096 3.521 18.288 3.713C18.48 3.905 18.7173 4.00067 19 4Z" fill="black" fill-opacity="0.2"/>
  <path d="M3 18C2.16667 18 1.45834 17.7083 0.875002 17.125C0.291669 16.5417 1.77305e-06 15.8333 1.77305e-06 15C1.77305e-06 14.35 0.187668 13.7667 0.563002 13.25C0.938335 12.7333 1.41734 12.375 2 12.175V5.825C1.41667 5.625 0.937335 5.26667 0.562002 4.75C0.186669 4.23333 -0.000664894 3.65 1.77305e-06 3C1.77305e-06 2.16667 0.291669 1.45833 0.875002 0.875C1.45834 0.291667 2.16667 0 3 0C3.83334 0 4.54167 0.291667 5.125 0.875C5.70834 1.45833 6 2.16667 6 3C6 3.65 5.81234 4.23333 5.437 4.75C5.06167 5.26667 4.58267 5.625 4 5.825V8H10V5.825C9.41667 5.625 8.93734 5.26667 8.562 4.75C8.18667 4.23333 7.99934 3.65 8 3C8 2.16667 8.29167 1.45833 8.875 0.875C9.45834 0.291667 10.1667 0 11 0C11.8333 0 12.5417 0.291667 13.125 0.875C13.7083 1.45833 14 2.16667 14 3C14 3.65 13.8123 4.23333 13.437 4.75C13.0617 5.26667 12.5827 5.625 12 5.825V8H17C17.2833 8 17.521 7.90433 17.713 7.713C17.905 7.52167 18.0007 7.284 18 7V5.825C17.4167 5.625 16.9373 5.26667 16.562 4.75C16.1867 4.23333 15.9993 3.65 16 3C16 2.16667 16.2917 1.45833 16.875 0.875C17.4583 0.291667 18.1667 0 19 0C19.8333 0 20.5417 0.291667 21.125 0.875C21.7083 1.45833 22 2.16667 22 3C22 3.65 21.8123 4.23333 21.437 4.75C21.0617 5.26667 20.5827 5.625 20 5.825V7C20 7.83333 19.7083 8.54167 19.125 9.125C18.5417 9.70833 17.8333 10 17 10H12V12.175C12.5833 12.375 13.0627 12.7333 13.438 13.25C13.8133 13.7667 14.0007 14.35 14 15C14 15.8333 13.7083 16.5417 13.125 17.125C12.5417 17.7083 11.8333 18 11 18C10.1667 18 9.45834 17.7083 8.875 17.125C8.29167 16.5417 8 15.8333 8 15C8 14.35 8.18767 13.7667 8.563 13.25C8.93834 12.7333 9.41734 12.375 10 12.175V10H4V12.175C4.58334 12.375 5.06267 12.7333 5.438 13.25C5.81334 13.7667 6.00067 14.35 6 15C6 15.8333 5.70834 16.5417 5.125 17.125C4.54167 17.7083 3.83334 18 3 18ZM3 16C3.28334 16 3.521 15.904 3.713 15.712C3.905 15.52 4.00067 15.2827 4 15C4 14.7167 3.904 14.479 3.712 14.287C3.52 14.095 3.28267 13.9993 3 14C2.71667 14 2.479 14.096 2.287 14.288C2.095 14.48 1.99934 14.7173 2 15C2 15.2833 2.096 15.521 2.288 15.713C2.48 15.905 2.71734 16.0007 3 16ZM3 4C3.28334 4 3.521 3.904 3.713 3.712C3.905 3.52 4.00067 3.28267 4 3C4 2.71667 3.904 2.479 3.712 2.287C3.52 2.095 3.28267 1.99933 3 2C2.71667 2 2.479 2.096 2.287 2.288C2.095 2.48 1.99934 2.71733 2 3C2 3.28333 2.096 3.521 2.288 3.713C2.48 3.905 2.71734 4.00067 3 4ZM11 16C11.2833 16 11.521 15.904 11.713 15.712C11.905 15.52 12.0007 15.2827 12 15C12 14.7167 11.904 14.479 11.712 14.287C11.52 14.095 11.2827 13.9993 11 14C10.7167 14 10.479 14.096 10.287 14.288C10.095 14.48 9.99934 14.7173 10 15C10 15.2833 10.096 15.521 10.288 15.713C10.48 15.905 10.7173 16.0007 11 16ZM11 4C11.2833 4 11.521 3.904 11.713 3.712C11.905 3.52 12.0007 3.28267 12 3C12 2.71667 11.904 2.479 11.712 2.287C11.52 2.095 11.2827 1.99933 11 2C10.7167 2 10.479 2.096 10.287 2.288C10.095 2.48 9.99934 2.71733 10 3C10 3.28333 10.096 3.521 10.288 3.713C10.48 3.905 10.7173 4.00067 11 4ZM19 4C19.2833 4 19.521 3.904 19.713 3.712C19.905 3.52 20.0007 3.28267 20 3C20 2.71667 19.904 2.479 19.712 2.287C19.52 2.095 19.2827 1.99933 19 2C18.7167 2 18.479 2.096 18.287 2.288C18.095 2.48 17.9993 2.71733 18 3C18 3.28333 18.096 3.521 18.288 3.713C18.48 3.905 18.7173 4.00067 19 4Z" fill="black" fill-opacity="0.2"/>
</svg>