<svg xmlns="http://www.w3.org/2000/svg" width="55" height="55" viewBox="0 0 55 55" fill="none">
  <path d="M27.498 29.1878C27.4275 29.1878 27.2924 29.0991 27.0633 28.6868C26.1044 26.9303 24.7877 25.387 23.1956 24.1534C21.9461 23.1892 20.5591 22.4115 19.0792 21.8452C18.8549 21.7556 18.6297 21.6682 18.4035 21.5832C16.4217 20.8125 14.3674 20.0168 12.46 18.9301C12.2486 18.8124 12.0396 18.6903 11.8333 18.564C12.2133 17.909 12.6558 17.2828 13.1454 16.7106C13.8559 15.8751 14.6819 15.1416 15.5992 14.5315C16.5841 13.8836 17.6489 13.3618 18.7678 12.9786C21.153 12.1424 24.0103 11.732 27.498 11.7282C30.9897 11.732 33.845 12.1424 36.2303 12.9805C37.35 13.3624 38.4155 13.8836 39.4008 14.5315C40.3176 15.1415 41.1435 15.8743 41.8546 16.7087C42.3442 17.2828 42.7848 17.909 43.1667 18.564C42.965 18.6874 42.7515 18.8126 42.54 18.934C40.6287 20.0206 38.5783 20.8163 36.5925 21.5851L35.9169 21.8471C34.4384 22.4139 33.0528 23.1916 31.8044 24.1553C30.2116 25.389 28.8949 26.9331 27.9367 28.6907C27.7076 29.1011 27.5705 29.1878 27.498 29.1878ZM27.498 42.8152C24.4744 42.8113 22.0186 42.5667 19.9976 42.0696C18.0138 41.584 16.3649 40.8365 14.953 39.7807C13.8706 38.9629 12.9472 37.9598 12.227 36.8194C11.5523 35.7554 11.0192 34.6105 10.6407 33.413C10.0505 31.5518 9.74235 29.6153 9.72617 27.6657C9.72617 26.3671 9.81821 25.136 9.99054 24.0031C12.1565 25.1514 14.2068 25.7275 16.0222 26.238L16.4433 26.3536C18.9695 27.0684 20.9748 28.0048 22.5826 29.2205C23.5128 29.9295 24.3255 30.7484 24.9914 31.6559C25.714 32.6346 26.2897 33.7521 26.7088 34.9794C26.8968 35.5362 27.1005 35.8811 27.498 35.8811C27.9034 35.8811 28.1012 35.5343 28.2912 34.9794C29.0387 32.6918 30.4782 30.6833 32.4174 29.2225C34.0232 28.0048 36.0305 27.0684 38.5568 26.3536L38.9798 26.238C40.7932 25.7275 42.8435 25.1514 45.0075 24.0031C45.1838 25.1379 45.2738 26.3671 45.2738 27.6638C45.2738 28.5462 45.1838 30.8698 44.3632 33.413C43.985 34.6103 43.4526 35.7551 42.7789 36.8194C42.0565 37.9605 41.1303 38.9637 40.0451 39.7807C38.6292 40.8365 36.9803 41.584 35.0043 42.0696C32.9775 42.5667 30.5237 42.8113 27.498 42.8152ZM46.4782 14.7704C42.7397 10.8207 36.7061 9.00963 27.498 9C18.2939 9.00963 12.2603 10.8188 8.52179 14.7685C5.74292 17.699 4 21.7546 4 27.2572C4 30.2995 4.76375 38.0467 10.9795 42.0464C14.7003 44.4394 19.5061 45.9884 27.498 46C35.4939 45.9884 40.2977 44.4394 44.0205 42.0464C50.2343 38.0467 51 30.2975 51 27.2572C51 21.77 49.2434 17.6855 46.4763 14.7666L46.4782 14.7704Z" fill="#353B42"/>
  <path d="M27.498 29.1878C27.4275 29.1878 27.2924 29.0991 27.0633 28.6868C26.1044 26.9303 24.7877 25.387 23.1956 24.1534C21.9461 23.1892 20.5591 22.4115 19.0792 21.8452C18.8549 21.7556 18.6297 21.6682 18.4035 21.5832C16.4217 20.8125 14.3674 20.0168 12.46 18.9301C12.2486 18.8124 12.0396 18.6903 11.8333 18.564C12.2133 17.909 12.6558 17.2828 13.1454 16.7106C13.8559 15.8751 14.6819 15.1416 15.5992 14.5315C16.5841 13.8836 17.6489 13.3618 18.7678 12.9786C21.153 12.1424 24.0103 11.732 27.498 11.7282C30.9897 11.732 33.845 12.1424 36.2303 12.9805C37.35 13.3624 38.4155 13.8836 39.4008 14.5315C40.3176 15.1415 41.1435 15.8743 41.8546 16.7087C42.3442 17.2828 42.7848 17.909 43.1667 18.564C42.965 18.6874 42.7515 18.8126 42.54 18.934C40.6287 20.0206 38.5783 20.8163 36.5925 21.5851L35.9169 21.8471C34.4384 22.4139 33.0528 23.1916 31.8044 24.1553C30.2116 25.389 28.8949 26.9331 27.9367 28.6907C27.7076 29.1011 27.5705 29.1878 27.498 29.1878ZM27.498 42.8152C24.4744 42.8113 22.0186 42.5667 19.9976 42.0696C18.0138 41.584 16.3649 40.8365 14.953 39.7807C13.8706 38.9629 12.9472 37.9598 12.227 36.8194C11.5523 35.7554 11.0192 34.6105 10.6407 33.413C10.0505 31.5518 9.74235 29.6153 9.72617 27.6657C9.72617 26.3671 9.81821 25.136 9.99054 24.0031C12.1565 25.1514 14.2068 25.7275 16.0222 26.238L16.4433 26.3536C18.9695 27.0684 20.9748 28.0048 22.5826 29.2205C23.5128 29.9295 24.3255 30.7484 24.9914 31.6559C25.714 32.6346 26.2897 33.7521 26.7088 34.9794C26.8968 35.5362 27.1005 35.8811 27.498 35.8811C27.9034 35.8811 28.1012 35.5343 28.2912 34.9794C29.0387 32.6918 30.4782 30.6833 32.4174 29.2225C34.0232 28.0048 36.0305 27.0684 38.5568 26.3536L38.9798 26.238C40.7932 25.7275 42.8435 25.1514 45.0075 24.0031C45.1838 25.1379 45.2738 26.3671 45.2738 27.6638C45.2738 28.5462 45.1838 30.8698 44.3632 33.413C43.985 34.6103 43.4526 35.7551 42.7789 36.8194C42.0565 37.9605 41.1303 38.9637 40.0451 39.7807C38.6292 40.8365 36.9803 41.584 35.0043 42.0696C32.9775 42.5667 30.5237 42.8113 27.498 42.8152ZM46.4782 14.7704C42.7397 10.8207 36.7061 9.00963 27.498 9C18.2939 9.00963 12.2603 10.8188 8.52179 14.7685C5.74292 17.699 4 21.7546 4 27.2572C4 30.2995 4.76375 38.0467 10.9795 42.0464C14.7003 44.4394 19.5061 45.9884 27.498 46C35.4939 45.9884 40.2977 44.4394 44.0205 42.0464C50.2343 38.0467 51 30.2975 51 27.2572C51 21.77 49.2434 17.6855 46.4763 14.7666L46.4782 14.7704Z" fill="black" fill-opacity="0.2"/>
  <path d="M27.498 29.1878C27.4275 29.1878 27.2924 29.0991 27.0633 28.6868C26.1044 26.9303 24.7877 25.387 23.1956 24.1534C21.9461 23.1892 20.5591 22.4115 19.0792 21.8452C18.8549 21.7556 18.6297 21.6682 18.4035 21.5832C16.4217 20.8125 14.3674 20.0168 12.46 18.9301C12.2486 18.8124 12.0396 18.6903 11.8333 18.564C12.2133 17.909 12.6558 17.2828 13.1454 16.7106C13.8559 15.8751 14.6819 15.1416 15.5992 14.5315C16.5841 13.8836 17.6489 13.3618 18.7678 12.9786C21.153 12.1424 24.0103 11.732 27.498 11.7282C30.9897 11.732 33.845 12.1424 36.2303 12.9805C37.35 13.3624 38.4155 13.8836 39.4008 14.5315C40.3176 15.1415 41.1435 15.8743 41.8546 16.7087C42.3442 17.2828 42.7848 17.909 43.1667 18.564C42.965 18.6874 42.7515 18.8126 42.54 18.934C40.6287 20.0206 38.5783 20.8163 36.5925 21.5851L35.9169 21.8471C34.4384 22.4139 33.0528 23.1916 31.8044 24.1553C30.2116 25.389 28.8949 26.9331 27.9367 28.6907C27.7076 29.1011 27.5705 29.1878 27.498 29.1878ZM27.498 42.8152C24.4744 42.8113 22.0186 42.5667 19.9976 42.0696C18.0138 41.584 16.3649 40.8365 14.953 39.7807C13.8706 38.9629 12.9472 37.9598 12.227 36.8194C11.5523 35.7554 11.0192 34.6105 10.6407 33.413C10.0505 31.5518 9.74235 29.6153 9.72617 27.6657C9.72617 26.3671 9.81821 25.136 9.99054 24.0031C12.1565 25.1514 14.2068 25.7275 16.0222 26.238L16.4433 26.3536C18.9695 27.0684 20.9748 28.0048 22.5826 29.2205C23.5128 29.9295 24.3255 30.7484 24.9914 31.6559C25.714 32.6346 26.2897 33.7521 26.7088 34.9794C26.8968 35.5362 27.1005 35.8811 27.498 35.8811C27.9034 35.8811 28.1012 35.5343 28.2912 34.9794C29.0387 32.6918 30.4782 30.6833 32.4174 29.2225C34.0232 28.0048 36.0305 27.0684 38.5568 26.3536L38.9798 26.238C40.7932 25.7275 42.8435 25.1514 45.0075 24.0031C45.1838 25.1379 45.2738 26.3671 45.2738 27.6638C45.2738 28.5462 45.1838 30.8698 44.3632 33.413C43.985 34.6103 43.4526 35.7551 42.7789 36.8194C42.0565 37.9605 41.1303 38.9637 40.0451 39.7807C38.6292 40.8365 36.9803 41.584 35.0043 42.0696C32.9775 42.5667 30.5237 42.8113 27.498 42.8152ZM46.4782 14.7704C42.7397 10.8207 36.7061 9.00963 27.498 9C18.2939 9.00963 12.2603 10.8188 8.52179 14.7685C5.74292 17.699 4 21.7546 4 27.2572C4 30.2995 4.76375 38.0467 10.9795 42.0464C14.7003 44.4394 19.5061 45.9884 27.498 46C35.4939 45.9884 40.2977 44.4394 44.0205 42.0464C50.2343 38.0467 51 30.2975 51 27.2572C51 21.77 49.2434 17.6855 46.4763 14.7666L46.4782 14.7704Z" fill="black" fill-opacity="0.2"/>
</svg>