<svg xmlns="http://www.w3.org/2000/svg" width="25" height="25" viewBox="0 0 25 25" fill="none">
<g opacity="0.75">
<path d="M10.5469 8.20313C10.5469 7.89409 10.6385 7.592 10.8102 7.33505C10.9819 7.0781 11.2259 6.87783 11.5114 6.75956C11.7969 6.6413 12.1111 6.61036 12.4142 6.67065C12.7173 6.73094 12.9957 6.87975 13.2142 7.09827C13.4328 7.31679 13.5816 7.5952 13.6419 7.8983C13.7021 8.20139 13.6712 8.51556 13.5529 8.80107C13.4347 9.08658 13.2344 9.33061 12.9775 9.5023C12.7205 9.67399 12.4184 9.76563 12.1094 9.76563C11.695 9.76563 11.2976 9.60101 11.0045 9.30798C10.7115 9.01495 10.5469 8.61753 10.5469 8.20313ZM23.0469 12.5C23.0469 14.586 22.4283 16.6251 21.2694 18.3595C20.1105 20.094 18.4633 21.4458 16.5361 22.244C14.6089 23.0423 12.4883 23.2512 10.4424 22.8442C8.39652 22.4373 6.51725 21.4328 5.04224 19.9578C3.56723 18.4828 2.56274 16.6035 2.15578 14.5576C1.74883 12.5117 1.95769 10.3911 2.75596 8.46389C3.55423 6.5367 4.90605 4.8895 6.64048 3.73059C8.3749 2.57169 10.414 1.95313 12.5 1.95312C15.2963 1.95623 17.9771 3.06841 19.9543 5.04566C21.9316 7.02291 23.0438 9.70375 23.0469 12.5ZM20.7031 12.5C20.7031 10.8776 20.222 9.29159 19.3207 7.94259C18.4193 6.59359 17.1381 5.54218 15.6392 4.9213C14.1403 4.30043 12.4909 4.13798 10.8997 4.4545C9.3084 4.77102 7.84675 5.55229 6.69952 6.69951C5.55229 7.84674 4.77102 9.3084 4.4545 10.8997C4.13798 12.4909 4.30043 14.1403 4.92131 15.6392C5.54218 17.1381 6.5936 18.4193 7.94259 19.3207C9.29159 20.222 10.8776 20.7031 12.5 20.7031C14.6749 20.7008 16.76 19.8358 18.2979 18.2979C19.8358 16.76 20.7008 14.6749 20.7031 12.5ZM13.6719 16.082V12.8906C13.6719 12.3726 13.4661 11.8758 13.0998 11.5096C12.7335 11.1433 12.2368 10.9375 11.7188 10.9375C11.442 10.9371 11.174 11.0346 10.9623 11.2129C10.7506 11.3911 10.6088 11.6385 10.562 11.9113C10.5152 12.184 10.5665 12.4645 10.7067 12.7031C10.8469 12.9417 11.0671 13.123 11.3281 13.2148V16.4063C11.3281 16.9243 11.5339 17.421 11.9002 17.7873C12.2665 18.1536 12.7633 18.3594 13.2813 18.3594C13.558 18.3598 13.826 18.2622 14.0377 18.084C14.2494 17.9058 14.3912 17.6584 14.438 17.3856C14.4848 17.1129 14.4335 16.8323 14.2933 16.5937C14.1531 16.3551 13.9329 16.1739 13.6719 16.082Z" fill="#353B42"/>
</g>
</svg>