<svg xmlns="http://www.w3.org/2000/svg" width="83" height="83" viewBox="0 0 83 83" fill="none">
<path d="M13.833 20.7498V65.7082C13.833 68.4598 14.9261 71.0987 16.8718 73.0444C18.8175 74.9901 21.4564 76.0832 24.208 76.0832H58.7913C61.543 76.0832 64.1819 74.9901 66.1276 73.0444C68.0733 71.0987 69.1663 68.4598 69.1663 65.7082V31.1248C69.1663 28.3732 68.0733 25.7343 66.1276 23.7886C64.1819 21.8429 61.543 20.7498 58.7913 20.7498H13.833ZM13.833 20.7498V17.2915" stroke="#353B42" stroke-width="1.5"/>
<path d="M41.5 55.3335C47.23 55.3335 51.875 50.6884 51.875 44.9585C51.875 39.2285 47.23 34.5835 41.5 34.5835C35.77 34.5835 31.125 39.2285 31.125 44.9585C31.125 50.6884 35.77 55.3335 41.5 55.3335Z" stroke="#353B42" stroke-width="1.5"/>
<path d="M62.2497 20.75V23.3437H64.8434V20.75H62.2497ZM17.5334 23.3437H62.2497V18.1562H17.5369L17.5334 23.3437ZM64.8434 20.75V14.8915H59.6559V20.75H64.8434ZM53.9877 5.47795L16.6481 10.8107L17.3813 15.9463L54.7209 10.617L53.9877 5.48141V5.47795ZM16.6481 10.8107C15.1463 11.0248 13.7722 11.7738 12.7785 12.92C11.7848 14.0662 11.2382 15.5326 11.2393 17.0495H16.4268C16.4259 16.7818 16.5221 16.5228 16.6976 16.3206C16.8732 16.1183 17.116 15.9831 17.3813 15.9463L16.6481 10.8142V10.8107ZM64.8434 14.8915C64.8433 13.529 64.5503 12.1825 63.9845 10.943C63.4186 9.70358 62.5931 8.60019 61.5637 7.70756C60.5343 6.81493 59.3251 6.1539 58.0181 5.76923C56.711 5.38455 55.3365 5.28522 53.9877 5.47795L54.7209 10.617C55.3339 10.5293 55.9587 10.5709 56.5528 10.7457C57.147 10.9204 57.6966 11.2208 58.1646 11.6265C58.6325 12.0321 59.0079 12.5336 59.2652 13.0969C59.5225 13.6602 59.6557 14.2722 59.6559 14.8915H64.8434ZM17.5369 18.1562C17.2425 18.1562 16.9601 18.0392 16.7519 17.8311C16.5437 17.6229 16.4268 17.344 16.4268 17.0495H11.2393C11.2388 17.8767 11.4014 18.6923 11.7177 19.4566C12.034 20.2209 12.4979 20.9153 13.0828 21.5002C13.6677 22.0851 14.3621 22.5489 15.1264 22.8653C15.8906 23.1816 16.7063 23.3442 17.5334 23.3437L17.5369 18.1562Z" fill="#353B42"/>
<path d="M34.583 65.7085H48.4163" stroke="#353B42" stroke-width="1.5" stroke-linecap="round"/>
</svg>