<svg xmlns="http://www.w3.org/2000/svg" width="20" height="21" viewBox="0 0 20 21" fill="none">
  <path d="M3.61719 1.32031C2.36719 1.32031 1.11562 2.25781 1.11562 4.13281L3.61719 9.13281L6.11719 4.13281C6.11719 2.25781 4.86719 1.32031 3.61719 1.32031ZM14.6445 2.84375C14.375 2.85508 14.1133 2.90625 13.8945 2.95312L14.043 3.64062C14.2617 3.5918 14.4883 3.56094 14.6797 3.54688L14.6445 2.84375ZM3.61719 2.88281C4.30859 2.88281 4.86719 3.44258 4.86719 4.13281C4.86719 4.82422 4.30859 5.38281 3.61719 5.38281C2.92695 5.38281 2.36719 4.82422 2.36719 4.13281C2.36719 3.44258 2.92695 2.88281 3.61719 2.88281ZM15.4219 2.89062L15.3047 3.58203C15.4961 3.62227 15.6875 3.67266 15.8555 3.77344L16.1953 3.15625C15.957 3.0293 15.6914 2.91523 15.4219 2.89062ZM13.1758 3.15234C12.9375 3.24531 12.6992 3.32852 12.4961 3.41016L12.7734 4.05469C12.9883 3.96328 13.2148 3.88359 13.4063 3.81641L13.1758 3.15234ZM16.8359 3.67578L16.3008 4.13281C16.4414 4.29375 16.5508 4.49219 16.6367 4.65234L17.2656 4.33594C17.1328 4.08008 17.0156 3.88633 16.8359 3.67578ZM11.8438 3.71094C11.6055 3.83242 11.4102 3.94063 11.1992 4.04688L11.543 4.66406C11.7461 4.54688 11.9688 4.43359 12.1484 4.34375L11.8438 3.71094ZM10.582 4.41016C10.375 4.53125 10.1719 4.65234 9.97266 4.78516L10.3555 5.37109C10.5469 5.24609 10.7461 5.12891 10.9414 5.01172L10.582 4.41016ZM17.5078 5.10938C17.2773 5.14844 17.043 5.17578 16.8125 5.20312C16.8281 5.39844 16.8164 5.60938 16.7773 5.77344L17.4609 5.93359C17.5 5.65234 17.5352 5.36328 17.5078 5.10938ZM9.37891 5.17578C9.18359 5.30859 8.99219 5.44531 8.79688 5.57812L9.20312 6.15234C9.39063 6.01562 9.58203 5.88672 9.77344 5.75391L9.37891 5.17578ZM8.22266 6C8.02734 6.14062 7.82422 6.29688 7.65625 6.42578L8.08203 6.98438C8.29688 6.82812 8.44531 6.71094 8.64062 6.56641L8.22266 6ZM16.543 6.3125C16.4258 6.49219 16.2891 6.67188 16.1523 6.80859L16.6641 7.29688C16.832 7.09766 17.0117 6.89453 17.1367 6.69141L16.543 6.3125ZM7.09766 6.86328C6.90625 7.01172 6.71484 7.16406 6.54688 7.30469L6.99219 7.84766C7.17578 7.69531 7.36328 7.53906 7.53516 7.41406L7.09766 6.86328ZM15.668 7.25781C15.4883 7.40234 15.3008 7.54297 15.1289 7.66016L15.5312 8.23828C15.7383 8.09766 15.9414 7.94531 16.1172 7.80469L15.668 7.25781ZM6.00391 7.76172C5.82031 7.91016 5.64453 8.06641 5.46484 8.21875L5.92188 8.75391C6.09766 8.60156 6.27344 8.44922 6.45312 8.30078L6.00391 7.76172ZM14.5547 8.03516C14.3555 8.15234 14.1484 8.27344 13.9609 8.375L14.2969 8.99609C14.5078 8.86719 14.7461 8.75391 14.9219 8.63672L14.5547 8.03516ZM4.92969 8.68359C4.75391 8.83984 4.58203 8.99609 4.40625 9.15625L4.87891 9.67969C5.05078 9.52344 5.22656 9.36719 5.39844 9.21094L4.92969 8.68359ZM13.3477 8.69922C13.1406 8.80078 12.9336 8.90625 12.7266 9.00781L13.0273 9.64062C13.2695 9.52344 13.4492 9.42578 13.668 9.32422L13.3477 8.69922ZM12.0977 9.30078C11.8828 9.39844 11.6758 9.49219 11.457 9.58203L11.7422 10.2266C11.957 10.1328 12.1719 10.0352 12.3867 9.9375L12.0977 9.30078ZM3.89062 9.64062C3.69141 9.81641 3.55273 9.95312 3.37109 10.1289L3.86719 10.6367C4.05078 10.4609 4.19922 10.3086 4.37109 10.1602L3.89062 9.64062ZM10.8164 9.86719C10.6016 9.95703 10.3867 10.0508 10.1719 10.1406L10.4453 10.793C10.6641 10.7031 10.8789 10.6094 11.0938 10.5156L10.8164 9.86719ZM9.52344 10.4141C9.30859 10.5078 9.09375 10.6016 8.875 10.6875L9.14844 11.3398C9.36328 11.25 9.58203 11.1562 9.79688 11.0664L9.52344 10.4141ZM16.7422 10.6953C15.4922 10.6953 14.2422 11.6328 14.2422 13.5078L16.7422 18.5078L19.2422 13.5078C19.2422 11.6328 17.9922 10.6953 16.7422 10.6953ZM8.22656 10.9609C8.00391 11.0625 7.76953 11.1562 7.57812 11.2383L7.85547 11.8867C8.08594 11.7891 8.30469 11.6953 8.5 11.6094L8.22656 10.9609ZM6.92969 11.5156C6.71875 11.6133 6.47266 11.7227 6.28516 11.8086L6.57422 12.4492C6.80469 12.3477 7.00781 12.2461 7.21094 12.1602L6.92969 11.5156ZM5.64062 12.1016C5.42187 12.207 5.19531 12.3164 5 12.4141L5.31641 13.043C5.52734 12.9336 5.74609 12.832 5.9375 12.7383L5.64062 12.1016ZM16.7422 12.2578C17.4336 12.2578 17.9922 12.8164 17.9922 13.5078C17.9922 14.1992 17.4336 14.7578 16.7422 14.7578C16.0508 14.7578 15.4922 14.1992 15.4922 13.5078C15.4922 12.8164 16.0508 12.2578 16.7422 12.2578ZM4.36719 12.7383C4.16016 12.8516 3.95312 12.9688 3.74219 13.0898L4.09375 13.6992C4.29297 13.582 4.49609 13.4727 4.69922 13.3633L4.36719 12.7383ZM3.12891 13.4688C2.90977 13.5938 2.69805 13.7617 2.51562 13.8828L2.94141 14.4453C3.13555 14.3047 3.34453 14.1602 3.51172 14.0586L3.12891 13.4688ZM1.96094 14.3516C1.77344 14.5234 1.58867 14.7227 1.44531 14.8906L1.98047 15.3477C2.13086 15.1641 2.26172 15.0273 2.4375 14.8711L1.96094 14.3516ZM10.4688 14.4023L10.5312 15.1016C10.7344 15.0664 10.9375 15.0898 11.1406 15.1211L11.2617 14.4297C11.0039 14.3906 10.7305 14.3633 10.4688 14.4023ZM9.01562 14.793L9.28125 15.4453C9.48438 15.3555 9.69531 15.2852 9.91016 15.2188C9.83594 14.9961 9.78125 14.7695 9.72266 14.543C9.47656 14.6133 9.23047 14.707 9.01562 14.793ZM12.043 14.7578L11.6445 15.3359C11.8086 15.457 11.9688 15.5859 12.0977 15.7461L12.6289 15.2852C12.4297 15.082 12.2773 14.8906 12.043 14.7578ZM8.35156 15.1094C8.13672 15.2188 7.92969 15.3438 7.72266 15.4648L8.07813 16.0703C8.28125 15.9609 8.48047 15.832 8.67969 15.7266L8.35156 15.1094ZM1.01602 15.5391C0.898047 15.793 0.802344 16.0664 0.757812 16.3086L1.44922 16.4297C1.49141 16.207 1.55195 16.0469 1.64062 15.8555C1.42617 15.7617 1.22148 15.6484 1.01602 15.5391ZM7.11328 15.8438C6.91406 15.9727 6.71875 16.1016 6.52344 16.2344L6.91406 16.8203C7.10938 16.6914 7.30078 16.5586 7.49609 16.4297L7.11328 15.8438ZM13.0781 15.8906L12.4883 16.2734C12.6133 16.4609 12.7344 16.6563 12.8477 16.8555L13.457 16.5039C13.3203 16.2852 13.2227 16.0898 13.0781 15.8906ZM5.94141 16.6328C5.74609 16.7617 5.55078 16.8867 5.35938 17.0234L5.75 17.6094C5.9375 17.4727 6.13672 17.3438 6.33594 17.2109L5.94141 16.6328ZM1.45703 17.0039C1.23086 17.0508 1.00273 17.0898 0.775391 17.1328C0.816406 17.4062 0.926172 17.6719 1.02539 17.8828L1.66016 17.5781C1.57539 17.3828 1.49492 17.1797 1.45703 17.0039ZM13.8047 17.1133L13.1953 17.4648C13.3164 17.6758 13.457 17.9023 13.5703 18.082L14.1602 17.7031C14.0273 17.4961 13.9141 17.3008 13.8047 17.1133ZM4.78125 17.4062C4.58594 17.5273 4.39453 17.6445 4.19141 17.7578L4.53906 18.3711C4.74609 18.25 4.95312 18.1289 5.15234 18L4.78125 17.4062ZM1.99609 18.043L1.51562 18.5586C1.73281 18.7656 2.00078 18.9023 2.29297 18.9648L2.44922 18.2812C2.27578 18.2461 2.11367 18.1602 1.99609 18.043ZM3.59766 18.0547C3.40195 18.1445 3.19883 18.2148 2.98828 18.2578L3.14844 18.9453C3.39922 18.8945 3.63516 18.8008 3.87109 18.7031L3.59766 18.0547ZM14.5469 18.2422L14.0039 18.6836C14.1719 18.8906 14.3789 19.0898 14.5586 19.2305L14.9922 18.6758C14.8203 18.543 14.6719 18.3828 14.5469 18.2422ZM15.4883 18.9258L15.3125 19.6094C15.6211 19.6719 15.8516 19.6914 16.1406 19.6602L16.0547 18.9609C15.8633 18.9922 15.6758 18.9727 15.4883 18.9258Z" fill="#353B42"/>
  <path d="M3.61719 1.32031C2.36719 1.32031 1.11562 2.25781 1.11562 4.13281L3.61719 9.13281L6.11719 4.13281C6.11719 2.25781 4.86719 1.32031 3.61719 1.32031ZM14.6445 2.84375C14.375 2.85508 14.1133 2.90625 13.8945 2.95312L14.043 3.64062C14.2617 3.5918 14.4883 3.56094 14.6797 3.54688L14.6445 2.84375ZM3.61719 2.88281C4.30859 2.88281 4.86719 3.44258 4.86719 4.13281C4.86719 4.82422 4.30859 5.38281 3.61719 5.38281C2.92695 5.38281 2.36719 4.82422 2.36719 4.13281C2.36719 3.44258 2.92695 2.88281 3.61719 2.88281ZM15.4219 2.89062L15.3047 3.58203C15.4961 3.62227 15.6875 3.67266 15.8555 3.77344L16.1953 3.15625C15.957 3.0293 15.6914 2.91523 15.4219 2.89062ZM13.1758 3.15234C12.9375 3.24531 12.6992 3.32852 12.4961 3.41016L12.7734 4.05469C12.9883 3.96328 13.2148 3.88359 13.4063 3.81641L13.1758 3.15234ZM16.8359 3.67578L16.3008 4.13281C16.4414 4.29375 16.5508 4.49219 16.6367 4.65234L17.2656 4.33594C17.1328 4.08008 17.0156 3.88633 16.8359 3.67578ZM11.8438 3.71094C11.6055 3.83242 11.4102 3.94063 11.1992 4.04688L11.543 4.66406C11.7461 4.54688 11.9688 4.43359 12.1484 4.34375L11.8438 3.71094ZM10.582 4.41016C10.375 4.53125 10.1719 4.65234 9.97266 4.78516L10.3555 5.37109C10.5469 5.24609 10.7461 5.12891 10.9414 5.01172L10.582 4.41016ZM17.5078 5.10938C17.2773 5.14844 17.043 5.17578 16.8125 5.20312C16.8281 5.39844 16.8164 5.60938 16.7773 5.77344L17.4609 5.93359C17.5 5.65234 17.5352 5.36328 17.5078 5.10938ZM9.37891 5.17578C9.18359 5.30859 8.99219 5.44531 8.79688 5.57812L9.20312 6.15234C9.39063 6.01562 9.58203 5.88672 9.77344 5.75391L9.37891 5.17578ZM8.22266 6C8.02734 6.14062 7.82422 6.29688 7.65625 6.42578L8.08203 6.98438C8.29688 6.82812 8.44531 6.71094 8.64062 6.56641L8.22266 6ZM16.543 6.3125C16.4258 6.49219 16.2891 6.67188 16.1523 6.80859L16.6641 7.29688C16.832 7.09766 17.0117 6.89453 17.1367 6.69141L16.543 6.3125ZM7.09766 6.86328C6.90625 7.01172 6.71484 7.16406 6.54688 7.30469L6.99219 7.84766C7.17578 7.69531 7.36328 7.53906 7.53516 7.41406L7.09766 6.86328ZM15.668 7.25781C15.4883 7.40234 15.3008 7.54297 15.1289 7.66016L15.5312 8.23828C15.7383 8.09766 15.9414 7.94531 16.1172 7.80469L15.668 7.25781ZM6.00391 7.76172C5.82031 7.91016 5.64453 8.06641 5.46484 8.21875L5.92188 8.75391C6.09766 8.60156 6.27344 8.44922 6.45312 8.30078L6.00391 7.76172ZM14.5547 8.03516C14.3555 8.15234 14.1484 8.27344 13.9609 8.375L14.2969 8.99609C14.5078 8.86719 14.7461 8.75391 14.9219 8.63672L14.5547 8.03516ZM4.92969 8.68359C4.75391 8.83984 4.58203 8.99609 4.40625 9.15625L4.87891 9.67969C5.05078 9.52344 5.22656 9.36719 5.39844 9.21094L4.92969 8.68359ZM13.3477 8.69922C13.1406 8.80078 12.9336 8.90625 12.7266 9.00781L13.0273 9.64062C13.2695 9.52344 13.4492 9.42578 13.668 9.32422L13.3477 8.69922ZM12.0977 9.30078C11.8828 9.39844 11.6758 9.49219 11.457 9.58203L11.7422 10.2266C11.957 10.1328 12.1719 10.0352 12.3867 9.9375L12.0977 9.30078ZM3.89062 9.64062C3.69141 9.81641 3.55273 9.95312 3.37109 10.1289L3.86719 10.6367C4.05078 10.4609 4.19922 10.3086 4.37109 10.1602L3.89062 9.64062ZM10.8164 9.86719C10.6016 9.95703 10.3867 10.0508 10.1719 10.1406L10.4453 10.793C10.6641 10.7031 10.8789 10.6094 11.0938 10.5156L10.8164 9.86719ZM9.52344 10.4141C9.30859 10.5078 9.09375 10.6016 8.875 10.6875L9.14844 11.3398C9.36328 11.25 9.58203 11.1562 9.79688 11.0664L9.52344 10.4141ZM16.7422 10.6953C15.4922 10.6953 14.2422 11.6328 14.2422 13.5078L16.7422 18.5078L19.2422 13.5078C19.2422 11.6328 17.9922 10.6953 16.7422 10.6953ZM8.22656 10.9609C8.00391 11.0625 7.76953 11.1562 7.57812 11.2383L7.85547 11.8867C8.08594 11.7891 8.30469 11.6953 8.5 11.6094L8.22656 10.9609ZM6.92969 11.5156C6.71875 11.6133 6.47266 11.7227 6.28516 11.8086L6.57422 12.4492C6.80469 12.3477 7.00781 12.2461 7.21094 12.1602L6.92969 11.5156ZM5.64062 12.1016C5.42187 12.207 5.19531 12.3164 5 12.4141L5.31641 13.043C5.52734 12.9336 5.74609 12.832 5.9375 12.7383L5.64062 12.1016ZM16.7422 12.2578C17.4336 12.2578 17.9922 12.8164 17.9922 13.5078C17.9922 14.1992 17.4336 14.7578 16.7422 14.7578C16.0508 14.7578 15.4922 14.1992 15.4922 13.5078C15.4922 12.8164 16.0508 12.2578 16.7422 12.2578ZM4.36719 12.7383C4.16016 12.8516 3.95312 12.9688 3.74219 13.0898L4.09375 13.6992C4.29297 13.582 4.49609 13.4727 4.69922 13.3633L4.36719 12.7383ZM3.12891 13.4688C2.90977 13.5938 2.69805 13.7617 2.51562 13.8828L2.94141 14.4453C3.13555 14.3047 3.34453 14.1602 3.51172 14.0586L3.12891 13.4688ZM1.96094 14.3516C1.77344 14.5234 1.58867 14.7227 1.44531 14.8906L1.98047 15.3477C2.13086 15.1641 2.26172 15.0273 2.4375 14.8711L1.96094 14.3516ZM10.4688 14.4023L10.5312 15.1016C10.7344 15.0664 10.9375 15.0898 11.1406 15.1211L11.2617 14.4297C11.0039 14.3906 10.7305 14.3633 10.4688 14.4023ZM9.01562 14.793L9.28125 15.4453C9.48438 15.3555 9.69531 15.2852 9.91016 15.2188C9.83594 14.9961 9.78125 14.7695 9.72266 14.543C9.47656 14.6133 9.23047 14.707 9.01562 14.793ZM12.043 14.7578L11.6445 15.3359C11.8086 15.457 11.9688 15.5859 12.0977 15.7461L12.6289 15.2852C12.4297 15.082 12.2773 14.8906 12.043 14.7578ZM8.35156 15.1094C8.13672 15.2188 7.92969 15.3438 7.72266 15.4648L8.07813 16.0703C8.28125 15.9609 8.48047 15.832 8.67969 15.7266L8.35156 15.1094ZM1.01602 15.5391C0.898047 15.793 0.802344 16.0664 0.757812 16.3086L1.44922 16.4297C1.49141 16.207 1.55195 16.0469 1.64062 15.8555C1.42617 15.7617 1.22148 15.6484 1.01602 15.5391ZM7.11328 15.8438C6.91406 15.9727 6.71875 16.1016 6.52344 16.2344L6.91406 16.8203C7.10938 16.6914 7.30078 16.5586 7.49609 16.4297L7.11328 15.8438ZM13.0781 15.8906L12.4883 16.2734C12.6133 16.4609 12.7344 16.6563 12.8477 16.8555L13.457 16.5039C13.3203 16.2852 13.2227 16.0898 13.0781 15.8906ZM5.94141 16.6328C5.74609 16.7617 5.55078 16.8867 5.35938 17.0234L5.75 17.6094C5.9375 17.4727 6.13672 17.3438 6.33594 17.2109L5.94141 16.6328ZM1.45703 17.0039C1.23086 17.0508 1.00273 17.0898 0.775391 17.1328C0.816406 17.4062 0.926172 17.6719 1.02539 17.8828L1.66016 17.5781C1.57539 17.3828 1.49492 17.1797 1.45703 17.0039ZM13.8047 17.1133L13.1953 17.4648C13.3164 17.6758 13.457 17.9023 13.5703 18.082L14.1602 17.7031C14.0273 17.4961 13.9141 17.3008 13.8047 17.1133ZM4.78125 17.4062C4.58594 17.5273 4.39453 17.6445 4.19141 17.7578L4.53906 18.3711C4.74609 18.25 4.95312 18.1289 5.15234 18L4.78125 17.4062ZM1.99609 18.043L1.51562 18.5586C1.73281 18.7656 2.00078 18.9023 2.29297 18.9648L2.44922 18.2812C2.27578 18.2461 2.11367 18.1602 1.99609 18.043ZM3.59766 18.0547C3.40195 18.1445 3.19883 18.2148 2.98828 18.2578L3.14844 18.9453C3.39922 18.8945 3.63516 18.8008 3.87109 18.7031L3.59766 18.0547ZM14.5469 18.2422L14.0039 18.6836C14.1719 18.8906 14.3789 19.0898 14.5586 19.2305L14.9922 18.6758C14.8203 18.543 14.6719 18.3828 14.5469 18.2422ZM15.4883 18.9258L15.3125 19.6094C15.6211 19.6719 15.8516 19.6914 16.1406 19.6602L16.0547 18.9609C15.8633 18.9922 15.6758 18.9727 15.4883 18.9258Z" fill="black" fill-opacity="0.2"/>
  <path d="M3.61719 1.32031C2.36719 1.32031 1.11562 2.25781 1.11562 4.13281L3.61719 9.13281L6.11719 4.13281C6.11719 2.25781 4.86719 1.32031 3.61719 1.32031ZM14.6445 2.84375C14.375 2.85508 14.1133 2.90625 13.8945 2.95312L14.043 3.64062C14.2617 3.5918 14.4883 3.56094 14.6797 3.54688L14.6445 2.84375ZM3.61719 2.88281C4.30859 2.88281 4.86719 3.44258 4.86719 4.13281C4.86719 4.82422 4.30859 5.38281 3.61719 5.38281C2.92695 5.38281 2.36719 4.82422 2.36719 4.13281C2.36719 3.44258 2.92695 2.88281 3.61719 2.88281ZM15.4219 2.89062L15.3047 3.58203C15.4961 3.62227 15.6875 3.67266 15.8555 3.77344L16.1953 3.15625C15.957 3.0293 15.6914 2.91523 15.4219 2.89062ZM13.1758 3.15234C12.9375 3.24531 12.6992 3.32852 12.4961 3.41016L12.7734 4.05469C12.9883 3.96328 13.2148 3.88359 13.4063 3.81641L13.1758 3.15234ZM16.8359 3.67578L16.3008 4.13281C16.4414 4.29375 16.5508 4.49219 16.6367 4.65234L17.2656 4.33594C17.1328 4.08008 17.0156 3.88633 16.8359 3.67578ZM11.8438 3.71094C11.6055 3.83242 11.4102 3.94063 11.1992 4.04688L11.543 4.66406C11.7461 4.54688 11.9688 4.43359 12.1484 4.34375L11.8438 3.71094ZM10.582 4.41016C10.375 4.53125 10.1719 4.65234 9.97266 4.78516L10.3555 5.37109C10.5469 5.24609 10.7461 5.12891 10.9414 5.01172L10.582 4.41016ZM17.5078 5.10938C17.2773 5.14844 17.043 5.17578 16.8125 5.20312C16.8281 5.39844 16.8164 5.60938 16.7773 5.77344L17.4609 5.93359C17.5 5.65234 17.5352 5.36328 17.5078 5.10938ZM9.37891 5.17578C9.18359 5.30859 8.99219 5.44531 8.79688 5.57812L9.20312 6.15234C9.39063 6.01562 9.58203 5.88672 9.77344 5.75391L9.37891 5.17578ZM8.22266 6C8.02734 6.14062 7.82422 6.29688 7.65625 6.42578L8.08203 6.98438C8.29688 6.82812 8.44531 6.71094 8.64062 6.56641L8.22266 6ZM16.543 6.3125C16.4258 6.49219 16.2891 6.67188 16.1523 6.80859L16.6641 7.29688C16.832 7.09766 17.0117 6.89453 17.1367 6.69141L16.543 6.3125ZM7.09766 6.86328C6.90625 7.01172 6.71484 7.16406 6.54688 7.30469L6.99219 7.84766C7.17578 7.69531 7.36328 7.53906 7.53516 7.41406L7.09766 6.86328ZM15.668 7.25781C15.4883 7.40234 15.3008 7.54297 15.1289 7.66016L15.5312 8.23828C15.7383 8.09766 15.9414 7.94531 16.1172 7.80469L15.668 7.25781ZM6.00391 7.76172C5.82031 7.91016 5.64453 8.06641 5.46484 8.21875L5.92188 8.75391C6.09766 8.60156 6.27344 8.44922 6.45312 8.30078L6.00391 7.76172ZM14.5547 8.03516C14.3555 8.15234 14.1484 8.27344 13.9609 8.375L14.2969 8.99609C14.5078 8.86719 14.7461 8.75391 14.9219 8.63672L14.5547 8.03516ZM4.92969 8.68359C4.75391 8.83984 4.58203 8.99609 4.40625 9.15625L4.87891 9.67969C5.05078 9.52344 5.22656 9.36719 5.39844 9.21094L4.92969 8.68359ZM13.3477 8.69922C13.1406 8.80078 12.9336 8.90625 12.7266 9.00781L13.0273 9.64062C13.2695 9.52344 13.4492 9.42578 13.668 9.32422L13.3477 8.69922ZM12.0977 9.30078C11.8828 9.39844 11.6758 9.49219 11.457 9.58203L11.7422 10.2266C11.957 10.1328 12.1719 10.0352 12.3867 9.9375L12.0977 9.30078ZM3.89062 9.64062C3.69141 9.81641 3.55273 9.95312 3.37109 10.1289L3.86719 10.6367C4.05078 10.4609 4.19922 10.3086 4.37109 10.1602L3.89062 9.64062ZM10.8164 9.86719C10.6016 9.95703 10.3867 10.0508 10.1719 10.1406L10.4453 10.793C10.6641 10.7031 10.8789 10.6094 11.0938 10.5156L10.8164 9.86719ZM9.52344 10.4141C9.30859 10.5078 9.09375 10.6016 8.875 10.6875L9.14844 11.3398C9.36328 11.25 9.58203 11.1562 9.79688 11.0664L9.52344 10.4141ZM16.7422 10.6953C15.4922 10.6953 14.2422 11.6328 14.2422 13.5078L16.7422 18.5078L19.2422 13.5078C19.2422 11.6328 17.9922 10.6953 16.7422 10.6953ZM8.22656 10.9609C8.00391 11.0625 7.76953 11.1562 7.57812 11.2383L7.85547 11.8867C8.08594 11.7891 8.30469 11.6953 8.5 11.6094L8.22656 10.9609ZM6.92969 11.5156C6.71875 11.6133 6.47266 11.7227 6.28516 11.8086L6.57422 12.4492C6.80469 12.3477 7.00781 12.2461 7.21094 12.1602L6.92969 11.5156ZM5.64062 12.1016C5.42187 12.207 5.19531 12.3164 5 12.4141L5.31641 13.043C5.52734 12.9336 5.74609 12.832 5.9375 12.7383L5.64062 12.1016ZM16.7422 12.2578C17.4336 12.2578 17.9922 12.8164 17.9922 13.5078C17.9922 14.1992 17.4336 14.7578 16.7422 14.7578C16.0508 14.7578 15.4922 14.1992 15.4922 13.5078C15.4922 12.8164 16.0508 12.2578 16.7422 12.2578ZM4.36719 12.7383C4.16016 12.8516 3.95312 12.9688 3.74219 13.0898L4.09375 13.6992C4.29297 13.582 4.49609 13.4727 4.69922 13.3633L4.36719 12.7383ZM3.12891 13.4688C2.90977 13.5938 2.69805 13.7617 2.51562 13.8828L2.94141 14.4453C3.13555 14.3047 3.34453 14.1602 3.51172 14.0586L3.12891 13.4688ZM1.96094 14.3516C1.77344 14.5234 1.58867 14.7227 1.44531 14.8906L1.98047 15.3477C2.13086 15.1641 2.26172 15.0273 2.4375 14.8711L1.96094 14.3516ZM10.4688 14.4023L10.5312 15.1016C10.7344 15.0664 10.9375 15.0898 11.1406 15.1211L11.2617 14.4297C11.0039 14.3906 10.7305 14.3633 10.4688 14.4023ZM9.01562 14.793L9.28125 15.4453C9.48438 15.3555 9.69531 15.2852 9.91016 15.2188C9.83594 14.9961 9.78125 14.7695 9.72266 14.543C9.47656 14.6133 9.23047 14.707 9.01562 14.793ZM12.043 14.7578L11.6445 15.3359C11.8086 15.457 11.9688 15.5859 12.0977 15.7461L12.6289 15.2852C12.4297 15.082 12.2773 14.8906 12.043 14.7578ZM8.35156 15.1094C8.13672 15.2188 7.92969 15.3438 7.72266 15.4648L8.07813 16.0703C8.28125 15.9609 8.48047 15.832 8.67969 15.7266L8.35156 15.1094ZM1.01602 15.5391C0.898047 15.793 0.802344 16.0664 0.757812 16.3086L1.44922 16.4297C1.49141 16.207 1.55195 16.0469 1.64062 15.8555C1.42617 15.7617 1.22148 15.6484 1.01602 15.5391ZM7.11328 15.8438C6.91406 15.9727 6.71875 16.1016 6.52344 16.2344L6.91406 16.8203C7.10938 16.6914 7.30078 16.5586 7.49609 16.4297L7.11328 15.8438ZM13.0781 15.8906L12.4883 16.2734C12.6133 16.4609 12.7344 16.6563 12.8477 16.8555L13.457 16.5039C13.3203 16.2852 13.2227 16.0898 13.0781 15.8906ZM5.94141 16.6328C5.74609 16.7617 5.55078 16.8867 5.35938 17.0234L5.75 17.6094C5.9375 17.4727 6.13672 17.3438 6.33594 17.2109L5.94141 16.6328ZM1.45703 17.0039C1.23086 17.0508 1.00273 17.0898 0.775391 17.1328C0.816406 17.4062 0.926172 17.6719 1.02539 17.8828L1.66016 17.5781C1.57539 17.3828 1.49492 17.1797 1.45703 17.0039ZM13.8047 17.1133L13.1953 17.4648C13.3164 17.6758 13.457 17.9023 13.5703 18.082L14.1602 17.7031C14.0273 17.4961 13.9141 17.3008 13.8047 17.1133ZM4.78125 17.4062C4.58594 17.5273 4.39453 17.6445 4.19141 17.7578L4.53906 18.3711C4.74609 18.25 4.95312 18.1289 5.15234 18L4.78125 17.4062ZM1.99609 18.043L1.51562 18.5586C1.73281 18.7656 2.00078 18.9023 2.29297 18.9648L2.44922 18.2812C2.27578 18.2461 2.11367 18.1602 1.99609 18.043ZM3.59766 18.0547C3.40195 18.1445 3.19883 18.2148 2.98828 18.2578L3.14844 18.9453C3.39922 18.8945 3.63516 18.8008 3.87109 18.7031L3.59766 18.0547ZM14.5469 18.2422L14.0039 18.6836C14.1719 18.8906 14.3789 19.0898 14.5586 19.2305L14.9922 18.6758C14.8203 18.543 14.6719 18.3828 14.5469 18.2422ZM15.4883 18.9258L15.3125 19.6094C15.6211 19.6719 15.8516 19.6914 16.1406 19.6602L16.0547 18.9609C15.8633 18.9922 15.6758 18.9727 15.4883 18.9258Z" fill="black" fill-opacity="0.2"/>
</svg>