<svg xmlns="http://www.w3.org/2000/svg" width="106" height="106" viewBox="0 0 106 106" fill="none">
  <g opacity="0.95" filter="url(#filter0_bd_1401_2162)">
    <rect x="33" y="29" width="40" height="40" rx="8" fill="#F5FAFF" shape-rendering="crispEdges"/>
    <path d="M62.8473 39.1527C62.1092 38.4146 61.1081 38 60.0643 38C59.0205 38 58.0195 38.4146 57.2814 39.1527L44.1344 52.2989C43.6875 52.7457 43.3734 53.3077 43.2269 53.9223L42.0224 58.9842C41.9898 59.1213 41.9928 59.2645 42.0313 59.4C42.0697 59.5356 42.1422 59.6591 42.242 59.7587C42.3417 59.8583 42.4652 59.9307 42.6009 59.969C42.7365 60.0073 42.8797 60.0102 43.0168 59.9774L48.0778 58.7719C48.6929 58.6256 49.2553 58.3114 49.7025 57.8645L62.8473 44.7204C63.5854 43.9824 64 42.9814 64 41.9376C64 40.8939 63.5854 39.8929 62.8473 39.1549V39.1527ZM58.4473 40.3186C58.6597 40.1062 58.9118 39.9378 59.1892 39.8229C59.4667 39.708 59.764 39.6488 60.0643 39.6488C60.3646 39.6488 60.662 39.708 60.9394 39.8229C61.2169 39.9378 61.469 40.1062 61.6813 40.3186C61.8936 40.5309 62.0621 40.783 62.177 41.0604C62.2919 41.3378 62.3511 41.6352 62.3511 41.9354C62.3511 42.2357 62.2919 42.5331 62.177 42.8105C62.0621 43.0879 61.8936 43.34 61.6813 43.5523L60.7001 44.5324L57.4662 41.2997L58.4473 40.3197V40.3186ZM56.3002 42.4678L59.5341 45.6994L48.5343 56.6985C48.3033 56.9295 48.0129 57.0912 47.695 57.1671L43.9375 58.0624L44.8317 54.3051C44.9076 53.9861 45.0704 53.6958 45.3014 53.4648L56.3002 42.4656V42.4678Z" fill="#353B42"/>
    <path d="M62.8473 39.1527C62.1092 38.4146 61.1081 38 60.0643 38C59.0205 38 58.0195 38.4146 57.2814 39.1527L44.1344 52.2989C43.6875 52.7457 43.3734 53.3077 43.2269 53.9223L42.0224 58.9842C41.9898 59.1213 41.9928 59.2645 42.0313 59.4C42.0697 59.5356 42.1422 59.6591 42.242 59.7587C42.3417 59.8583 42.4652 59.9307 42.6009 59.969C42.7365 60.0073 42.8797 60.0102 43.0168 59.9774L48.0778 58.7719C48.6929 58.6256 49.2553 58.3114 49.7025 57.8645L62.8473 44.7204C63.5854 43.9824 64 42.9814 64 41.9376C64 40.8939 63.5854 39.8929 62.8473 39.1549V39.1527ZM58.4473 40.3186C58.6597 40.1062 58.9118 39.9378 59.1892 39.8229C59.4667 39.708 59.764 39.6488 60.0643 39.6488C60.3646 39.6488 60.662 39.708 60.9394 39.8229C61.2169 39.9378 61.469 40.1062 61.6813 40.3186C61.8936 40.5309 62.0621 40.783 62.177 41.0604C62.2919 41.3378 62.3511 41.6352 62.3511 41.9354C62.3511 42.2357 62.2919 42.5331 62.177 42.8105C62.0621 43.0879 61.8936 43.34 61.6813 43.5523L60.7001 44.5324L57.4662 41.2997L58.4473 40.3197V40.3186ZM56.3002 42.4678L59.5341 45.6994L48.5343 56.6985C48.3033 56.9295 48.0129 57.0912 47.695 57.1671L43.9375 58.0624L44.8317 54.3051C44.9076 53.9861 45.0704 53.6958 45.3014 53.4648L56.3002 42.4656V42.4678Z" fill="black" fill-opacity="0.2"/>
    <path d="M62.8473 39.1527C62.1092 38.4146 61.1081 38 60.0643 38C59.0205 38 58.0195 38.4146 57.2814 39.1527L44.1344 52.2989C43.6875 52.7457 43.3734 53.3077 43.2269 53.9223L42.0224 58.9842C41.9898 59.1213 41.9928 59.2645 42.0313 59.4C42.0697 59.5356 42.1422 59.6591 42.242 59.7587C42.3417 59.8583 42.4652 59.9307 42.6009 59.969C42.7365 60.0073 42.8797 60.0102 43.0168 59.9774L48.0778 58.7719C48.6929 58.6256 49.2553 58.3114 49.7025 57.8645L62.8473 44.7204C63.5854 43.9824 64 42.9814 64 41.9376C64 40.8939 63.5854 39.8929 62.8473 39.1549V39.1527ZM58.4473 40.3186C58.6597 40.1062 58.9118 39.9378 59.1892 39.8229C59.4667 39.708 59.764 39.6488 60.0643 39.6488C60.3646 39.6488 60.662 39.708 60.9394 39.8229C61.2169 39.9378 61.469 40.1062 61.6813 40.3186C61.8936 40.5309 62.0621 40.783 62.177 41.0604C62.2919 41.3378 62.3511 41.6352 62.3511 41.9354C62.3511 42.2357 62.2919 42.5331 62.177 42.8105C62.0621 43.0879 61.8936 43.34 61.6813 43.5523L60.7001 44.5324L57.4662 41.2997L58.4473 40.3197V40.3186ZM56.3002 42.4678L59.5341 45.6994L48.5343 56.6985C48.3033 56.9295 48.0129 57.0912 47.695 57.1671L43.9375 58.0624L44.8317 54.3051C44.9076 53.9861 45.0704 53.6958 45.3014 53.4648L56.3002 42.4656V42.4678Z" fill="black" fill-opacity="0.2"/>
  </g>
  <defs>
    <filter id="filter0_bd_1401_2162" x="0" y="0" width="106" height="106" filterUnits="userSpaceOnUse" color-interpolation-filters="sRGB">
      <feFlood flood-opacity="0" result="BackgroundImageFix"/>
      <feGaussianBlur in="BackgroundImageFix" stdDeviation="2"/>
      <feComposite in2="SourceAlpha" operator="in" result="effect1_backgroundBlur_1401_2162"/>
      <feColorMatrix in="SourceAlpha" type="matrix" values="0 0 0 0 0 0 0 0 0 0 0 0 0 0 0 0 0 0 127 0" result="hardAlpha"/>
      <feOffset dy="4"/>
      <feGaussianBlur stdDeviation="16.5"/>
      <feComposite in2="hardAlpha" operator="out"/>
      <feColorMatrix type="matrix" values="0 0 0 0 0 0 0 0 0 0 0 0 0 0 0 0 0 0 0.15 0"/>
      <feBlend mode="normal" in2="effect1_backgroundBlur_1401_2162" result="effect2_dropShadow_1401_2162"/>
      <feBlend mode="normal" in="SourceGraphic" in2="effect2_dropShadow_1401_2162" result="shape"/>
    </filter>
  </defs>
</svg>