<svg xmlns="http://www.w3.org/2000/svg" width="36" height="36" viewBox="0 0 36 36" fill="none">
<path d="M22.053 7.74535C21.0239 6.61982 19.5865 6 18 6C16.405 6 14.9629 6.61607 13.9386 7.73463C12.9031 8.86552 12.3986 10.4025 12.5171 12.0621C12.7519 15.3364 15.2115 17.9999 18 17.9999C20.7885 17.9999 23.2439 15.3369 23.4824 12.0632C23.6024 10.4185 23.0948 8.8848 22.053 7.74535ZM27.3074 29.9999H8.69256C8.44891 30.0031 8.20762 29.9512 7.98624 29.8481C7.76486 29.7449 7.56896 29.5931 7.41279 29.4036C7.06905 28.9874 6.9305 28.419 7.03309 27.8442C7.47942 25.336 8.87237 23.229 11.0617 21.7499C13.0068 20.4369 15.4706 19.7142 18 19.7142C20.5294 19.7142 22.9932 20.4374 24.9383 21.7499C27.1276 23.2285 28.5206 25.3354 28.9669 27.8436C29.0695 28.4184 28.9309 28.9868 28.5872 29.4031C28.4311 29.5927 28.2352 29.7446 28.0138 29.8478C27.7924 29.9511 27.5511 30.003 27.3074 29.9999Z" fill="#353B42"/>
<path d="M28.05 5V13M28.1 17V17.1H28V17H28.1Z" stroke="#353B42" stroke-width="2" stroke-linecap="round" stroke-linejoin="round"/>
</svg>