<svg xmlns="http://www.w3.org/2000/svg" width="29" height="28" viewBox="0 0 29 28" fill="none">
  <path d="M7.40301 2C6.92087 2 6.44592 2.1729 6.05013 2.48988L5.99256 2.5187L5.96378 2.54752L3.08532 5.51564L3.1141 5.54446C2.22538 6.36574 1.95192 7.59405 2.33692 8.65667C2.34051 8.66388 2.33332 8.67828 2.33692 8.68549C3.1177 10.9224 5.11463 15.2413 9.01495 19.146C12.9297 23.065 17.3013 24.985 19.4638 25.8315H19.4926C20.6116 26.2061 21.8241 25.9395 22.6877 25.1975L25.5949 22.287C26.3577 21.5234 26.3577 20.1978 25.5949 19.4341L21.8529 15.688L21.8241 15.6303C21.0613 14.8667 19.7084 14.8667 18.9456 15.6303L17.1034 17.4746C16.4378 17.154 14.851 16.3327 13.3326 14.8811C11.825 13.4403 11.0551 11.7833 10.7708 11.1349L12.613 9.29064C13.3866 8.51619 13.401 7.22664 12.5842 6.4666L12.613 6.43778L12.5267 6.35133L8.84224 2.54752L8.81346 2.5187L8.75589 2.48988C8.3601 2.1729 7.88515 2 7.40301 2ZM7.40301 3.84427C7.47137 3.84427 7.53974 3.87669 7.6045 3.93072L11.2889 7.70572L11.3753 7.79217C11.3681 7.78496 11.4293 7.88222 11.3177 7.99389L9.01495 10.2992L8.58318 10.7027L8.78467 11.279C8.78467 11.279 9.84251 14.1138 12.0661 16.2355L12.2676 16.4084C14.4085 18.3643 16.9307 19.4341 16.9307 19.4341L17.5064 19.6935L20.241 16.9559C20.3993 16.7974 20.3705 16.7974 20.5288 16.9559L24.2996 20.7309C24.4579 20.8894 24.4579 20.8318 24.2996 20.9902L21.4787 23.8143C21.0541 24.1781 20.6044 24.2537 20.0682 24.0736C17.9814 23.2524 13.9263 21.4693 10.3103 17.8492C6.6654 14.2003 4.76202 10.0615 4.06399 8.05152C3.92367 7.6769 4.02442 7.12218 4.35184 6.84122L4.40941 6.78358L7.20152 3.93072C7.26628 3.87669 7.33465 3.84427 7.40301 3.84427Z" fill="#353B42"/>
  <path d="M7.40301 2C6.92087 2 6.44592 2.1729 6.05013 2.48988L5.99256 2.5187L5.96378 2.54752L3.08532 5.51564L3.1141 5.54446C2.22538 6.36574 1.95192 7.59405 2.33692 8.65667C2.34051 8.66388 2.33332 8.67828 2.33692 8.68549C3.1177 10.9224 5.11463 15.2413 9.01495 19.146C12.9297 23.065 17.3013 24.985 19.4638 25.8315H19.4926C20.6116 26.2061 21.8241 25.9395 22.6877 25.1975L25.5949 22.287C26.3577 21.5234 26.3577 20.1978 25.5949 19.4341L21.8529 15.688L21.8241 15.6303C21.0613 14.8667 19.7084 14.8667 18.9456 15.6303L17.1034 17.4746C16.4378 17.154 14.851 16.3327 13.3326 14.8811C11.825 13.4403 11.0551 11.7833 10.7708 11.1349L12.613 9.29064C13.3866 8.51619 13.401 7.22664 12.5842 6.4666L12.613 6.43778L12.5267 6.35133L8.84224 2.54752L8.81346 2.5187L8.75589 2.48988C8.3601 2.1729 7.88515 2 7.40301 2ZM7.40301 3.84427C7.47137 3.84427 7.53974 3.87669 7.6045 3.93072L11.2889 7.70572L11.3753 7.79217C11.3681 7.78496 11.4293 7.88222 11.3177 7.99389L9.01495 10.2992L8.58318 10.7027L8.78467 11.279C8.78467 11.279 9.84251 14.1138 12.0661 16.2355L12.2676 16.4084C14.4085 18.3643 16.9307 19.4341 16.9307 19.4341L17.5064 19.6935L20.241 16.9559C20.3993 16.7974 20.3705 16.7974 20.5288 16.9559L24.2996 20.7309C24.4579 20.8894 24.4579 20.8318 24.2996 20.9902L21.4787 23.8143C21.0541 24.1781 20.6044 24.2537 20.0682 24.0736C17.9814 23.2524 13.9263 21.4693 10.3103 17.8492C6.6654 14.2003 4.76202 10.0615 4.06399 8.05152C3.92367 7.6769 4.02442 7.12218 4.35184 6.84122L4.40941 6.78358L7.20152 3.93072C7.26628 3.87669 7.33465 3.84427 7.40301 3.84427Z" fill="black" fill-opacity="0.2"/>
  <path d="M7.40301 2C6.92087 2 6.44592 2.1729 6.05013 2.48988L5.99256 2.5187L5.96378 2.54752L3.08532 5.51564L3.1141 5.54446C2.22538 6.36574 1.95192 7.59405 2.33692 8.65667C2.34051 8.66388 2.33332 8.67828 2.33692 8.68549C3.1177 10.9224 5.11463 15.2413 9.01495 19.146C12.9297 23.065 17.3013 24.985 19.4638 25.8315H19.4926C20.6116 26.2061 21.8241 25.9395 22.6877 25.1975L25.5949 22.287C26.3577 21.5234 26.3577 20.1978 25.5949 19.4341L21.8529 15.688L21.8241 15.6303C21.0613 14.8667 19.7084 14.8667 18.9456 15.6303L17.1034 17.4746C16.4378 17.154 14.851 16.3327 13.3326 14.8811C11.825 13.4403 11.0551 11.7833 10.7708 11.1349L12.613 9.29064C13.3866 8.51619 13.401 7.22664 12.5842 6.4666L12.613 6.43778L12.5267 6.35133L8.84224 2.54752L8.81346 2.5187L8.75589 2.48988C8.3601 2.1729 7.88515 2 7.40301 2ZM7.40301 3.84427C7.47137 3.84427 7.53974 3.87669 7.6045 3.93072L11.2889 7.70572L11.3753 7.79217C11.3681 7.78496 11.4293 7.88222 11.3177 7.99389L9.01495 10.2992L8.58318 10.7027L8.78467 11.279C8.78467 11.279 9.84251 14.1138 12.0661 16.2355L12.2676 16.4084C14.4085 18.3643 16.9307 19.4341 16.9307 19.4341L17.5064 19.6935L20.241 16.9559C20.3993 16.7974 20.3705 16.7974 20.5288 16.9559L24.2996 20.7309C24.4579 20.8894 24.4579 20.8318 24.2996 20.9902L21.4787 23.8143C21.0541 24.1781 20.6044 24.2537 20.0682 24.0736C17.9814 23.2524 13.9263 21.4693 10.3103 17.8492C6.6654 14.2003 4.76202 10.0615 4.06399 8.05152C3.92367 7.6769 4.02442 7.12218 4.35184 6.84122L4.40941 6.78358L7.20152 3.93072C7.26628 3.87669 7.33465 3.84427 7.40301 3.84427Z" fill="black" fill-opacity="0.2"/>
</svg>