<svg xmlns="http://www.w3.org/2000/svg" width="37" height="37" viewBox="0 0 37 37" fill="none">
  <path d="M8.0722 0C7.32889 0 6.59668 0.266555 5.98651 0.755239L5.89776 0.799665L5.85338 0.844091L1.41575 5.41995L1.46013 5.46438C0.0900082 6.73051 -0.331567 8.62416 0.261967 10.2624C0.267513 10.2735 0.25642 10.2957 0.261967 10.3068C1.46567 13.7553 4.54428 20.4137 10.5573 26.4334C16.5924 32.4753 23.3321 35.4352 26.6659 36.7402H26.7102C28.4354 37.3177 30.3047 36.9068 31.636 35.7628L36.118 31.2758C37.294 30.0985 37.294 28.0549 36.118 26.8776L30.3491 21.1023L30.3047 21.0134C29.1288 19.8361 27.0431 19.8361 25.8671 21.0134L23.027 23.8567C22.0008 23.3624 19.5546 22.0963 17.2137 19.8583C14.8895 17.6371 13.7024 15.0826 13.2642 14.083L16.1043 11.2397C17.2969 10.0458 17.3191 8.05774 16.0599 6.886L16.1043 6.84158L15.9712 6.7083L10.291 0.844091L10.2466 0.799665L10.1579 0.755239C9.54771 0.266555 8.8155 0 8.0722 0ZM8.0722 2.84325C8.17759 2.84325 8.28298 2.89323 8.38283 2.97653L14.063 8.79632L14.1961 8.92959C14.185 8.91849 14.2793 9.06842 14.1074 9.24057L10.5573 12.7946L9.89162 13.4166L10.2023 14.3051C10.2023 14.3051 11.8331 18.6755 15.2612 21.9464L15.5718 22.2129C18.8723 25.2283 22.7608 26.8776 22.7608 26.8776L23.6483 27.2775L27.864 23.057C28.1081 22.8127 28.0637 22.8127 28.3078 23.057L34.1211 28.8768C34.3652 29.1211 34.3652 29.0323 34.1211 29.2766L29.7722 33.6304C29.1177 34.1912 28.4243 34.3078 27.5978 34.0302C24.3805 32.7641 18.129 30.0152 12.5542 24.4342C6.93505 18.8088 4.00067 12.4281 2.92454 9.32942C2.70821 8.75189 2.86353 7.89669 3.36831 7.46354L3.45706 7.37469L7.76156 2.97653C7.86141 2.89323 7.9668 2.84325 8.0722 2.84325Z" fill="#F5FAFF"/>
</svg>