
<svg xmlns="http://www.w3.org/2000/svg" width="24" height="24" viewBox="0 0 24 24" fill="none">
  <path d="M5.36731 10.242C4.29031 8.42197 3.75231 7.51197 4.11031 6.78797C4.47031 6.06397 5.48931 6.00497 7.52831 5.88797L8.05531 5.85797C8.63531 5.82397 8.92431 5.80797 9.17731 5.67297C9.42931 5.53797 9.61631 5.30097 9.99031 4.82497L10.3303 4.39297C11.6463 2.71997 12.3043 1.88397 13.0603 2.01297C13.8163 2.14197 14.1703 3.14997 14.8773 5.16697M5.80531 13.51C5.25231 15.6 4.97531 16.644 5.51031 17.22C6.04431 17.796 7.03431 17.523 9.01531 16.975L9.99131 16.501M17.0483 7.51097C18.9383 8.29697 19.8833 8.69097 19.9903 9.49397C20.0823 10.18 19.5133 10.777 18.3503 11.784" stroke="#E42E35" stroke-width="1.5" stroke-linecap="round"/>
  <path d="M16.2391 19.57C17.7241 19.956 18.4671 20.15 18.8681 19.743C19.2681 19.336 19.0611 18.599 18.6471 17.123L18.5391 16.743C18.4221 16.323 18.3631 16.113 18.3921 15.906C18.4221 15.698 18.5371 15.516 18.7661 15.15L18.9761 14.818C19.7831 13.533 20.1861 12.891 19.9161 12.38C19.6471 11.869 18.8831 11.827 17.3541 11.745L16.9581 11.723C16.5241 11.7 16.3061 11.688 16.1171 11.593C15.9271 11.498 15.7871 11.33 15.5071 10.994L15.2521 10.689C14.2651 9.50896 13.7721 8.91896 13.2041 9.00896C12.6371 9.09996 12.3721 9.81196 11.8421 11.236L11.7041 11.604C11.5541 12.009 11.4781 12.211 11.3311 12.36C11.1851 12.509 10.9831 12.588 10.5811 12.746L10.2141 12.889C8.79707 13.444 8.08807 13.722 8.00707 14.289C7.92707 14.856 8.52707 15.338 9.72807 16.3L10.0381 16.55C10.3801 16.823 10.5511 16.96 10.6491 17.147C10.7491 17.334 10.7641 17.551 10.7951 17.984L10.8241 18.378C10.9341 19.901 10.9901 20.663 11.5071 20.923C12.0241 21.183 12.6611 20.768 13.9341 19.94" stroke="#E42E35" stroke-width="1.5" stroke-linecap="round"/>
</svg>