<svg xmlns="http://www.w3.org/2000/svg" width="50" height="50" viewBox="0 0 50 50" fill="none">
  <path d="M43.9014 3.94618C45.1549 4.64822 46.0783 5.81938 46.4685 7.20211C46.8586 8.58484 46.6837 10.0659 45.982 11.3197L28.1636 43.1388C27.7124 43.9449 27.0865 44.6399 26.3318 45.1727C25.5771 45.7055 24.7127 46.0627 23.8021 46.2181C22.8915 46.3735 21.9576 46.3232 21.0689 46.0708C20.1802 45.8185 19.3593 45.3705 18.6662 44.7597L5.16231 32.8643C4.08413 31.9142 3.42754 30.5747 3.33696 29.1405C3.24638 27.7064 3.72923 26.2949 4.67931 25.2168C5.62938 24.1386 6.96884 23.482 8.40302 23.3914C9.83721 23.3008 11.2486 23.7837 12.3268 24.7338L21.5162 32.8302L36.5263 6.0268C36.874 5.40591 37.3405 4.85957 37.8992 4.41898C38.458 3.97839 39.0981 3.65218 39.7829 3.45898C40.4678 3.26577 41.184 3.20936 41.8906 3.29295C42.5973 3.37655 43.2805 3.59851 43.9014 3.94618Z" fill="#3D3C3C"/>
</svg>