<svg xmlns="http://www.w3.org/2000/svg" width="66" height="66" viewBox="0 0 66 66" fill="none">
  <g clip-path="url(#clip0_696_2151)">
    <path fill-rule="evenodd" clip-rule="evenodd" d="M52.2499 27.5C52.2499 23.7794 51.3063 20.1196 49.5073 16.8628C47.7084 13.6061 45.1129 10.8587 41.9636 8.87773C38.8142 6.89674 35.2139 5.74682 31.4993 5.53551C27.7847 5.32421 24.0773 6.05841 20.7236 7.66947C17.3699 9.28053 14.4796 11.7158 12.3229 14.7476C10.1662 17.7793 8.81371 21.3085 8.39178 25.0051C7.96985 28.7017 8.49231 32.4449 9.91029 35.8846C11.3283 39.3244 13.5955 42.3484 16.4999 44.6738V56.375C16.4999 57.469 16.9345 58.5182 17.708 59.2918C18.4816 60.0654 19.5308 60.5 20.6249 60.5H34.3749C35.4689 60.5 36.5181 60.0654 37.2917 59.2918C38.0653 58.5182 38.4999 57.469 38.4999 56.375V52.25H41.8934C43.9043 52.2501 45.846 51.5157 47.3536 50.1849C48.8612 48.8541 49.8307 47.0184 50.0801 45.023L50.4651 41.9347L52.5194 41.525C53.1178 41.4052 53.6821 41.1541 54.1718 40.7898C54.6614 40.4255 55.0641 39.9571 55.3509 39.4183C55.6376 38.8796 55.8012 38.2839 55.8299 37.6743C55.8586 37.0647 55.7517 36.4563 55.5169 35.893L52.2444 28.0335C52.2483 27.8557 52.2501 27.6778 52.2499 27.5ZM30.2499 11C32.469 10.9999 34.6654 11.4475 36.7076 12.3159C38.7499 13.1844 40.5959 14.4559 42.1353 16.0543C43.6747 17.6528 44.8758 19.5453 45.6668 21.6188C46.4578 23.6922 46.8224 25.9039 46.7389 28.1215C46.7169 28.699 46.8131 29.304 47.0551 29.8815L49.7969 36.4622L48.4164 36.7373C47.5675 36.9072 46.7935 37.3399 46.2042 37.9741C45.6149 38.6084 45.2401 39.4119 45.1329 40.271L44.6241 44.341C44.5409 45.0065 44.2175 45.6186 43.7146 46.0622C43.2117 46.5059 42.564 46.7505 41.8934 46.75H37.1249C36.0308 46.75 34.9816 47.1846 34.208 47.9582C33.4345 48.7318 32.9999 49.781 32.9999 50.875V55H21.9999V44.0165C21.9999 42.6497 21.3289 41.4398 20.3251 40.6835C17.5598 38.6023 15.5189 35.7043 14.4913 32.3994C13.4636 29.0946 13.5011 25.5502 14.5986 22.2679C15.696 18.9855 17.7978 16.1314 20.6066 14.1093C23.4154 12.0871 26.7889 10.9994 30.2499 11Z" fill="#353B42"/>
    <path fill-rule="evenodd" clip-rule="evenodd" d="M52.2499 27.5C52.2499 23.7794 51.3063 20.1196 49.5073 16.8628C47.7084 13.6061 45.1129 10.8587 41.9636 8.87773C38.8142 6.89674 35.2139 5.74682 31.4993 5.53551C27.7847 5.32421 24.0773 6.05841 20.7236 7.66947C17.3699 9.28053 14.4796 11.7158 12.3229 14.7476C10.1662 17.7793 8.81371 21.3085 8.39178 25.0051C7.96985 28.7017 8.49231 32.4449 9.91029 35.8846C11.3283 39.3244 13.5955 42.3484 16.4999 44.6738V56.375C16.4999 57.469 16.9345 58.5182 17.708 59.2918C18.4816 60.0654 19.5308 60.5 20.6249 60.5H34.3749C35.4689 60.5 36.5181 60.0654 37.2917 59.2918C38.0653 58.5182 38.4999 57.469 38.4999 56.375V52.25H41.8934C43.9043 52.2501 45.846 51.5157 47.3536 50.1849C48.8612 48.8541 49.8307 47.0184 50.0801 45.023L50.4651 41.9347L52.5194 41.525C53.1178 41.4052 53.6821 41.1541 54.1718 40.7898C54.6614 40.4255 55.0641 39.9571 55.3509 39.4183C55.6376 38.8796 55.8012 38.2839 55.8299 37.6743C55.8586 37.0647 55.7517 36.4563 55.5169 35.893L52.2444 28.0335C52.2483 27.8557 52.2501 27.6778 52.2499 27.5ZM30.2499 11C32.469 10.9999 34.6654 11.4475 36.7076 12.3159C38.7499 13.1844 40.5959 14.4559 42.1353 16.0543C43.6747 17.6528 44.8758 19.5453 45.6668 21.6188C46.4578 23.6922 46.8224 25.9039 46.7389 28.1215C46.7169 28.699 46.8131 29.304 47.0551 29.8815L49.7969 36.4622L48.4164 36.7373C47.5675 36.9072 46.7935 37.3399 46.2042 37.9741C45.6149 38.6084 45.2401 39.4119 45.1329 40.271L44.6241 44.341C44.5409 45.0065 44.2175 45.6186 43.7146 46.0622C43.2117 46.5059 42.564 46.7505 41.8934 46.75H37.1249C36.0308 46.75 34.9816 47.1846 34.208 47.9582C33.4345 48.7318 32.9999 49.781 32.9999 50.875V55H21.9999V44.0165C21.9999 42.6497 21.3289 41.4398 20.3251 40.6835C17.5598 38.6023 15.5189 35.7043 14.4913 32.3994C13.4636 29.0946 13.5011 25.5502 14.5986 22.2679C15.696 18.9855 17.7978 16.1314 20.6066 14.1093C23.4154 12.0871 26.7889 10.9994 30.2499 11Z" fill="black" fill-opacity="0.2"/>
    <path fill-rule="evenodd" clip-rule="evenodd" d="M52.2499 27.5C52.2499 23.7794 51.3063 20.1196 49.5073 16.8628C47.7084 13.6061 45.1129 10.8587 41.9636 8.87773C38.8142 6.89674 35.2139 5.74682 31.4993 5.53551C27.7847 5.32421 24.0773 6.05841 20.7236 7.66947C17.3699 9.28053 14.4796 11.7158 12.3229 14.7476C10.1662 17.7793 8.81371 21.3085 8.39178 25.0051C7.96985 28.7017 8.49231 32.4449 9.91029 35.8846C11.3283 39.3244 13.5955 42.3484 16.4999 44.6738V56.375C16.4999 57.469 16.9345 58.5182 17.708 59.2918C18.4816 60.0654 19.5308 60.5 20.6249 60.5H34.3749C35.4689 60.5 36.5181 60.0654 37.2917 59.2918C38.0653 58.5182 38.4999 57.469 38.4999 56.375V52.25H41.8934C43.9043 52.2501 45.846 51.5157 47.3536 50.1849C48.8612 48.8541 49.8307 47.0184 50.0801 45.023L50.4651 41.9347L52.5194 41.525C53.1178 41.4052 53.6821 41.1541 54.1718 40.7898C54.6614 40.4255 55.0641 39.9571 55.3509 39.4183C55.6376 38.8796 55.8012 38.2839 55.8299 37.6743C55.8586 37.0647 55.7517 36.4563 55.5169 35.893L52.2444 28.0335C52.2483 27.8557 52.2501 27.6778 52.2499 27.5ZM30.2499 11C32.469 10.9999 34.6654 11.4475 36.7076 12.3159C38.7499 13.1844 40.5959 14.4559 42.1353 16.0543C43.6747 17.6528 44.8758 19.5453 45.6668 21.6188C46.4578 23.6922 46.8224 25.9039 46.7389 28.1215C46.7169 28.699 46.8131 29.304 47.0551 29.8815L49.7969 36.4622L48.4164 36.7373C47.5675 36.9072 46.7935 37.3399 46.2042 37.9741C45.6149 38.6084 45.2401 39.4119 45.1329 40.271L44.6241 44.341C44.5409 45.0065 44.2175 45.6186 43.7146 46.0622C43.2117 46.5059 42.564 46.7505 41.8934 46.75H37.1249C36.0308 46.75 34.9816 47.1846 34.208 47.9582C33.4345 48.7318 32.9999 49.781 32.9999 50.875V55H21.9999V44.0165C21.9999 42.6497 21.3289 41.4398 20.3251 40.6835C17.5598 38.6023 15.5189 35.7043 14.4913 32.3994C13.4636 29.0946 13.5011 25.5502 14.5986 22.2679C15.696 18.9855 17.7978 16.1314 20.6066 14.1093C23.4154 12.0871 26.7889 10.9994 30.2499 11Z" fill="black" fill-opacity="0.2"/>
  </g>
  <defs>
    <clipPath id="clip0_696_2151">
      <rect width="66" height="66" fill="white" transform="matrix(-1 0 0 1 66 0)"/>
    </clipPath>
  </defs>
</svg>