<svg xmlns="http://www.w3.org/2000/svg" width="32" height="32" viewBox="0 0 32 32" fill="none">
  <path d="M24.0417 22.156L29.7523 27.8653L27.8657 29.752L22.1563 24.0413C20.032 25.7443 17.3897 26.6705 14.667 26.6666C8.04299 26.6666 2.66699 21.2906 2.66699 14.6666C2.66699 8.04263 8.04299 2.66663 14.667 2.66663C21.291 2.66663 26.667 8.04263 26.667 14.6666C26.6709 17.3893 25.7446 20.0316 24.0417 22.156ZM21.367 21.1666C23.0591 19.4265 24.0041 17.0939 24.0003 14.6666C24.0003 9.51063 19.823 5.33329 14.667 5.33329C9.51099 5.33329 5.33366 9.51063 5.33366 14.6666C5.33366 19.8226 9.51099 24 14.667 24C17.0942 24.0038 19.4268 23.0588 21.167 21.3666L21.367 21.1666Z" fill="#353B42"/>
  <path d="M24.0417 22.156L29.7523 27.8653L27.8657 29.752L22.1563 24.0413C20.032 25.7443 17.3897 26.6705 14.667 26.6666C8.04299 26.6666 2.66699 21.2906 2.66699 14.6666C2.66699 8.04263 8.04299 2.66663 14.667 2.66663C21.291 2.66663 26.667 8.04263 26.667 14.6666C26.6709 17.3893 25.7446 20.0316 24.0417 22.156ZM21.367 21.1666C23.0591 19.4265 24.0041 17.0939 24.0003 14.6666C24.0003 9.51063 19.823 5.33329 14.667 5.33329C9.51099 5.33329 5.33366 9.51063 5.33366 14.6666C5.33366 19.8226 9.51099 24 14.667 24C17.0942 24.0038 19.4268 23.0588 21.167 21.3666L21.367 21.1666Z" fill="black" fill-opacity="0.2"/>
  <path d="M24.0417 22.156L29.7523 27.8653L27.8657 29.752L22.1563 24.0413C20.032 25.7443 17.3897 26.6705 14.667 26.6666C8.04299 26.6666 2.66699 21.2906 2.66699 14.6666C2.66699 8.04263 8.04299 2.66663 14.667 2.66663C21.291 2.66663 26.667 8.04263 26.667 14.6666C26.6709 17.3893 25.7446 20.0316 24.0417 22.156ZM21.367 21.1666C23.0591 19.4265 24.0041 17.0939 24.0003 14.6666C24.0003 9.51063 19.823 5.33329 14.667 5.33329C9.51099 5.33329 5.33366 9.51063 5.33366 14.6666C5.33366 19.8226 9.51099 24 14.667 24C17.0942 24.0038 19.4268 23.0588 21.167 21.3666L21.367 21.1666Z" fill="black" fill-opacity="0.2"/>
</svg>