<svg xmlns="http://www.w3.org/2000/svg" width="15" height="17" viewBox="0 0 15 17" fill="none">
  <path d="M4.99967 14.8329H9.99967V16.4996H4.99967C2.69967 16.4996 0.833008 14.6329 0.833008 12.3329V4.83294H2.49967V12.3329C2.49967 13.7163 3.61634 14.8329 4.99967 14.8329ZM6.18301 3.50794C6.83301 2.85794 6.83301 1.79961 6.18301 1.14961C5.53301 0.499609 4.47467 0.499609 3.82467 1.14961C3.17467 1.79961 3.17467 2.85794 3.82467 3.50794C4.47467 4.16628 5.52467 4.16628 6.18301 3.50794ZM7.08301 6.49961C7.08301 5.58294 6.33301 4.83294 5.41634 4.83294H4.99967C4.08301 4.83294 3.33301 5.58294 3.33301 6.49961V11.4996C3.33301 12.8829 4.44967 13.9996 5.83301 13.9996H10.058L12.9747 16.9163L14.1663 15.7246L9.94134 11.4996H7.08301V6.49961Z" fill="#F5FAFF"/>
</svg>