<svg xmlns="http://www.w3.org/2000/svg" width="32" height="32" viewBox="0 0 32 32" fill="none">
<path d="M7.15609 13.6559C5.72009 11.2293 5.00276 10.0159 5.48009 9.05059C5.96009 8.08525 7.31876 8.00659 10.0374 7.85059L10.7401 7.81059C11.5134 7.76525 11.8988 7.74392 12.2361 7.56392C12.5721 7.38392 12.8214 7.06792 13.3201 6.43325L13.7734 5.85726C15.5281 3.62659 16.4054 2.51192 17.4134 2.68392C18.4214 2.85592 18.8934 4.19992 19.8361 6.88925M7.74009 18.0133C7.00276 20.7999 6.63342 22.1919 7.34676 22.9599C8.05876 23.7279 9.37876 23.3639 12.0201 22.6333L13.3214 22.0013M22.7308 10.0146C25.2508 11.0626 26.5108 11.5879 26.6534 12.6586C26.7761 13.5733 26.0174 14.3693 24.4668 15.7119" stroke="#353B42" stroke-width="1.5" stroke-linecap="round"/>
<path d="M21.6524 26.0933C23.6324 26.6079 24.6231 26.8666 25.1578 26.3239C25.6911 25.7813 25.4151 24.7986 24.8631 22.8306L24.7191 22.3239C24.5631 21.7639 24.4844 21.4839 24.5231 21.2079C24.5631 20.9306 24.7164 20.6879 25.0218 20.1999L25.3018 19.7573C26.3778 18.0439 26.9151 17.1879 26.5551 16.5066C26.1964 15.8253 25.1778 15.7693 23.1391 15.6599L22.6111 15.6306C22.0324 15.5999 21.7418 15.5839 21.4898 15.4573C21.2364 15.3306 21.0498 15.1066 20.6764 14.6586L20.3364 14.2519C19.0204 12.6786 18.3631 11.8919 17.6058 12.0119C16.8498 12.1333 16.4964 13.0826 15.7898 14.9813L15.6058 15.4719C15.4058 16.0119 15.3044 16.2813 15.1084 16.4799C14.9138 16.6786 14.6444 16.7839 14.1084 16.9946L13.6191 17.1853C11.7298 17.9253 10.7844 18.2959 10.6764 19.0519C10.5698 19.8079 11.3698 20.4506 12.9711 21.7333L13.3844 22.0666C13.8404 22.4306 14.0684 22.6133 14.1991 22.8626C14.3324 23.1119 14.3524 23.4013 14.3938 23.9786L14.4324 24.5039C14.5791 26.5346 14.6538 27.5506 15.3431 27.8973C16.0324 28.2439 16.8818 27.6906 18.5791 26.5866" stroke="#353B42" stroke-width="1.5" stroke-linecap="round"/>
</svg>