<svg xmlns="http://www.w3.org/2000/svg" width="83" height="83" viewBox="0 0 83 83" fill="none">
  <path d="M10.375 24.2085C10.375 21.4569 11.4681 18.818 13.4138 16.8723C15.3595 14.9266 17.9984 13.8335 20.75 13.8335H62.25C65.0016 13.8335 67.6405 14.9266 69.5862 16.8723C71.5319 18.818 72.625 21.4569 72.625 24.2085V58.7918C72.625 61.5434 71.5319 64.1824 69.5862 66.1281C67.6405 68.0738 65.0016 69.1668 62.25 69.1668H20.75C17.9984 69.1668 15.3595 68.0738 13.4138 66.1281C11.4681 64.1824 10.375 61.5434 10.375 58.7918V24.2085Z" stroke="#353B42" stroke-width="3" stroke-linecap="round" stroke-linejoin="round"/>
  <path d="M51.8747 27.667H58.7913M51.8747 41.5003H58.7913M24.208 55.3337H58.7913M24.208 34.5837C24.208 36.4181 24.9367 38.1774 26.2339 39.4745C27.531 40.7716 29.2903 41.5003 31.1247 41.5003C32.9591 41.5003 34.7184 40.7716 36.0155 39.4745C37.3126 38.1774 38.0413 36.4181 38.0413 34.5837C38.0413 32.7492 37.3126 30.99 36.0155 29.6928C34.7184 28.3957 32.9591 27.667 31.1247 27.667C29.2903 27.667 27.531 28.3957 26.2339 29.6928C24.9367 30.99 24.208 32.7492 24.208 34.5837Z" stroke="#353B42" stroke-width="3" stroke-linecap="round" stroke-linejoin="round"/>
</svg>