<svg xmlns="http://www.w3.org/2000/svg" width="37" height="37" viewBox="0 0 37 37" fill="none">
  <path d="M18.5 0C11.0506 0 4.61898 4.43229 1.6862 10.7917H5.15495C6.81706 7.93115 9.37044 5.65479 12.4297 4.33594C11.4059 6.07633 10.5688 8.26839 10.0208 10.7917H13.2487C14.417 6.10645 16.5308 3.08333 18.5 3.08333C20.4692 3.08333 22.583 6.10645 23.7513 10.7917H26.9792C26.4312 8.26839 25.5941 6.07633 24.5703 4.33594C27.6296 5.65479 30.1829 7.93115 31.8451 10.7917H35.3138C32.381 4.43229 25.9494 0 18.5 0ZM0 13.875L2.3125 23.125H4.57682C4.57682 23.125 6.17871 17.5244 6.21484 17.1029H6.26302C6.28109 17.4823 7.85286 23.125 7.85286 23.125H10.0208L12.3333 13.875H10.3581C10.3581 13.875 9.02718 19.4093 9.00911 19.7526H8.96094C8.91878 19.319 7.41927 13.875 7.41927 13.875H5.29948C5.29948 13.875 3.53499 19.4696 3.51693 19.8008C3.49284 19.3612 2.16797 13.875 2.16797 13.875H0ZM12.3333 13.875L14.6458 23.125H16.9102C16.9102 23.125 18.512 17.5244 18.5482 17.1029H18.5964C18.6144 17.4823 20.1862 23.125 20.1862 23.125H22.3542L24.6667 13.875H22.6914C22.6914 13.875 21.3605 19.4093 21.3424 19.7526H21.2943C21.2521 19.319 19.7526 13.875 19.7526 13.875H17.6328C17.6328 13.875 15.8683 19.4696 15.8503 19.8008C15.8262 19.3612 14.5013 13.875 14.5013 13.875H12.3333ZM24.6667 13.875L26.9792 23.125H29.2435C29.2435 23.125 30.8454 17.5244 30.8815 17.1029H30.9297C30.9478 17.4823 32.5195 23.125 32.5195 23.125H34.6875L37 13.875H35.0247C35.0247 13.875 33.6938 19.4093 33.6758 19.7526H33.6276C33.5854 19.319 32.0859 13.875 32.0859 13.875H29.9661C29.9661 13.875 28.2017 19.4696 28.1836 19.8008C28.1595 19.3612 26.8346 13.875 26.8346 13.875H24.6667ZM1.6862 26.2083C4.61898 32.5677 11.0506 37 18.5 37C25.9494 37 32.381 32.5677 35.3138 26.2083H31.8451C30.1829 29.0688 27.6296 31.3452 24.5703 32.6641C25.5941 30.9237 26.4312 28.7316 26.9792 26.2083H23.7513C22.583 30.8936 20.4692 33.9167 18.5 33.9167C16.5308 33.9167 14.417 30.8936 13.2487 26.2083H10.0208C10.5688 28.7316 11.4059 30.9237 12.4297 32.6641C9.37044 31.3452 6.81706 29.0688 5.15495 26.2083H1.6862Z" fill="#F5FAFF"/>
</svg>