<svg xmlns="http://www.w3.org/2000/svg" width="37" height="37" viewBox="0 0 37 37" fill="none">
  <path d="M31.5945 5.37897C29.8905 3.66698 27.8614 2.3097 25.6252 1.38623C23.389 0.462765 20.9906 -0.00842736 18.5697 0.000114077C8.42535 0.000114077 0.157961 8.22796 0.148669 18.3289C0.148669 21.5641 0.99887 24.7114 2.60403 27.498L0 37L9.76569 34.4516C12.4673 35.9152 15.4939 36.6824 18.5697 36.6832H18.579C28.7256 36.6832 36.9907 28.4553 37 18.3451C37.0023 15.9356 36.5257 13.5494 35.5976 11.3241C34.6694 9.09878 33.3105 7.07826 31.5945 5.37897ZM18.5697 33.5798C15.8263 33.5807 13.1333 32.8458 10.7739 31.4523L10.2163 31.1193L4.4229 32.6317L5.96999 27.0054L5.60761 26.425C4.07401 23.9976 3.26293 21.1872 3.26839 18.3197C3.26839 9.93458 10.1374 3.09423 18.579 3.09423C20.59 3.09064 22.5819 3.48336 24.4398 4.24976C26.2977 5.01616 27.9848 6.14108 29.4039 7.55965C30.828 8.9727 31.9569 10.6524 32.7256 12.502C33.4943 14.3515 33.8875 16.3343 33.8826 18.3359C33.8733 26.751 27.0043 33.5798 18.5697 33.5798ZM26.9672 22.17C26.5095 21.941 24.2493 20.8334 23.8242 20.6761C23.4014 20.5258 23.0925 20.4472 22.7905 20.9051C22.4815 21.3606 21.5988 22.3989 21.334 22.6972C21.0692 23.0048 20.7951 23.0395 20.3351 22.8129C19.8775 22.5816 18.3931 22.1006 16.637 20.5351C15.2664 19.321 14.3489 17.8179 14.0748 17.3623C13.81 16.9044 14.0492 16.6593 14.2792 16.4304C14.4813 16.2269 14.7368 15.8939 14.9668 15.6303C15.1991 15.3666 15.2757 15.1724 15.4267 14.8671C15.5777 14.5573 15.5057 14.2936 15.3919 14.0647C15.2757 13.8358 14.3582 11.5765 13.9702 10.6653C13.5986 9.76577 13.2199 9.89065 12.9365 9.87908C12.6717 9.8629 12.3628 9.8629 12.0538 9.8629C11.8205 9.86867 11.5909 9.92239 11.3794 10.0207C11.168 10.119 10.9792 10.2597 10.825 10.4341C10.4022 10.892 9.2198 11.9996 9.2198 14.2589C9.2198 16.5182 10.8691 18.6897 11.1014 18.9972C11.329 19.3048 14.3396 23.9275 18.9599 25.9162C20.0517 26.3903 20.9112 26.6701 21.5826 26.8828C22.686 27.2343 23.6825 27.1812 24.477 27.0678C25.3597 26.9337 27.1971 25.9578 27.5851 24.8872C27.966 23.8142 27.966 22.8984 27.8499 22.7065C27.7361 22.5122 27.4271 22.3989 26.9672 22.17Z" fill="#F5FAFF"/>
</svg>