<svg xmlns="http://www.w3.org/2000/svg" width="38" height="37" viewBox="0 0 38 37" fill="none">
  <path d="M32.0945 5.37897C30.3905 3.66698 28.3614 2.3097 26.1252 1.38623C23.889 0.462765 21.4906 -0.00842736 19.0697 0.000114076C8.92535 0.000114076 0.657961 8.22796 0.648669 18.3289C0.648669 21.5641 1.49887 24.7114 3.10403 27.498L0.5 37L10.2657 34.4516C12.9673 35.9152 15.9939 36.6824 19.0697 36.6832H19.079C29.2256 36.6832 37.4907 28.4553 37.5 18.3451C37.5023 15.9356 37.0257 13.5494 36.0976 11.3241C35.1694 9.09878 33.8105 7.07826 32.0945 5.37897ZM19.0697 33.5798C16.3263 33.5807 13.6333 32.8458 11.2739 31.4523L10.7163 31.1193L4.9229 32.6317L6.46999 27.0054L6.10761 26.425C4.57401 23.9976 3.76293 21.1872 3.76839 18.3197C3.76839 9.93458 10.6374 3.09423 19.079 3.09423C21.09 3.09064 23.0819 3.48336 24.9398 4.24976C26.7977 5.01616 28.4848 6.14108 29.9039 7.55965C31.328 8.9727 32.4569 10.6524 33.2256 12.502C33.9943 14.3515 34.3875 16.3343 34.3826 18.3359C34.3733 26.751 27.5043 33.5798 19.0697 33.5798ZM27.4672 22.17C27.0095 21.941 24.7493 20.8334 24.3242 20.6761C23.9014 20.5258 23.5925 20.4472 23.2905 20.9051C22.9815 21.3606 22.0988 22.3989 21.834 22.6972C21.5692 23.0048 21.2951 23.0395 20.8351 22.8129C20.3775 22.5816 18.8931 22.1006 17.137 20.5351C15.7664 19.321 14.8489 17.8179 14.5748 17.3623C14.31 16.9044 14.5492 16.6593 14.7792 16.4304C14.9813 16.2269 15.2368 15.8939 15.4668 15.6303C15.6991 15.3666 15.7757 15.1724 15.9267 14.8671C16.0777 14.5573 16.0057 14.2936 15.8919 14.0647C15.7757 13.8358 14.8582 11.5765 14.4702 10.6653C14.0986 9.76577 13.7199 9.89065 13.4365 9.87908C13.1717 9.8629 12.8628 9.8629 12.5538 9.8629C12.3205 9.86867 12.0909 9.92239 11.8794 10.0207C11.668 10.119 11.4792 10.2597 11.325 10.4341C10.9022 10.892 9.7198 11.9996 9.7198 14.2589C9.7198 16.5182 11.3691 18.6897 11.6014 18.9972C11.829 19.3048 14.8396 23.9275 19.4599 25.9162C20.5517 26.3903 21.4112 26.6701 22.0826 26.8828C23.186 27.2343 24.1825 27.1812 24.977 27.0678C25.8597 26.9337 27.6971 25.9578 28.0851 24.8872C28.466 23.8142 28.466 22.8984 28.3499 22.7065C28.2361 22.5122 27.9271 22.3989 27.4672 22.17Z" fill="#353B42"/>
  <path d="M32.0945 5.37897C30.3905 3.66698 28.3614 2.3097 26.1252 1.38623C23.889 0.462765 21.4906 -0.00842736 19.0697 0.000114076C8.92535 0.000114076 0.657961 8.22796 0.648669 18.3289C0.648669 21.5641 1.49887 24.7114 3.10403 27.498L0.5 37L10.2657 34.4516C12.9673 35.9152 15.9939 36.6824 19.0697 36.6832H19.079C29.2256 36.6832 37.4907 28.4553 37.5 18.3451C37.5023 15.9356 37.0257 13.5494 36.0976 11.3241C35.1694 9.09878 33.8105 7.07826 32.0945 5.37897ZM19.0697 33.5798C16.3263 33.5807 13.6333 32.8458 11.2739 31.4523L10.7163 31.1193L4.9229 32.6317L6.46999 27.0054L6.10761 26.425C4.57401 23.9976 3.76293 21.1872 3.76839 18.3197C3.76839 9.93458 10.6374 3.09423 19.079 3.09423C21.09 3.09064 23.0819 3.48336 24.9398 4.24976C26.7977 5.01616 28.4848 6.14108 29.9039 7.55965C31.328 8.9727 32.4569 10.6524 33.2256 12.502C33.9943 14.3515 34.3875 16.3343 34.3826 18.3359C34.3733 26.751 27.5043 33.5798 19.0697 33.5798ZM27.4672 22.17C27.0095 21.941 24.7493 20.8334 24.3242 20.6761C23.9014 20.5258 23.5925 20.4472 23.2905 20.9051C22.9815 21.3606 22.0988 22.3989 21.834 22.6972C21.5692 23.0048 21.2951 23.0395 20.8351 22.8129C20.3775 22.5816 18.8931 22.1006 17.137 20.5351C15.7664 19.321 14.8489 17.8179 14.5748 17.3623C14.31 16.9044 14.5492 16.6593 14.7792 16.4304C14.9813 16.2269 15.2368 15.8939 15.4668 15.6303C15.6991 15.3666 15.7757 15.1724 15.9267 14.8671C16.0777 14.5573 16.0057 14.2936 15.8919 14.0647C15.7757 13.8358 14.8582 11.5765 14.4702 10.6653C14.0986 9.76577 13.7199 9.89065 13.4365 9.87908C13.1717 9.8629 12.8628 9.8629 12.5538 9.8629C12.3205 9.86867 12.0909 9.92239 11.8794 10.0207C11.668 10.119 11.4792 10.2597 11.325 10.4341C10.9022 10.892 9.7198 11.9996 9.7198 14.2589C9.7198 16.5182 11.3691 18.6897 11.6014 18.9972C11.829 19.3048 14.8396 23.9275 19.4599 25.9162C20.5517 26.3903 21.4112 26.6701 22.0826 26.8828C23.186 27.2343 24.1825 27.1812 24.977 27.0678C25.8597 26.9337 27.6971 25.9578 28.0851 24.8872C28.466 23.8142 28.466 22.8984 28.3499 22.7065C28.2361 22.5122 27.9271 22.3989 27.4672 22.17Z" fill="black" fill-opacity="0.2"/>
  <path d="M32.0945 5.37897C30.3905 3.66698 28.3614 2.3097 26.1252 1.38623C23.889 0.462765 21.4906 -0.00842736 19.0697 0.000114076C8.92535 0.000114076 0.657961 8.22796 0.648669 18.3289C0.648669 21.5641 1.49887 24.7114 3.10403 27.498L0.5 37L10.2657 34.4516C12.9673 35.9152 15.9939 36.6824 19.0697 36.6832H19.079C29.2256 36.6832 37.4907 28.4553 37.5 18.3451C37.5023 15.9356 37.0257 13.5494 36.0976 11.3241C35.1694 9.09878 33.8105 7.07826 32.0945 5.37897ZM19.0697 33.5798C16.3263 33.5807 13.6333 32.8458 11.2739 31.4523L10.7163 31.1193L4.9229 32.6317L6.46999 27.0054L6.10761 26.425C4.57401 23.9976 3.76293 21.1872 3.76839 18.3197C3.76839 9.93458 10.6374 3.09423 19.079 3.09423C21.09 3.09064 23.0819 3.48336 24.9398 4.24976C26.7977 5.01616 28.4848 6.14108 29.9039 7.55965C31.328 8.9727 32.4569 10.6524 33.2256 12.502C33.9943 14.3515 34.3875 16.3343 34.3826 18.3359C34.3733 26.751 27.5043 33.5798 19.0697 33.5798ZM27.4672 22.17C27.0095 21.941 24.7493 20.8334 24.3242 20.6761C23.9014 20.5258 23.5925 20.4472 23.2905 20.9051C22.9815 21.3606 22.0988 22.3989 21.834 22.6972C21.5692 23.0048 21.2951 23.0395 20.8351 22.8129C20.3775 22.5816 18.8931 22.1006 17.137 20.5351C15.7664 19.321 14.8489 17.8179 14.5748 17.3623C14.31 16.9044 14.5492 16.6593 14.7792 16.4304C14.9813 16.2269 15.2368 15.8939 15.4668 15.6303C15.6991 15.3666 15.7757 15.1724 15.9267 14.8671C16.0777 14.5573 16.0057 14.2936 15.8919 14.0647C15.7757 13.8358 14.8582 11.5765 14.4702 10.6653C14.0986 9.76577 13.7199 9.89065 13.4365 9.87908C13.1717 9.8629 12.8628 9.8629 12.5538 9.8629C12.3205 9.86867 12.0909 9.92239 11.8794 10.0207C11.668 10.119 11.4792 10.2597 11.325 10.4341C10.9022 10.892 9.7198 11.9996 9.7198 14.2589C9.7198 16.5182 11.3691 18.6897 11.6014 18.9972C11.829 19.3048 14.8396 23.9275 19.4599 25.9162C20.5517 26.3903 21.4112 26.6701 22.0826 26.8828C23.186 27.2343 24.1825 27.1812 24.977 27.0678C25.8597 26.9337 27.6971 25.9578 28.0851 24.8872C28.466 23.8142 28.466 22.8984 28.3499 22.7065C28.2361 22.5122 27.9271 22.3989 27.4672 22.17Z" fill="black" fill-opacity="0.2"/>
</svg>